G04 #@! TF.GenerationSoftware,KiCad,Pcbnew,(5.0.0)*
G04 #@! TF.CreationDate,2019-01-27T02:47:26-08:00*
G04 #@! TF.ProjectId,Voyager60,566F796167657236302E6B696361645F,rev?*
G04 #@! TF.SameCoordinates,Original*
G04 #@! TF.FileFunction,Soldermask,Bot*
G04 #@! TF.FilePolarity,Negative*
%FSLAX46Y46*%
G04 Gerber Fmt 4.6, Leading zero omitted, Abs format (unit mm)*
G04 Created by KiCad (PCBNEW (5.0.0)) date 01/27/19 02:47:26*
%MOMM*%
%LPD*%
G01*
G04 APERTURE LIST*
%ADD10C,2.501900*%
%ADD11R,1.600000X1.300000*%
%ADD12R,2.430000X1.540000*%
%ADD13R,1.200000X1.300000*%
%ADD14R,1.700000X1.100000*%
%ADD15R,1.100000X1.700000*%
%ADD16R,1.100000X1.000000*%
%ADD17R,1.100000X1.400000*%
%ADD18R,1.800000X1.600000*%
%ADD19C,1.400000*%
%ADD20C,7.400240*%
%ADD21C,7.401300*%
%ADD22O,1.400000X2.000000*%
%ADD23O,1.400000X2.500000*%
%ADD24C,1.050000*%
%ADD25R,0.700000X1.850000*%
%ADD26R,1.000000X1.850000*%
%ADD27R,1.150000X1.200000*%
%ADD28R,1.200000X1.150000*%
%ADD29R,1.687500X1.687500*%
%ADD30R,0.650000X1.100000*%
%ADD31R,1.100000X0.650000*%
%ADD32R,2.200000X1.500000*%
%ADD33C,2.650000*%
%ADD34C,2.650000*%
%ADD35C,4.387800*%
%ADD36C,2.305000*%
%ADD37R,2.305000X2.305000*%
%ADD38C,2.150000*%
%ADD39C,3.448000*%
%ADD40C,2.101800*%
%ADD41R,2.200000X1.800000*%
G04 APERTURE END LIST*
D10*
G04 #@! TO.C,REF\002A\002A*
X22600000Y-81700950D02*
X26400000Y-81700950D01*
X26400000Y-81700950D02*
G75*
G03X29050950Y-79050000I0J2650950D01*
G01*
X29050950Y-79050000D02*
G75*
G03X26400000Y-76399050I-2650950J0D01*
G01*
X22600000Y-76399050D02*
X26400000Y-76399050D01*
X303800000Y-81700950D02*
X307650000Y-81700950D01*
X303800000Y-81700950D02*
G75*
G02X301149050Y-79050000I0J2650950D01*
G01*
X301149050Y-79050000D02*
G75*
G02X303800000Y-76399050I2650950J0D01*
G01*
X303800000Y-76399050D02*
X307600000Y-76399050D01*
G04 #@! TD*
D11*
G04 #@! TO.C,D1*
X24606250Y-33400000D03*
X24606250Y-30100000D03*
G04 #@! TD*
G04 #@! TO.C,D2*
X57943750Y-33400000D03*
X57943750Y-30100000D03*
G04 #@! TD*
G04 #@! TO.C,D3*
X76993750Y-30100000D03*
X76993750Y-33400000D03*
G04 #@! TD*
G04 #@! TO.C,D4*
X96043750Y-33400000D03*
X96043750Y-30100000D03*
G04 #@! TD*
G04 #@! TO.C,D5*
X115093750Y-30100000D03*
X115093750Y-33400000D03*
G04 #@! TD*
G04 #@! TO.C,D6*
X134143750Y-33400000D03*
X134143750Y-30100000D03*
G04 #@! TD*
G04 #@! TO.C,D7*
X153193750Y-30100000D03*
X153193750Y-33400000D03*
G04 #@! TD*
G04 #@! TO.C,D8*
X172243750Y-33400000D03*
X172243750Y-30100000D03*
G04 #@! TD*
G04 #@! TO.C,D9*
X191293750Y-33400000D03*
X191293750Y-30100000D03*
G04 #@! TD*
G04 #@! TO.C,D10*
X210343750Y-33400000D03*
X210343750Y-30100000D03*
G04 #@! TD*
G04 #@! TO.C,D11*
X229393750Y-30100000D03*
X229393750Y-33400000D03*
G04 #@! TD*
G04 #@! TO.C,D12*
X248443750Y-31812500D03*
X248443750Y-28512500D03*
G04 #@! TD*
G04 #@! TO.C,D13*
X252412500Y-31812500D03*
X252412500Y-28512500D03*
G04 #@! TD*
G04 #@! TO.C,D14*
X267493750Y-30100000D03*
X267493750Y-33400000D03*
G04 #@! TD*
G04 #@! TO.C,D16*
X28575000Y-52450000D03*
X28575000Y-49150000D03*
G04 #@! TD*
G04 #@! TO.C,D17*
X67468750Y-52450000D03*
X67468750Y-49150000D03*
G04 #@! TD*
G04 #@! TO.C,D18*
X86518750Y-52450000D03*
X86518750Y-49150000D03*
G04 #@! TD*
G04 #@! TO.C,D19*
X105568750Y-49150000D03*
X105568750Y-52450000D03*
G04 #@! TD*
G04 #@! TO.C,D20*
X124618750Y-49150000D03*
X124618750Y-52450000D03*
G04 #@! TD*
G04 #@! TO.C,D21*
X143668750Y-52450000D03*
X143668750Y-49150000D03*
G04 #@! TD*
G04 #@! TO.C,D22*
X162718750Y-49150000D03*
X162718750Y-52450000D03*
G04 #@! TD*
G04 #@! TO.C,D23*
X181768750Y-49150000D03*
X181768750Y-52450000D03*
G04 #@! TD*
G04 #@! TO.C,D24*
X200818750Y-52450000D03*
X200818750Y-49150000D03*
G04 #@! TD*
G04 #@! TO.C,D25*
X219868750Y-49150000D03*
X219868750Y-52450000D03*
G04 #@! TD*
G04 #@! TO.C,D26*
X238918750Y-52450000D03*
X238918750Y-49150000D03*
G04 #@! TD*
G04 #@! TO.C,D27*
X257968750Y-49150000D03*
X257968750Y-52450000D03*
G04 #@! TD*
G04 #@! TO.C,D28*
X261937500Y-49150000D03*
X261937500Y-52450000D03*
G04 #@! TD*
G04 #@! TO.C,D29*
X277018750Y-49150000D03*
X277018750Y-52450000D03*
G04 #@! TD*
G04 #@! TO.C,D30*
X279400000Y-109600000D03*
X279400000Y-106300000D03*
G04 #@! TD*
G04 #@! TO.C,D31*
X26193750Y-67531250D03*
X26193750Y-64231250D03*
G04 #@! TD*
G04 #@! TO.C,D32*
X72231250Y-67406250D03*
X72231250Y-70706250D03*
G04 #@! TD*
G04 #@! TO.C,D33*
X91281250Y-67406250D03*
X91281250Y-70706250D03*
G04 #@! TD*
G04 #@! TO.C,D34*
X110331250Y-70706250D03*
X110331250Y-67406250D03*
G04 #@! TD*
G04 #@! TO.C,D35*
X129381250Y-70706250D03*
X129381250Y-67406250D03*
G04 #@! TD*
G04 #@! TO.C,D36*
X133350000Y-70706250D03*
X133350000Y-67406250D03*
G04 #@! TD*
G04 #@! TO.C,D37*
X167481250Y-67406250D03*
X167481250Y-70706250D03*
G04 #@! TD*
G04 #@! TO.C,D38*
X186531250Y-67406250D03*
X186531250Y-70706250D03*
G04 #@! TD*
G04 #@! TO.C,D39*
X205581250Y-67406250D03*
X205581250Y-70706250D03*
G04 #@! TD*
G04 #@! TO.C,D40*
X224631250Y-70706250D03*
X224631250Y-67406250D03*
G04 #@! TD*
G04 #@! TO.C,D41*
X243681250Y-67406250D03*
X243681250Y-70706250D03*
G04 #@! TD*
G04 #@! TO.C,D42*
X262731250Y-67406250D03*
X262731250Y-70706250D03*
G04 #@! TD*
G04 #@! TO.C,D43*
X293687500Y-68200000D03*
X293687500Y-71500000D03*
G04 #@! TD*
G04 #@! TO.C,D45*
X26193750Y-90550000D03*
X26193750Y-87250000D03*
G04 #@! TD*
G04 #@! TO.C,D46*
X81756250Y-88962500D03*
X81756250Y-85662500D03*
G04 #@! TD*
G04 #@! TO.C,D47*
X100806250Y-85662500D03*
X100806250Y-88962500D03*
G04 #@! TD*
G04 #@! TO.C,D48*
X119856250Y-88962500D03*
X119856250Y-85662500D03*
G04 #@! TD*
G04 #@! TO.C,D49*
X138906250Y-85662500D03*
X138906250Y-88962500D03*
G04 #@! TD*
G04 #@! TO.C,D50*
X157956250Y-85662500D03*
X157956250Y-88962500D03*
G04 #@! TD*
G04 #@! TO.C,D51*
X177006250Y-85662500D03*
X177006250Y-88962500D03*
G04 #@! TD*
G04 #@! TO.C,D52*
X196056250Y-85662500D03*
X196056250Y-88962500D03*
G04 #@! TD*
G04 #@! TO.C,D53*
X215106250Y-88962500D03*
X215106250Y-85662500D03*
G04 #@! TD*
G04 #@! TO.C,D54*
X234156250Y-88962500D03*
X234156250Y-85662500D03*
G04 #@! TD*
G04 #@! TO.C,D55*
X253206250Y-88962500D03*
X253206250Y-85662500D03*
G04 #@! TD*
G04 #@! TO.C,D56*
X264318750Y-85662500D03*
X264318750Y-88962500D03*
G04 #@! TD*
G04 #@! TO.C,D57*
X288925000Y-85662500D03*
X288925000Y-88962500D03*
G04 #@! TD*
G04 #@! TO.C,D59*
X43656250Y-106300000D03*
X43656250Y-109600000D03*
G04 #@! TD*
G04 #@! TO.C,D60*
X67468750Y-109600000D03*
X67468750Y-106300000D03*
G04 #@! TD*
G04 #@! TO.C,D61*
X140493750Y-109600000D03*
X140493750Y-106300000D03*
G04 #@! TD*
G04 #@! TO.C,D63*
X231775000Y-109600000D03*
X231775000Y-106300000D03*
G04 #@! TD*
G04 #@! TO.C,D64*
X255587500Y-109600000D03*
X255587500Y-106300000D03*
G04 #@! TD*
G04 #@! TO.C,D65*
X303212500Y-106300000D03*
X303212500Y-109600000D03*
G04 #@! TD*
G04 #@! TO.C,D67*
X91281250Y-109600000D03*
X91281250Y-106300000D03*
G04 #@! TD*
G04 #@! TO.C,D68*
X271462500Y-33400000D03*
X271462500Y-30100000D03*
G04 #@! TD*
D12*
G04 #@! TO.C,F1*
X35941000Y-39281250D03*
X35941000Y-41681250D03*
G04 #@! TD*
D13*
G04 #@! TO.C,Q1*
X60325000Y-38687500D03*
X59375000Y-40687500D03*
X61275000Y-40687500D03*
G04 #@! TD*
D14*
G04 #@! TO.C,R1*
X24606250Y-27143750D03*
X24606250Y-25243750D03*
G04 #@! TD*
G04 #@! TO.C,R2*
X57943750Y-27143750D03*
X57943750Y-25243750D03*
G04 #@! TD*
G04 #@! TO.C,R3*
X76993750Y-36356250D03*
X76993750Y-38256250D03*
G04 #@! TD*
G04 #@! TO.C,R4*
X96043750Y-36356250D03*
X96043750Y-38256250D03*
G04 #@! TD*
G04 #@! TO.C,R5*
X115093750Y-36356250D03*
X115093750Y-38256250D03*
G04 #@! TD*
G04 #@! TO.C,R6*
X134143750Y-38256250D03*
X134143750Y-36356250D03*
G04 #@! TD*
G04 #@! TO.C,R7*
X153193750Y-38256250D03*
X153193750Y-36356250D03*
G04 #@! TD*
G04 #@! TO.C,R8*
X172243750Y-36356250D03*
X172243750Y-38256250D03*
G04 #@! TD*
G04 #@! TO.C,R9*
X191293750Y-36356250D03*
X191293750Y-38256250D03*
G04 #@! TD*
G04 #@! TO.C,R10*
X212725000Y-36356250D03*
X212725000Y-38256250D03*
G04 #@! TD*
G04 #@! TO.C,R11*
X229393750Y-36356250D03*
X229393750Y-38256250D03*
G04 #@! TD*
G04 #@! TO.C,R12*
X248443750Y-36668750D03*
X248443750Y-34768750D03*
G04 #@! TD*
G04 #@! TO.C,R13*
X252412500Y-36668750D03*
X252412500Y-34768750D03*
G04 #@! TD*
G04 #@! TO.C,R14*
X267493750Y-36356250D03*
X267493750Y-38256250D03*
G04 #@! TD*
G04 #@! TO.C,R16*
X28575000Y-57306250D03*
X28575000Y-55406250D03*
G04 #@! TD*
G04 #@! TO.C,R17*
X67468750Y-57306250D03*
X67468750Y-55406250D03*
G04 #@! TD*
G04 #@! TO.C,R18*
X86518750Y-57306250D03*
X86518750Y-55406250D03*
G04 #@! TD*
G04 #@! TO.C,R19*
X105568750Y-57306250D03*
X105568750Y-55406250D03*
G04 #@! TD*
G04 #@! TO.C,R20*
X124618750Y-55406250D03*
X124618750Y-57306250D03*
G04 #@! TD*
G04 #@! TO.C,R21*
X143668750Y-57306250D03*
X143668750Y-55406250D03*
G04 #@! TD*
G04 #@! TO.C,R22*
X162718750Y-55406250D03*
X162718750Y-57306250D03*
G04 #@! TD*
G04 #@! TO.C,R23*
X181768750Y-57306250D03*
X181768750Y-55406250D03*
G04 #@! TD*
G04 #@! TO.C,R24*
X200818750Y-55406250D03*
X200818750Y-57306250D03*
G04 #@! TD*
G04 #@! TO.C,R25*
X219868750Y-57306250D03*
X219868750Y-55406250D03*
G04 #@! TD*
G04 #@! TO.C,R26*
X238918750Y-55406250D03*
X238918750Y-57306250D03*
G04 #@! TD*
G04 #@! TO.C,R27*
X257968750Y-57306250D03*
X257968750Y-55406250D03*
G04 #@! TD*
G04 #@! TO.C,R28*
X261937500Y-55406250D03*
X261937500Y-57306250D03*
G04 #@! TD*
G04 #@! TO.C,R29*
X277018750Y-57306250D03*
X277018750Y-55406250D03*
G04 #@! TD*
G04 #@! TO.C,R30*
X279400000Y-114456250D03*
X279400000Y-112556250D03*
G04 #@! TD*
G04 #@! TO.C,R31*
X26193750Y-70487500D03*
X26193750Y-72387500D03*
G04 #@! TD*
G04 #@! TO.C,R32*
X72231250Y-75562500D03*
X72231250Y-73662500D03*
G04 #@! TD*
G04 #@! TO.C,R33*
X91281250Y-73662500D03*
X91281250Y-75562500D03*
G04 #@! TD*
G04 #@! TO.C,R34*
X110331250Y-75562500D03*
X110331250Y-73662500D03*
G04 #@! TD*
G04 #@! TO.C,R35*
X129381250Y-73662500D03*
X129381250Y-75562500D03*
G04 #@! TD*
G04 #@! TO.C,R36*
X133350000Y-75562500D03*
X133350000Y-73662500D03*
G04 #@! TD*
G04 #@! TO.C,R37*
X167481250Y-73662500D03*
X167481250Y-75562500D03*
G04 #@! TD*
G04 #@! TO.C,R38*
X186531250Y-75562500D03*
X186531250Y-73662500D03*
G04 #@! TD*
G04 #@! TO.C,R39*
X205581250Y-73662500D03*
X205581250Y-75562500D03*
G04 #@! TD*
G04 #@! TO.C,R40*
X224631250Y-73662500D03*
X224631250Y-75562500D03*
G04 #@! TD*
G04 #@! TO.C,R41*
X243681250Y-75562500D03*
X243681250Y-73662500D03*
G04 #@! TD*
G04 #@! TO.C,R42*
X262731250Y-73662500D03*
X262731250Y-75562500D03*
G04 #@! TD*
G04 #@! TO.C,R43*
X293687500Y-76356250D03*
X293687500Y-74456250D03*
G04 #@! TD*
G04 #@! TO.C,R45*
X26193750Y-95406250D03*
X26193750Y-93506250D03*
G04 #@! TD*
G04 #@! TO.C,R46*
X81756250Y-91918750D03*
X81756250Y-93818750D03*
G04 #@! TD*
G04 #@! TO.C,R47*
X100806250Y-93818750D03*
X100806250Y-91918750D03*
G04 #@! TD*
G04 #@! TO.C,R48*
X119856250Y-93818750D03*
X119856250Y-91918750D03*
G04 #@! TD*
G04 #@! TO.C,R49*
X138906250Y-91918750D03*
X138906250Y-93818750D03*
G04 #@! TD*
G04 #@! TO.C,R50*
X157956250Y-91918750D03*
X157956250Y-93818750D03*
G04 #@! TD*
G04 #@! TO.C,R51*
X177006250Y-93818750D03*
X177006250Y-91918750D03*
G04 #@! TD*
G04 #@! TO.C,R52*
X196056250Y-91918750D03*
X196056250Y-93818750D03*
G04 #@! TD*
G04 #@! TO.C,R53*
X215106250Y-93818750D03*
X215106250Y-91918750D03*
G04 #@! TD*
G04 #@! TO.C,R54*
X234156250Y-91918750D03*
X234156250Y-93818750D03*
G04 #@! TD*
G04 #@! TO.C,R55*
X253206250Y-93818750D03*
X253206250Y-91918750D03*
G04 #@! TD*
G04 #@! TO.C,R56*
X264318750Y-91918750D03*
X264318750Y-93818750D03*
G04 #@! TD*
G04 #@! TO.C,R57*
X288925000Y-93818750D03*
X288925000Y-91918750D03*
G04 #@! TD*
G04 #@! TO.C,R59*
X43656250Y-112556250D03*
X43656250Y-114456250D03*
G04 #@! TD*
G04 #@! TO.C,R60*
X67468750Y-114456250D03*
X67468750Y-112556250D03*
G04 #@! TD*
G04 #@! TO.C,R61*
X140493750Y-114456250D03*
X140493750Y-112556250D03*
G04 #@! TD*
G04 #@! TO.C,R63*
X231775000Y-114456250D03*
X231775000Y-112556250D03*
G04 #@! TD*
G04 #@! TO.C,R64*
X255587500Y-114456250D03*
X255587500Y-112556250D03*
G04 #@! TD*
G04 #@! TO.C,R65*
X303212500Y-114456250D03*
X303212500Y-112556250D03*
G04 #@! TD*
G04 #@! TO.C,R67*
X39497000Y-39177000D03*
X39497000Y-37277000D03*
G04 #@! TD*
G04 #@! TO.C,R68*
X42291000Y-37277000D03*
X42291000Y-39177000D03*
G04 #@! TD*
G04 #@! TO.C,R69*
X64389000Y-38674000D03*
X64389000Y-40574000D03*
G04 #@! TD*
D15*
G04 #@! TO.C,R70*
X45881250Y-73025000D03*
X47781250Y-73025000D03*
G04 #@! TD*
G04 #@! TO.C,R71*
X60894000Y-72009000D03*
X58994000Y-72009000D03*
G04 #@! TD*
D14*
G04 #@! TO.C,R72*
X91281250Y-114456250D03*
X91281250Y-112556250D03*
G04 #@! TD*
G04 #@! TO.C,R73*
X32385000Y-39531250D03*
X32385000Y-41431250D03*
G04 #@! TD*
G04 #@! TO.C,R74*
X47625000Y-32700000D03*
X47625000Y-30800000D03*
G04 #@! TD*
G04 #@! TO.C,R75*
X271462500Y-36356250D03*
X271462500Y-38256250D03*
G04 #@! TD*
D16*
G04 #@! TO.C,U2*
X39894000Y-33589000D03*
X41894000Y-33589000D03*
X39894000Y-31689000D03*
D17*
X41894000Y-31889000D03*
G04 #@! TD*
D18*
G04 #@! TO.C,Y1*
X52281000Y-55919000D03*
X50081000Y-55919000D03*
X50081000Y-57619000D03*
X52281000Y-57619000D03*
G04 #@! TD*
D19*
G04 #@! TO.C,REF\002A\002A*
X301961522Y-80888478D03*
X303800000Y-81650000D03*
X305842035Y-81650000D03*
X305842035Y-76450000D03*
X303800000Y-76450000D03*
X301961522Y-77211522D03*
X301200000Y-79050000D03*
X24357965Y-81650000D03*
X24357965Y-76450000D03*
X28238478Y-80888478D03*
X28238478Y-77211522D03*
X26400000Y-81650000D03*
X26400000Y-76450000D03*
X29000000Y-79050000D03*
X152000000Y-71850000D03*
X149600000Y-71850000D03*
X150800000Y-71850000D03*
X149600000Y-67250000D03*
X152000000Y-67250000D03*
X150800000Y-67250000D03*
X214300000Y-110050000D03*
X211900000Y-110050000D03*
X211900000Y-105450000D03*
X214300000Y-105450000D03*
X213100000Y-110050000D03*
X213100000Y-105450000D03*
X283850000Y-48133000D03*
X281450000Y-48150000D03*
X281450000Y-52750000D03*
X283850000Y-52750000D03*
X282650000Y-52750000D03*
X282650000Y-48150000D03*
X49426346Y-52076346D03*
X46173654Y-52076346D03*
X49426346Y-48823654D03*
X46173654Y-48823654D03*
X47800000Y-52750000D03*
X50100000Y-50450000D03*
X45500000Y-50450000D03*
X47800000Y-48150000D03*
D20*
X282650000Y-50450000D03*
X213100000Y-107750000D03*
X150800000Y-69550000D03*
D21*
X47800000Y-50450000D03*
G04 #@! TD*
D22*
G04 #@! TO.C,USB1*
X45157600Y-23237500D03*
X36517600Y-23237500D03*
D23*
X45157600Y-27417500D03*
X36517600Y-27417500D03*
D24*
X37947600Y-26887500D03*
X43727600Y-26887500D03*
D25*
X40587600Y-28332500D03*
X41087600Y-28332500D03*
X41587600Y-28332500D03*
X40087600Y-28332500D03*
X42087600Y-28332500D03*
X39587600Y-28332500D03*
X42587600Y-28332500D03*
X39087600Y-28332500D03*
D26*
X38387600Y-28332500D03*
X43287600Y-28332500D03*
X37612600Y-28332500D03*
X44062600Y-28332500D03*
G04 #@! TD*
D11*
G04 #@! TO.C,D44*
X62706250Y-85662500D03*
X62706250Y-88962500D03*
G04 #@! TD*
D14*
G04 #@! TO.C,R44*
X62706250Y-91918750D03*
X62706250Y-93818750D03*
G04 #@! TD*
D11*
G04 #@! TO.C,D58*
X122237500Y-109600000D03*
X122237500Y-106300000D03*
G04 #@! TD*
G04 #@! TO.C,D62*
X193675000Y-106300000D03*
X193675000Y-109600000D03*
G04 #@! TD*
D14*
G04 #@! TO.C,R58*
X122237500Y-114456250D03*
X122237500Y-112556250D03*
G04 #@! TD*
G04 #@! TO.C,R62*
X193675000Y-112556250D03*
X193675000Y-114456250D03*
G04 #@! TD*
D27*
G04 #@! TO.C,C2*
X45974000Y-68592000D03*
X45974000Y-70092000D03*
G04 #@! TD*
G04 #@! TO.C,C3*
X57277000Y-60337000D03*
X57277000Y-61837000D03*
G04 #@! TD*
G04 #@! TO.C,C4*
X46609000Y-61583000D03*
X46609000Y-60083000D03*
G04 #@! TD*
D28*
G04 #@! TO.C,C5*
X53923500Y-71786750D03*
X55423500Y-71786750D03*
G04 #@! TD*
D27*
G04 #@! TO.C,C6*
X45212000Y-64655000D03*
X45212000Y-66155000D03*
G04 #@! TD*
G04 #@! TO.C,C7*
X54737000Y-57519000D03*
X54737000Y-56019000D03*
G04 #@! TD*
G04 #@! TO.C,C8*
X47498000Y-57519000D03*
X47498000Y-56019000D03*
G04 #@! TD*
D29*
G04 #@! TO.C,U1*
X49573559Y-67995403D03*
X49573559Y-66707903D03*
X49573559Y-65420403D03*
X49573559Y-64132903D03*
X50861059Y-67995403D03*
X50861059Y-66707903D03*
X50861059Y-65420403D03*
X50861059Y-64132903D03*
X52148559Y-67995403D03*
X52148559Y-66707903D03*
X52148559Y-65420403D03*
X52148559Y-64132903D03*
X53436059Y-67995403D03*
X53436059Y-66707903D03*
X53436059Y-65420403D03*
X53436059Y-64132903D03*
D30*
X49004809Y-69464153D03*
X49504809Y-69464153D03*
X50004809Y-69464153D03*
X50504809Y-69464153D03*
X51004809Y-69464153D03*
X51504809Y-69464153D03*
X52004809Y-69464153D03*
X52504809Y-69464153D03*
X53004809Y-69464153D03*
X53504809Y-69464153D03*
X54004809Y-69464153D03*
D31*
X54904809Y-68564153D03*
X54904809Y-68064153D03*
X54904809Y-67564153D03*
X54904809Y-67064153D03*
X54904809Y-66564153D03*
X54904809Y-66064153D03*
X54904809Y-65564153D03*
X54904809Y-65064153D03*
X54904809Y-64564153D03*
X54904809Y-64064153D03*
X54904809Y-63564153D03*
D30*
X54004809Y-62664153D03*
X53504809Y-62664153D03*
X53004809Y-62664153D03*
X52504809Y-62664153D03*
X52004809Y-62664153D03*
X51504809Y-62664153D03*
X51004809Y-62664153D03*
X50504809Y-62664153D03*
X50004809Y-62664153D03*
X49504809Y-62664153D03*
X49004809Y-62664153D03*
D31*
X48104809Y-63564153D03*
X48104809Y-64064153D03*
X48104809Y-64564153D03*
X48104809Y-65064153D03*
X48104809Y-65564153D03*
X48104809Y-66064153D03*
X48104809Y-66564153D03*
X48104809Y-67064153D03*
X48104809Y-67564153D03*
X48104809Y-68064153D03*
X48104809Y-68564153D03*
G04 #@! TD*
D32*
G04 #@! TO.C,SW1*
X74537500Y-98162500D03*
X68337500Y-101862500D03*
X74537500Y-101862500D03*
X68337500Y-98162500D03*
G04 #@! TD*
D33*
G04 #@! TO.C,K_\002C1*
X210482500Y-84110000D03*
D34*
X210462500Y-84400000D02*
X210502500Y-83820000D01*
D33*
X210502500Y-83820000D03*
X204807501Y-85630000D03*
D34*
X204152500Y-86360000D02*
X205462502Y-84900000D01*
D35*
X207962500Y-88900000D03*
D33*
X205462500Y-84900000D03*
D36*
X206692500Y-93980000D03*
D37*
X209232500Y-93980000D03*
D38*
X202882500Y-88900000D03*
X213042500Y-88900000D03*
G04 #@! TD*
D33*
G04 #@! TO.C,K_.1*
X229532500Y-84110000D03*
D34*
X229512500Y-84400000D02*
X229552500Y-83820000D01*
D33*
X229552500Y-83820000D03*
X223857501Y-85630000D03*
D34*
X223202500Y-86360000D02*
X224512502Y-84900000D01*
D35*
X227012500Y-88900000D03*
D33*
X224512500Y-84900000D03*
D36*
X225742500Y-93980000D03*
D37*
X228282500Y-93980000D03*
D38*
X221932500Y-88900000D03*
X232092500Y-88900000D03*
G04 #@! TD*
G04 #@! TO.C,K_#1*
X45720000Y-31750000D03*
X55880000Y-31750000D03*
D37*
X49530000Y-26670000D03*
D36*
X52070000Y-26670000D03*
D33*
X53300000Y-35750000D03*
D35*
X50800000Y-31750000D03*
D33*
X53954999Y-35020000D03*
D34*
X54610000Y-34290000D02*
X53299998Y-35750000D01*
D33*
X48260000Y-36830000D03*
X48280000Y-36540000D03*
D34*
X48300000Y-36250000D02*
X48260000Y-36830000D01*
G04 #@! TD*
D38*
G04 #@! TO.C,K_#2*
X74930000Y-31750000D03*
X64770000Y-31750000D03*
D37*
X71120000Y-36830000D03*
D36*
X68580000Y-36830000D03*
D33*
X67350000Y-27750000D03*
D35*
X69850000Y-31750000D03*
D33*
X66695001Y-28480000D03*
D34*
X66040000Y-29210000D02*
X67350002Y-27750000D01*
D33*
X72390000Y-26670000D03*
X72370000Y-26960000D03*
D34*
X72350000Y-27250000D02*
X72390000Y-26670000D01*
G04 #@! TD*
D38*
G04 #@! TO.C,K_#3*
X93980000Y-31750000D03*
X83820000Y-31750000D03*
D37*
X90170000Y-36830000D03*
D36*
X87630000Y-36830000D03*
D33*
X86400000Y-27750000D03*
D35*
X88900000Y-31750000D03*
D33*
X85745001Y-28480000D03*
D34*
X85090000Y-29210000D02*
X86400002Y-27750000D01*
D33*
X91440000Y-26670000D03*
X91420000Y-26960000D03*
D34*
X91400000Y-27250000D02*
X91440000Y-26670000D01*
G04 #@! TD*
D38*
G04 #@! TO.C,K_#4*
X113030000Y-31750000D03*
X102870000Y-31750000D03*
D37*
X109220000Y-36830000D03*
D36*
X106680000Y-36830000D03*
D33*
X105450000Y-27750000D03*
D35*
X107950000Y-31750000D03*
D33*
X104795001Y-28480000D03*
D34*
X104140000Y-29210000D02*
X105450002Y-27750000D01*
D33*
X110490000Y-26670000D03*
X110470000Y-26960000D03*
D34*
X110450000Y-27250000D02*
X110490000Y-26670000D01*
G04 #@! TD*
D38*
G04 #@! TO.C,K_#5*
X132080000Y-31750000D03*
X121920000Y-31750000D03*
D37*
X128270000Y-36830000D03*
D36*
X125730000Y-36830000D03*
D33*
X124500000Y-27750000D03*
D35*
X127000000Y-31750000D03*
D33*
X123845001Y-28480000D03*
D34*
X123190000Y-29210000D02*
X124500002Y-27750000D01*
D33*
X129540000Y-26670000D03*
X129520000Y-26960000D03*
D34*
X129500000Y-27250000D02*
X129540000Y-26670000D01*
G04 #@! TD*
D38*
G04 #@! TO.C,K_#6*
X151130000Y-31750000D03*
X140970000Y-31750000D03*
D37*
X147320000Y-36830000D03*
D36*
X144780000Y-36830000D03*
D33*
X143550000Y-27750000D03*
D35*
X146050000Y-31750000D03*
D33*
X142895001Y-28480000D03*
D34*
X142240000Y-29210000D02*
X143550002Y-27750000D01*
D33*
X148590000Y-26670000D03*
X148570000Y-26960000D03*
D34*
X148550000Y-27250000D02*
X148590000Y-26670000D01*
G04 #@! TD*
D38*
G04 #@! TO.C,K_#7*
X170180000Y-31750000D03*
X160020000Y-31750000D03*
D37*
X166370000Y-36830000D03*
D36*
X163830000Y-36830000D03*
D33*
X162600000Y-27750000D03*
D35*
X165100000Y-31750000D03*
D33*
X161945001Y-28480000D03*
D34*
X161290000Y-29210000D02*
X162600002Y-27750000D01*
D33*
X167640000Y-26670000D03*
X167620000Y-26960000D03*
D34*
X167600000Y-27250000D02*
X167640000Y-26670000D01*
G04 #@! TD*
D33*
G04 #@! TO.C,K_#8*
X186670000Y-26960000D03*
D34*
X186650000Y-27250000D02*
X186690000Y-26670000D01*
D33*
X186690000Y-26670000D03*
X180995001Y-28480000D03*
D34*
X180340000Y-29210000D02*
X181650002Y-27750000D01*
D35*
X184150000Y-31750000D03*
D33*
X181650000Y-27750000D03*
D36*
X182880000Y-36830000D03*
D37*
X185420000Y-36830000D03*
D38*
X179070000Y-31750000D03*
X189230000Y-31750000D03*
G04 #@! TD*
G04 #@! TO.C,K_#9*
X208280000Y-31750000D03*
X198120000Y-31750000D03*
D37*
X204470000Y-36830000D03*
D36*
X201930000Y-36830000D03*
D33*
X200700000Y-27750000D03*
D35*
X203200000Y-31750000D03*
D33*
X200045001Y-28480000D03*
D34*
X199390000Y-29210000D02*
X200700002Y-27750000D01*
D33*
X205740000Y-26670000D03*
X205720000Y-26960000D03*
D34*
X205700000Y-27250000D02*
X205740000Y-26670000D01*
G04 #@! TD*
D33*
G04 #@! TO.C,K_#10*
X224770000Y-26960000D03*
D34*
X224750000Y-27250000D02*
X224790000Y-26670000D01*
D33*
X224790000Y-26670000D03*
X219095001Y-28480000D03*
D34*
X218440000Y-29210000D02*
X219750002Y-27750000D01*
D35*
X222250000Y-31750000D03*
D33*
X219750000Y-27750000D03*
D36*
X220980000Y-36830000D03*
D37*
X223520000Y-36830000D03*
D38*
X217170000Y-31750000D03*
X227330000Y-31750000D03*
G04 #@! TD*
D33*
G04 #@! TO.C,K_'1*
X258107500Y-65060000D03*
D34*
X258087500Y-65350000D02*
X258127500Y-64770000D01*
D33*
X258127500Y-64770000D03*
X252432501Y-66580000D03*
D34*
X251777500Y-67310000D02*
X253087502Y-65850000D01*
D35*
X255587500Y-69850000D03*
D33*
X253087500Y-65850000D03*
D36*
X254317500Y-74930000D03*
D37*
X256857500Y-74930000D03*
D38*
X250507500Y-69850000D03*
X260667500Y-69850000D03*
G04 #@! TD*
D33*
G04 #@! TO.C,K_-1*
X243820000Y-26960000D03*
D34*
X243800000Y-27250000D02*
X243840000Y-26670000D01*
D33*
X243840000Y-26670000D03*
X238145001Y-28480000D03*
D34*
X237490000Y-29210000D02*
X238800002Y-27750000D01*
D35*
X241300000Y-31750000D03*
D33*
X238800000Y-27750000D03*
D36*
X240030000Y-36830000D03*
D37*
X242570000Y-36830000D03*
D38*
X236220000Y-31750000D03*
X246380000Y-31750000D03*
G04 #@! TD*
D33*
G04 #@! TO.C,K_/1*
X248582500Y-84110000D03*
D34*
X248562500Y-84400000D02*
X248602500Y-83820000D01*
D33*
X248602500Y-83820000D03*
X242907501Y-85630000D03*
D34*
X242252500Y-86360000D02*
X243562502Y-84900000D01*
D35*
X246062500Y-88900000D03*
D33*
X243562500Y-84900000D03*
D36*
X244792500Y-93980000D03*
D37*
X247332500Y-93980000D03*
D38*
X240982500Y-88900000D03*
X251142500Y-88900000D03*
G04 #@! TD*
D33*
G04 #@! TO.C,K_;1*
X239057500Y-65060000D03*
D34*
X239037500Y-65350000D02*
X239077500Y-64770000D01*
D33*
X239077500Y-64770000D03*
X233382501Y-66580000D03*
D34*
X232727500Y-67310000D02*
X234037502Y-65850000D01*
D35*
X236537500Y-69850000D03*
D33*
X234037500Y-65850000D03*
D36*
X235267500Y-74930000D03*
D37*
X237807500Y-74930000D03*
D38*
X231457500Y-69850000D03*
X241617500Y-69850000D03*
G04 #@! TD*
D33*
G04 #@! TO.C,K_=1*
X262870000Y-26960000D03*
D34*
X262850000Y-27250000D02*
X262890000Y-26670000D01*
D33*
X262890000Y-26670000D03*
X257195001Y-28480000D03*
D34*
X256540000Y-29210000D02*
X257850002Y-27750000D01*
D35*
X260350000Y-31750000D03*
D33*
X257850000Y-27750000D03*
D36*
X259080000Y-36830000D03*
D37*
X261620000Y-36830000D03*
D38*
X255270000Y-31750000D03*
X265430000Y-31750000D03*
G04 #@! TD*
D33*
G04 #@! TO.C,K_[1*
X253345000Y-46010000D03*
D34*
X253325000Y-46300000D02*
X253365000Y-45720000D01*
D33*
X253365000Y-45720000D03*
X247670001Y-47530000D03*
D34*
X247015000Y-48260000D02*
X248325002Y-46800000D01*
D35*
X250825000Y-50800000D03*
D33*
X248325000Y-46800000D03*
D36*
X249555000Y-55880000D03*
D37*
X252095000Y-55880000D03*
D38*
X245745000Y-50800000D03*
X255905000Y-50800000D03*
G04 #@! TD*
G04 #@! TO.C,K_\005C1*
X298767500Y-50800000D03*
X288607500Y-50800000D03*
D37*
X294957500Y-55880000D03*
D36*
X292417500Y-55880000D03*
D33*
X291187500Y-46800000D03*
D35*
X293687500Y-50800000D03*
D33*
X290532501Y-47530000D03*
D34*
X289877500Y-48260000D02*
X291187502Y-46800000D01*
D33*
X296227500Y-45720000D03*
X296207500Y-46010000D03*
D34*
X296187500Y-46300000D02*
X296227500Y-45720000D01*
G04 #@! TD*
D38*
G04 #@! TO.C,K_\005C2*
X279717500Y-69850000D03*
X269557500Y-69850000D03*
D37*
X275907500Y-74930000D03*
D36*
X273367500Y-74930000D03*
D33*
X272137500Y-65850000D03*
D35*
X274637500Y-69850000D03*
D33*
X271482501Y-66580000D03*
D34*
X270827500Y-67310000D02*
X272137502Y-65850000D01*
D33*
X277177500Y-64770000D03*
X277157500Y-65060000D03*
D34*
X277137500Y-65350000D02*
X277177500Y-64770000D01*
G04 #@! TD*
D33*
G04 #@! TO.C,K_]1*
X272395000Y-46010000D03*
D34*
X272375000Y-46300000D02*
X272415000Y-45720000D01*
D33*
X272415000Y-45720000D03*
X266720001Y-47530000D03*
D34*
X266065000Y-48260000D02*
X267375002Y-46800000D01*
D35*
X269875000Y-50800000D03*
D33*
X267375000Y-46800000D03*
D36*
X268605000Y-55880000D03*
D37*
X271145000Y-55880000D03*
D38*
X264795000Y-50800000D03*
X274955000Y-50800000D03*
G04 #@! TD*
D33*
G04 #@! TO.C,K_A1*
X67607500Y-65060000D03*
D34*
X67587500Y-65350000D02*
X67627500Y-64770000D01*
D33*
X67627500Y-64770000D03*
X61932501Y-66580000D03*
D34*
X61277500Y-67310000D02*
X62587502Y-65850000D01*
D35*
X65087500Y-69850000D03*
D33*
X62587500Y-65850000D03*
D36*
X63817500Y-74930000D03*
D37*
X66357500Y-74930000D03*
D38*
X60007500Y-69850000D03*
X70167500Y-69850000D03*
G04 #@! TD*
G04 #@! TO.C,K_ALT1*
X86836250Y-107950000D03*
X76676250Y-107950000D03*
D37*
X83026250Y-113030000D03*
D36*
X80486250Y-113030000D03*
D33*
X79256250Y-103950000D03*
D35*
X81756250Y-107950000D03*
D33*
X78601251Y-104680000D03*
D34*
X77946250Y-105410000D02*
X79256252Y-103950000D01*
D33*
X84296250Y-102870000D03*
X84276250Y-103160000D03*
D34*
X84256250Y-103450000D02*
X84296250Y-102870000D01*
G04 #@! TD*
D33*
G04 #@! TO.C,K_ALT2*
X86657500Y-103160000D03*
D34*
X86637500Y-103450000D02*
X86677500Y-102870000D01*
D33*
X86677500Y-102870000D03*
X80982501Y-104680000D03*
D34*
X80327500Y-105410000D02*
X81637502Y-103950000D01*
D35*
X84137500Y-107950000D03*
D33*
X81637500Y-103950000D03*
D36*
X85407500Y-113030000D03*
D37*
X82867500Y-113030000D03*
D38*
X79057500Y-107950000D03*
X89217500Y-107950000D03*
G04 #@! TD*
D33*
G04 #@! TO.C,K_B1*
X153332500Y-84110000D03*
D34*
X153312500Y-84400000D02*
X153352500Y-83820000D01*
D33*
X153352500Y-83820000D03*
X147657501Y-85630000D03*
D34*
X147002500Y-86360000D02*
X148312502Y-84900000D01*
D35*
X150812500Y-88900000D03*
D33*
X148312500Y-84900000D03*
D36*
X149542500Y-93980000D03*
D37*
X152082500Y-93980000D03*
D38*
X145732500Y-88900000D03*
X155892500Y-88900000D03*
G04 #@! TD*
D33*
G04 #@! TO.C,K_BACK1*
X291445000Y-26960000D03*
D34*
X291425000Y-27250000D02*
X291465000Y-26670000D01*
D33*
X291465000Y-26670000D03*
X285770001Y-28480000D03*
D34*
X285115000Y-29210000D02*
X286425002Y-27750000D01*
D35*
X288925000Y-31750000D03*
D33*
X286425000Y-27750000D03*
D36*
X287655000Y-36830000D03*
D37*
X290195000Y-36830000D03*
D38*
X283845000Y-31750000D03*
X294005000Y-31750000D03*
D39*
X276987000Y-24765000D03*
X300863000Y-24765000D03*
D35*
X276987000Y-40005000D03*
X300863000Y-40005000D03*
G04 #@! TD*
D33*
G04 #@! TO.C,K_C1*
X115232500Y-84110000D03*
D34*
X115212500Y-84400000D02*
X115252500Y-83820000D01*
D33*
X115252500Y-83820000D03*
X109557501Y-85630000D03*
D34*
X108902500Y-86360000D02*
X110212502Y-84900000D01*
D35*
X112712500Y-88900000D03*
D33*
X110212500Y-84900000D03*
D36*
X111442500Y-93980000D03*
D37*
X113982500Y-93980000D03*
D38*
X107632500Y-88900000D03*
X117792500Y-88900000D03*
G04 #@! TD*
G04 #@! TO.C,K_CAPS1*
X43973750Y-69850000D03*
X33813750Y-69850000D03*
D37*
X40163750Y-74930000D03*
D36*
X37623750Y-74930000D03*
D33*
X36393750Y-65850000D03*
D35*
X38893750Y-69850000D03*
D33*
X35738751Y-66580000D03*
D34*
X35083750Y-67310000D02*
X36393752Y-65850000D01*
D33*
X41433750Y-64770000D03*
X41413750Y-65060000D03*
D34*
X41393750Y-65350000D02*
X41433750Y-64770000D01*
G04 #@! TD*
D33*
G04 #@! TO.C,K_CAPS2*
X36651250Y-65060000D03*
D34*
X36631250Y-65350000D02*
X36671250Y-64770000D01*
D33*
X36671250Y-64770000D03*
X30976251Y-66580000D03*
D34*
X30321250Y-67310000D02*
X31631252Y-65850000D01*
D35*
X34131250Y-69850000D03*
D33*
X31631250Y-65850000D03*
D36*
X35401250Y-74930000D03*
D37*
X32861250Y-74930000D03*
D38*
X29051250Y-69850000D03*
X39211250Y-69850000D03*
G04 #@! TD*
G04 #@! TO.C,K_CTRL1*
X39211250Y-107950000D03*
X29051250Y-107950000D03*
D37*
X35401250Y-113030000D03*
D36*
X32861250Y-113030000D03*
D33*
X31631250Y-103950000D03*
D35*
X34131250Y-107950000D03*
D33*
X30976251Y-104680000D03*
D34*
X30321250Y-105410000D02*
X31631252Y-103950000D01*
D33*
X36671250Y-102870000D03*
X36651250Y-103160000D03*
D34*
X36631250Y-103450000D02*
X36671250Y-102870000D01*
G04 #@! TD*
D38*
G04 #@! TO.C,K_CTRL2*
X41592500Y-107950000D03*
X31432500Y-107950000D03*
D37*
X35242500Y-113030000D03*
D36*
X37782500Y-113030000D03*
D33*
X34012500Y-103950000D03*
D35*
X36512500Y-107950000D03*
D33*
X33357501Y-104680000D03*
D34*
X32702500Y-105410000D02*
X34012502Y-103950000D01*
D33*
X39052500Y-102870000D03*
X39032500Y-103160000D03*
D34*
X39012500Y-103450000D02*
X39052500Y-102870000D01*
G04 #@! TD*
D38*
G04 #@! TO.C,K_D1*
X108267500Y-69850000D03*
X98107500Y-69850000D03*
D37*
X104457500Y-74930000D03*
D36*
X101917500Y-74930000D03*
D33*
X100687500Y-65850000D03*
D35*
X103187500Y-69850000D03*
D33*
X100032501Y-66580000D03*
D34*
X99377500Y-67310000D02*
X100687502Y-65850000D01*
D33*
X105727500Y-64770000D03*
X105707500Y-65060000D03*
D34*
X105687500Y-65350000D02*
X105727500Y-64770000D01*
G04 #@! TD*
D33*
G04 #@! TO.C,K_E1*
X100945000Y-46010000D03*
D34*
X100925000Y-46300000D02*
X100965000Y-45720000D01*
D33*
X100965000Y-45720000D03*
X95270001Y-47530000D03*
D34*
X94615000Y-48260000D02*
X95925002Y-46800000D01*
D35*
X98425000Y-50800000D03*
D33*
X95925000Y-46800000D03*
D36*
X97155000Y-55880000D03*
D37*
X99695000Y-55880000D03*
D38*
X93345000Y-50800000D03*
X103505000Y-50800000D03*
G04 #@! TD*
D33*
G04 #@! TO.C,K_ENTER1*
X289063750Y-65060000D03*
D34*
X289043750Y-65350000D02*
X289083750Y-64770000D01*
D33*
X289083750Y-64770000D03*
X283388751Y-66580000D03*
D34*
X282733750Y-67310000D02*
X284043752Y-65850000D01*
D35*
X286543750Y-69850000D03*
D33*
X284043750Y-65850000D03*
D36*
X285273750Y-74930000D03*
D37*
X287813750Y-74930000D03*
D38*
X281463750Y-69850000D03*
X291623750Y-69850000D03*
D39*
X274605750Y-62865000D03*
X298481750Y-62865000D03*
D35*
X274605750Y-78105000D03*
X298481750Y-78105000D03*
G04 #@! TD*
D33*
G04 #@! TO.C,K_ENTER2*
X300858750Y-62844999D03*
D34*
X300568750Y-62825000D02*
X301148750Y-62864998D01*
D33*
X301148750Y-62865000D03*
X299338754Y-57169995D03*
D34*
X298608750Y-56515000D02*
X300068758Y-57824990D01*
D35*
X296068750Y-60325000D03*
D33*
X300068750Y-57825000D03*
D37*
X290988750Y-61595000D03*
D36*
X290988750Y-59055000D03*
D40*
X296068750Y-55245000D03*
X296068750Y-65405000D03*
D33*
X298568750Y-64325000D03*
X293568750Y-64825000D03*
D39*
X303053750Y-72263000D03*
X303053750Y-48387000D03*
D35*
X287813750Y-72263000D03*
X287813750Y-48387000D03*
G04 #@! TD*
D38*
G04 #@! TO.C,K_ESC1*
X26670000Y-31750000D03*
X36830000Y-31750000D03*
D37*
X30480000Y-26670000D03*
D36*
X33020000Y-26670000D03*
D33*
X34250000Y-35750000D03*
D35*
X31750000Y-31750000D03*
D33*
X34904999Y-35020000D03*
D34*
X35560000Y-34290000D02*
X34249998Y-35750000D01*
D33*
X29210000Y-36830000D03*
X29230000Y-36540000D03*
D34*
X29250000Y-36250000D02*
X29210000Y-36830000D01*
G04 #@! TD*
D33*
G04 #@! TO.C,K_F1*
X124757500Y-65060000D03*
D34*
X124737500Y-65350000D02*
X124777500Y-64770000D01*
D33*
X124777500Y-64770000D03*
X119082501Y-66580000D03*
D34*
X118427500Y-67310000D02*
X119737502Y-65850000D01*
D35*
X122237500Y-69850000D03*
D33*
X119737500Y-65850000D03*
D36*
X120967500Y-74930000D03*
D37*
X123507500Y-74930000D03*
D38*
X117157500Y-69850000D03*
X127317500Y-69850000D03*
G04 #@! TD*
G04 #@! TO.C,K_G1*
X146367500Y-69850000D03*
X136207500Y-69850000D03*
D37*
X142557500Y-74930000D03*
D36*
X140017500Y-74930000D03*
D33*
X138787500Y-65850000D03*
D35*
X141287500Y-69850000D03*
D33*
X138132501Y-66580000D03*
D34*
X137477500Y-67310000D02*
X138787502Y-65850000D01*
D33*
X143827500Y-64770000D03*
X143807500Y-65060000D03*
D34*
X143787500Y-65350000D02*
X143827500Y-64770000D01*
G04 #@! TD*
D33*
G04 #@! TO.C,K_H1*
X162857500Y-65060000D03*
D34*
X162837500Y-65350000D02*
X162877500Y-64770000D01*
D33*
X162877500Y-64770000D03*
X157182501Y-66580000D03*
D34*
X156527500Y-67310000D02*
X157837502Y-65850000D01*
D35*
X160337500Y-69850000D03*
D33*
X157837500Y-65850000D03*
D36*
X159067500Y-74930000D03*
D37*
X161607500Y-74930000D03*
D38*
X155257500Y-69850000D03*
X165417500Y-69850000D03*
G04 #@! TD*
D33*
G04 #@! TO.C,K_I1*
X196195000Y-46010000D03*
D34*
X196175000Y-46300000D02*
X196215000Y-45720000D01*
D33*
X196215000Y-45720000D03*
X190520001Y-47530000D03*
D34*
X189865000Y-48260000D02*
X191175002Y-46800000D01*
D35*
X193675000Y-50800000D03*
D33*
X191175000Y-46800000D03*
D36*
X192405000Y-55880000D03*
D37*
X194945000Y-55880000D03*
D38*
X188595000Y-50800000D03*
X198755000Y-50800000D03*
G04 #@! TD*
D33*
G04 #@! TO.C,K_J1*
X181907500Y-65060000D03*
D34*
X181887500Y-65350000D02*
X181927500Y-64770000D01*
D33*
X181927500Y-64770000D03*
X176232501Y-66580000D03*
D34*
X175577500Y-67310000D02*
X176887502Y-65850000D01*
D35*
X179387500Y-69850000D03*
D33*
X176887500Y-65850000D03*
D36*
X178117500Y-74930000D03*
D37*
X180657500Y-74930000D03*
D38*
X174307500Y-69850000D03*
X184467500Y-69850000D03*
G04 #@! TD*
D33*
G04 #@! TO.C,K_K1*
X200957500Y-65060000D03*
D34*
X200937500Y-65350000D02*
X200977500Y-64770000D01*
D33*
X200977500Y-64770000D03*
X195282501Y-66580000D03*
D34*
X194627500Y-67310000D02*
X195937502Y-65850000D01*
D35*
X198437500Y-69850000D03*
D33*
X195937500Y-65850000D03*
D36*
X197167500Y-74930000D03*
D37*
X199707500Y-74930000D03*
D38*
X193357500Y-69850000D03*
X203517500Y-69850000D03*
G04 #@! TD*
G04 #@! TO.C,K_L1*
X222567500Y-69850000D03*
X212407500Y-69850000D03*
D37*
X218757500Y-74930000D03*
D36*
X216217500Y-74930000D03*
D33*
X214987500Y-65850000D03*
D35*
X217487500Y-69850000D03*
D33*
X214332501Y-66580000D03*
D34*
X213677500Y-67310000D02*
X214987502Y-65850000D01*
D33*
X220027500Y-64770000D03*
X220007500Y-65060000D03*
D34*
X219987500Y-65350000D02*
X220027500Y-64770000D01*
G04 #@! TD*
D38*
G04 #@! TO.C,K_M1*
X193992500Y-88900000D03*
X183832500Y-88900000D03*
D37*
X190182500Y-93980000D03*
D36*
X187642500Y-93980000D03*
D33*
X186412500Y-84900000D03*
D35*
X188912500Y-88900000D03*
D33*
X185757501Y-85630000D03*
D34*
X185102500Y-86360000D02*
X186412502Y-84900000D01*
D33*
X191452500Y-83820000D03*
X191432500Y-84110000D03*
D34*
X191412500Y-84400000D02*
X191452500Y-83820000D01*
G04 #@! TD*
D38*
G04 #@! TO.C,K_N1*
X174942500Y-88900000D03*
X164782500Y-88900000D03*
D37*
X171132500Y-93980000D03*
D36*
X168592500Y-93980000D03*
D33*
X167362500Y-84900000D03*
D35*
X169862500Y-88900000D03*
D33*
X166707501Y-85630000D03*
D34*
X166052500Y-86360000D02*
X167362502Y-84900000D01*
D33*
X172402500Y-83820000D03*
X172382500Y-84110000D03*
D34*
X172362500Y-84400000D02*
X172402500Y-83820000D01*
G04 #@! TD*
D33*
G04 #@! TO.C,K_O1*
X215245000Y-46010000D03*
D34*
X215225000Y-46300000D02*
X215265000Y-45720000D01*
D33*
X215265000Y-45720000D03*
X209570001Y-47530000D03*
D34*
X208915000Y-48260000D02*
X210225002Y-46800000D01*
D35*
X212725000Y-50800000D03*
D33*
X210225000Y-46800000D03*
D36*
X211455000Y-55880000D03*
D37*
X213995000Y-55880000D03*
D38*
X207645000Y-50800000D03*
X217805000Y-50800000D03*
G04 #@! TD*
G04 #@! TO.C,K_P1*
X236855000Y-50800000D03*
X226695000Y-50800000D03*
D37*
X233045000Y-55880000D03*
D36*
X230505000Y-55880000D03*
D33*
X229275000Y-46800000D03*
D35*
X231775000Y-50800000D03*
D33*
X228620001Y-47530000D03*
D34*
X227965000Y-48260000D02*
X229275002Y-46800000D01*
D33*
X234315000Y-45720000D03*
X234295000Y-46010000D03*
D34*
X234275000Y-46300000D02*
X234315000Y-45720000D01*
G04 #@! TD*
D38*
G04 #@! TO.C,K_Q1*
X65405000Y-50800000D03*
X55245000Y-50800000D03*
D37*
X61595000Y-55880000D03*
D36*
X59055000Y-55880000D03*
D33*
X57825000Y-46800000D03*
D35*
X60325000Y-50800000D03*
D33*
X57170001Y-47530000D03*
D34*
X56515000Y-48260000D02*
X57825002Y-46800000D01*
D33*
X62865000Y-45720000D03*
X62845000Y-46010000D03*
D34*
X62825000Y-46300000D02*
X62865000Y-45720000D01*
G04 #@! TD*
D38*
G04 #@! TO.C,K_R1*
X122555000Y-50800000D03*
X112395000Y-50800000D03*
D37*
X118745000Y-55880000D03*
D36*
X116205000Y-55880000D03*
D33*
X114975000Y-46800000D03*
D35*
X117475000Y-50800000D03*
D33*
X114320001Y-47530000D03*
D34*
X113665000Y-48260000D02*
X114975002Y-46800000D01*
D33*
X120015000Y-45720000D03*
X119995000Y-46010000D03*
D34*
X119975000Y-46300000D02*
X120015000Y-45720000D01*
G04 #@! TD*
D38*
G04 #@! TO.C,K_RALT2*
X229711250Y-107950000D03*
X219551250Y-107950000D03*
D37*
X223361250Y-113030000D03*
D36*
X225901250Y-113030000D03*
D33*
X222131250Y-103950000D03*
D35*
X224631250Y-107950000D03*
D33*
X221476251Y-104680000D03*
D34*
X220821250Y-105410000D02*
X222131252Y-103950000D01*
D33*
X227171250Y-102870000D03*
X227151250Y-103160000D03*
D34*
X227131250Y-103450000D02*
X227171250Y-102870000D01*
G04 #@! TD*
D38*
G04 #@! TO.C,K_RALT3*
X251142500Y-107950000D03*
X240982500Y-107950000D03*
D37*
X244792500Y-113030000D03*
D36*
X247332500Y-113030000D03*
D33*
X243562500Y-103950000D03*
D35*
X246062500Y-107950000D03*
D33*
X242907501Y-104680000D03*
D34*
X242252500Y-105410000D02*
X243562502Y-103950000D01*
D33*
X248602500Y-102870000D03*
X248582500Y-103160000D03*
D34*
X248562500Y-103450000D02*
X248602500Y-102870000D01*
G04 #@! TD*
D38*
G04 #@! TO.C,K_RCTRL2*
X301148750Y-107950000D03*
X290988750Y-107950000D03*
D37*
X297338750Y-113030000D03*
D36*
X294798750Y-113030000D03*
D33*
X293568750Y-103950000D03*
D35*
X296068750Y-107950000D03*
D33*
X292913751Y-104680000D03*
D34*
X292258750Y-105410000D02*
X293568752Y-103950000D01*
D33*
X298608750Y-102870000D03*
X298588750Y-103160000D03*
D34*
X298568750Y-103450000D02*
X298608750Y-102870000D01*
G04 #@! TD*
D33*
G04 #@! TO.C,K_RCTRL3*
X296207500Y-103160000D03*
D34*
X296187500Y-103450000D02*
X296227500Y-102870000D01*
D33*
X296227500Y-102870000D03*
X290532501Y-104680000D03*
D34*
X289877500Y-105410000D02*
X291187502Y-103950000D01*
D35*
X293687500Y-107950000D03*
D33*
X291187500Y-103950000D03*
D36*
X294957500Y-113030000D03*
D37*
X292417500Y-113030000D03*
D38*
X288607500Y-107950000D03*
X298767500Y-107950000D03*
G04 #@! TD*
G04 #@! TO.C,K_RMENU2*
X277336250Y-107950000D03*
X267176250Y-107950000D03*
D37*
X270986250Y-113030000D03*
D36*
X273526250Y-113030000D03*
D33*
X269756250Y-103950000D03*
D35*
X272256250Y-107950000D03*
D33*
X269101251Y-104680000D03*
D34*
X268446250Y-105410000D02*
X269756252Y-103950000D01*
D33*
X274796250Y-102870000D03*
X274776250Y-103160000D03*
D34*
X274756250Y-103450000D02*
X274796250Y-102870000D01*
G04 #@! TD*
D33*
G04 #@! TO.C,K_RSHIFT1*
X284301250Y-84110000D03*
D34*
X284281250Y-84400000D02*
X284321250Y-83820000D01*
D33*
X284321250Y-83820000D03*
X278626251Y-85630000D03*
D34*
X277971250Y-86360000D02*
X279281252Y-84900000D01*
D35*
X281781250Y-88900000D03*
D33*
X279281250Y-84900000D03*
D36*
X283051250Y-93980000D03*
D37*
X280511250Y-93980000D03*
D38*
X276701250Y-88900000D03*
X286861250Y-88900000D03*
D39*
X269843250Y-81915000D03*
X293719250Y-81915000D03*
D35*
X269843250Y-97155000D03*
X293719250Y-97155000D03*
G04 #@! TD*
D33*
G04 #@! TO.C,K_RWIN2*
X250963750Y-103160000D03*
D34*
X250943750Y-103450000D02*
X250983750Y-102870000D01*
D33*
X250983750Y-102870000D03*
X245288751Y-104680000D03*
D34*
X244633750Y-105410000D02*
X245943752Y-103950000D01*
D35*
X248443750Y-107950000D03*
D33*
X245943750Y-103950000D03*
D36*
X247173750Y-113030000D03*
D37*
X249713750Y-113030000D03*
D38*
X243363750Y-107950000D03*
X253523750Y-107950000D03*
G04 #@! TD*
G04 #@! TO.C,K_RWIN3*
X274955000Y-107950000D03*
X264795000Y-107950000D03*
D37*
X271145000Y-113030000D03*
D36*
X268605000Y-113030000D03*
D33*
X267375000Y-103950000D03*
D35*
X269875000Y-107950000D03*
D33*
X266720001Y-104680000D03*
D34*
X266065000Y-105410000D02*
X267375002Y-103950000D01*
D33*
X272415000Y-102870000D03*
X272395000Y-103160000D03*
D34*
X272375000Y-103450000D02*
X272415000Y-102870000D01*
G04 #@! TD*
D38*
G04 #@! TO.C,K_S1*
X89217500Y-69850000D03*
X79057500Y-69850000D03*
D37*
X85407500Y-74930000D03*
D36*
X82867500Y-74930000D03*
D33*
X81637500Y-65850000D03*
D35*
X84137500Y-69850000D03*
D33*
X80982501Y-66580000D03*
D34*
X80327500Y-67310000D02*
X81637502Y-65850000D01*
D33*
X86677500Y-64770000D03*
X86657500Y-65060000D03*
D34*
X86637500Y-65350000D02*
X86677500Y-64770000D01*
G04 #@! TD*
D38*
G04 #@! TO.C,K_SBACK1*
X284480000Y-31750000D03*
X274320000Y-31750000D03*
D37*
X280670000Y-36830000D03*
D36*
X278130000Y-36830000D03*
D33*
X276900000Y-27750000D03*
D35*
X279400000Y-31750000D03*
D33*
X276245001Y-28480000D03*
D34*
X275590000Y-29210000D02*
X276900002Y-27750000D01*
D33*
X281940000Y-26670000D03*
X281920000Y-26960000D03*
D34*
X281900000Y-27250000D02*
X281940000Y-26670000D01*
G04 #@! TD*
D38*
G04 #@! TO.C,K_SBACK2*
X303530000Y-31750000D03*
X293370000Y-31750000D03*
D37*
X299720000Y-36830000D03*
D36*
X297180000Y-36830000D03*
D33*
X295950000Y-27750000D03*
D35*
X298450000Y-31750000D03*
D33*
X295295001Y-28480000D03*
D34*
X294640000Y-29210000D02*
X295950002Y-27750000D01*
D33*
X300990000Y-26670000D03*
X300970000Y-26960000D03*
D34*
X300950000Y-27250000D02*
X300990000Y-26670000D01*
G04 #@! TD*
D35*
G04 #@! TO.C,K_SHIFT1*
X55594250Y-97155000D03*
X31718250Y-97155000D03*
D39*
X55594250Y-81915000D03*
X31718250Y-81915000D03*
D38*
X48736250Y-88900000D03*
X38576250Y-88900000D03*
D37*
X44926250Y-93980000D03*
D36*
X42386250Y-93980000D03*
D33*
X41156250Y-84900000D03*
D35*
X43656250Y-88900000D03*
D33*
X40501251Y-85630000D03*
D34*
X39846250Y-86360000D02*
X41156252Y-84900000D01*
D33*
X46196250Y-83820000D03*
X46176250Y-84110000D03*
D34*
X46156250Y-84400000D02*
X46196250Y-83820000D01*
G04 #@! TD*
D33*
G04 #@! TO.C,K_SHIFT2*
X36651250Y-84110000D03*
D34*
X36631250Y-84400000D02*
X36671250Y-83820000D01*
D33*
X36671250Y-83820000D03*
X30976251Y-85630000D03*
D34*
X30321250Y-86360000D02*
X31631252Y-84900000D01*
D35*
X34131250Y-88900000D03*
D33*
X31631250Y-84900000D03*
D36*
X32861250Y-93980000D03*
D37*
X35401250Y-93980000D03*
D38*
X29051250Y-88900000D03*
X39211250Y-88900000D03*
G04 #@! TD*
D33*
G04 #@! TO.C,K_SHIFT3*
X58082500Y-84110000D03*
D34*
X58062500Y-84400000D02*
X58102500Y-83820000D01*
D33*
X58102500Y-83820000D03*
X52407501Y-85630000D03*
D34*
X51752500Y-86360000D02*
X53062502Y-84900000D01*
D35*
X55562500Y-88900000D03*
D33*
X53062500Y-84900000D03*
D36*
X54292500Y-93980000D03*
D37*
X56832500Y-93980000D03*
D38*
X50482500Y-88900000D03*
X60642500Y-88900000D03*
G04 #@! TD*
D33*
G04 #@! TO.C,K_SPACE1*
X167620000Y-103160000D03*
D34*
X167600000Y-103450000D02*
X167640000Y-102870000D01*
D33*
X167640000Y-102870000D03*
X161945001Y-104680000D03*
D34*
X161290000Y-105410000D02*
X162600002Y-103950000D01*
D35*
X165100000Y-107950000D03*
D33*
X162600000Y-103950000D03*
D36*
X163830000Y-113030000D03*
D37*
X166370000Y-113030000D03*
D38*
X160020000Y-107950000D03*
X170180000Y-107950000D03*
D39*
X107950000Y-114935000D03*
X222250000Y-114935000D03*
D35*
X107950000Y-99695000D03*
X222250000Y-99695000D03*
G04 #@! TD*
D33*
G04 #@! TO.C,K_SPACE2*
X155713750Y-103160000D03*
D34*
X155693750Y-103450000D02*
X155733750Y-102870000D01*
D33*
X155733750Y-102870000D03*
X150038751Y-104680000D03*
D34*
X149383750Y-105410000D02*
X150693752Y-103950000D01*
D35*
X153193750Y-107950000D03*
D33*
X150693750Y-103950000D03*
D36*
X151923750Y-113030000D03*
D37*
X154463750Y-113030000D03*
D38*
X148113750Y-107950000D03*
X158273750Y-107950000D03*
D39*
X103193850Y-114935000D03*
X203193650Y-114935000D03*
D35*
X103193850Y-99695000D03*
X203193650Y-99695000D03*
G04 #@! TD*
D33*
G04 #@! TO.C,K_SPACE3*
X117613750Y-103160000D03*
D34*
X117593750Y-103450000D02*
X117633750Y-102870000D01*
D33*
X117633750Y-102870000D03*
X111938751Y-104680000D03*
D34*
X111283750Y-105410000D02*
X112593752Y-103950000D01*
D35*
X115093750Y-107950000D03*
D33*
X112593750Y-103950000D03*
D36*
X113823750Y-113030000D03*
D37*
X116363750Y-113030000D03*
D38*
X110013750Y-107950000D03*
X120173750Y-107950000D03*
D39*
X103155750Y-114935000D03*
X127031750Y-114935000D03*
D35*
X103155750Y-99695000D03*
X127031750Y-99695000D03*
G04 #@! TD*
D33*
G04 #@! TO.C,K_SPACE4*
X189051250Y-103160000D03*
D34*
X189031250Y-103450000D02*
X189071250Y-102870000D01*
D33*
X189071250Y-102870000D03*
X183376251Y-104680000D03*
D34*
X182721250Y-105410000D02*
X184031252Y-103950000D01*
D35*
X186531250Y-107950000D03*
D33*
X184031250Y-103950000D03*
D36*
X185261250Y-113030000D03*
D37*
X187801250Y-113030000D03*
D38*
X181451250Y-107950000D03*
X191611250Y-107950000D03*
D39*
X174593250Y-114935000D03*
X198469250Y-114935000D03*
D35*
X174593250Y-99695000D03*
X198469250Y-99695000D03*
G04 #@! TD*
D33*
G04 #@! TO.C,K_SPACE5*
X150951250Y-103160000D03*
D34*
X150931250Y-103450000D02*
X150971250Y-102870000D01*
D33*
X150971250Y-102870000D03*
X145276251Y-104680000D03*
D34*
X144621250Y-105410000D02*
X145931252Y-103950000D01*
D35*
X148431250Y-107950000D03*
D33*
X145931250Y-103950000D03*
D36*
X149701250Y-113030000D03*
D37*
X147161250Y-113030000D03*
D38*
X143351250Y-107950000D03*
X153511250Y-107950000D03*
G04 #@! TD*
D33*
G04 #@! TO.C,K_SRSHIFT1*
X274776250Y-84110000D03*
D34*
X274756250Y-84400000D02*
X274796250Y-83820000D01*
D33*
X274796250Y-83820000D03*
X269101251Y-85630000D03*
D34*
X268446250Y-86360000D02*
X269756252Y-84900000D01*
D35*
X272256250Y-88900000D03*
D33*
X269756250Y-84900000D03*
D36*
X270986250Y-93980000D03*
D37*
X273526250Y-93980000D03*
D38*
X267176250Y-88900000D03*
X277336250Y-88900000D03*
G04 #@! TD*
G04 #@! TO.C,K_SRSHIFT2*
X303530000Y-88900000D03*
X293370000Y-88900000D03*
D37*
X299720000Y-93980000D03*
D36*
X297180000Y-93980000D03*
D33*
X295950000Y-84900000D03*
D35*
X298450000Y-88900000D03*
D33*
X295295001Y-85630000D03*
D34*
X294640000Y-86360000D02*
X295950002Y-84900000D01*
D33*
X300990000Y-83820000D03*
X300970000Y-84110000D03*
D34*
X300950000Y-84400000D02*
X300990000Y-83820000D01*
G04 #@! TD*
D33*
G04 #@! TO.C,K_T1*
X139045000Y-46010000D03*
D34*
X139025000Y-46300000D02*
X139065000Y-45720000D01*
D33*
X139065000Y-45720000D03*
X133370001Y-47530000D03*
D34*
X132715000Y-48260000D02*
X134025002Y-46800000D01*
D35*
X136525000Y-50800000D03*
D33*
X134025000Y-46800000D03*
D36*
X135255000Y-55880000D03*
D37*
X137795000Y-55880000D03*
D38*
X131445000Y-50800000D03*
X141605000Y-50800000D03*
G04 #@! TD*
D33*
G04 #@! TO.C,K_TAB1*
X39032500Y-46010000D03*
D34*
X39012500Y-46300000D02*
X39052500Y-45720000D01*
D33*
X39052500Y-45720000D03*
X33357501Y-47530000D03*
D34*
X32702500Y-48260000D02*
X34012502Y-46800000D01*
D35*
X36512500Y-50800000D03*
D33*
X34012500Y-46800000D03*
D36*
X35242500Y-55880000D03*
D37*
X37782500Y-55880000D03*
D38*
X31432500Y-50800000D03*
X41592500Y-50800000D03*
G04 #@! TD*
D33*
G04 #@! TO.C,K_U1*
X177145000Y-46010000D03*
D34*
X177125000Y-46300000D02*
X177165000Y-45720000D01*
D33*
X177165000Y-45720000D03*
X171470001Y-47530000D03*
D34*
X170815000Y-48260000D02*
X172125002Y-46800000D01*
D35*
X174625000Y-50800000D03*
D33*
X172125000Y-46800000D03*
D36*
X173355000Y-55880000D03*
D37*
X175895000Y-55880000D03*
D38*
X169545000Y-50800000D03*
X179705000Y-50800000D03*
G04 #@! TD*
G04 #@! TO.C,K_V1*
X136842500Y-88900000D03*
X126682500Y-88900000D03*
D37*
X133032500Y-93980000D03*
D36*
X130492500Y-93980000D03*
D33*
X129262500Y-84900000D03*
D35*
X131762500Y-88900000D03*
D33*
X128607501Y-85630000D03*
D34*
X127952500Y-86360000D02*
X129262502Y-84900000D01*
D33*
X134302500Y-83820000D03*
X134282500Y-84110000D03*
D34*
X134262500Y-84400000D02*
X134302500Y-83820000D01*
G04 #@! TD*
D38*
G04 #@! TO.C,K_W1*
X84455000Y-50800000D03*
X74295000Y-50800000D03*
D37*
X80645000Y-55880000D03*
D36*
X78105000Y-55880000D03*
D33*
X76875000Y-46800000D03*
D35*
X79375000Y-50800000D03*
D33*
X76220001Y-47530000D03*
D34*
X75565000Y-48260000D02*
X76875002Y-46800000D01*
D33*
X81915000Y-45720000D03*
X81895000Y-46010000D03*
D34*
X81875000Y-46300000D02*
X81915000Y-45720000D01*
G04 #@! TD*
D33*
G04 #@! TO.C,K_WIN1*
X60463750Y-103160000D03*
D34*
X60443750Y-103450000D02*
X60483750Y-102870000D01*
D33*
X60483750Y-102870000D03*
X54788751Y-104680000D03*
D34*
X54133750Y-105410000D02*
X55443752Y-103950000D01*
D35*
X57943750Y-107950000D03*
D33*
X55443750Y-103950000D03*
D36*
X56673750Y-113030000D03*
D37*
X59213750Y-113030000D03*
D38*
X52863750Y-107950000D03*
X63023750Y-107950000D03*
G04 #@! TD*
D33*
G04 #@! TO.C,K_WIN2*
X62845000Y-103160000D03*
D34*
X62825000Y-103450000D02*
X62865000Y-102870000D01*
D33*
X62865000Y-102870000D03*
X57170001Y-104680000D03*
D34*
X56515000Y-105410000D02*
X57825002Y-103950000D01*
D35*
X60325000Y-107950000D03*
D33*
X57825000Y-103950000D03*
D36*
X61595000Y-113030000D03*
D37*
X59055000Y-113030000D03*
D38*
X55245000Y-107950000D03*
X65405000Y-107950000D03*
G04 #@! TD*
D33*
G04 #@! TO.C,K_X1*
X96182500Y-84110000D03*
D34*
X96162500Y-84400000D02*
X96202500Y-83820000D01*
D33*
X96202500Y-83820000D03*
X90507501Y-85630000D03*
D34*
X89852500Y-86360000D02*
X91162502Y-84900000D01*
D35*
X93662500Y-88900000D03*
D33*
X91162500Y-84900000D03*
D36*
X92392500Y-93980000D03*
D37*
X94932500Y-93980000D03*
D38*
X88582500Y-88900000D03*
X98742500Y-88900000D03*
G04 #@! TD*
G04 #@! TO.C,K_Y1*
X160655000Y-50800000D03*
X150495000Y-50800000D03*
D37*
X156845000Y-55880000D03*
D36*
X154305000Y-55880000D03*
D33*
X153075000Y-46800000D03*
D35*
X155575000Y-50800000D03*
D33*
X152420001Y-47530000D03*
D34*
X151765000Y-48260000D02*
X153075002Y-46800000D01*
D33*
X158115000Y-45720000D03*
X158095000Y-46010000D03*
D34*
X158075000Y-46300000D02*
X158115000Y-45720000D01*
G04 #@! TD*
D33*
G04 #@! TO.C,K_Z1*
X77132500Y-84110000D03*
D34*
X77112500Y-84400000D02*
X77152500Y-83820000D01*
D33*
X77152500Y-83820000D03*
X71457501Y-85630000D03*
D34*
X70802500Y-86360000D02*
X72112502Y-84900000D01*
D35*
X74612500Y-88900000D03*
D33*
X72112500Y-84900000D03*
D36*
X73342500Y-93980000D03*
D37*
X75882500Y-93980000D03*
D38*
X69532500Y-88900000D03*
X79692500Y-88900000D03*
G04 #@! TD*
D27*
G04 #@! TO.C,C1*
X54768750Y-40525000D03*
X54768750Y-42025000D03*
G04 #@! TD*
G04 #@! TO.C,C9*
X89693750Y-42025000D03*
X89693750Y-40525000D03*
G04 #@! TD*
G04 #@! TO.C,C10*
X129381250Y-40525000D03*
X129381250Y-42025000D03*
G04 #@! TD*
G04 #@! TO.C,C11*
X170656250Y-42025000D03*
X170656250Y-40525000D03*
G04 #@! TD*
G04 #@! TO.C,C12*
X211931250Y-40525000D03*
X211931250Y-42025000D03*
G04 #@! TD*
G04 #@! TO.C,C13*
X253206250Y-42025000D03*
X253206250Y-40525000D03*
G04 #@! TD*
G04 #@! TO.C,C14*
X294481250Y-40525000D03*
X294481250Y-42025000D03*
G04 #@! TD*
G04 #@! TO.C,C15*
X281781250Y-99175000D03*
X281781250Y-97675000D03*
G04 #@! TD*
G04 #@! TO.C,C16*
X253206250Y-97675000D03*
X253206250Y-99175000D03*
G04 #@! TD*
G04 #@! TO.C,C17*
X215106250Y-99175000D03*
X215106250Y-97675000D03*
G04 #@! TD*
G04 #@! TO.C,C18*
X162718750Y-97675000D03*
X162718750Y-99175000D03*
G04 #@! TD*
G04 #@! TO.C,C19*
X115093750Y-99175000D03*
X115093750Y-97675000D03*
G04 #@! TD*
G04 #@! TO.C,C20*
X88106250Y-97675000D03*
X88106250Y-99175000D03*
G04 #@! TD*
G04 #@! TO.C,C21*
X49212500Y-99175000D03*
X49212500Y-97675000D03*
G04 #@! TD*
D41*
G04 #@! TO.C,RGB1*
X51612500Y-39625000D03*
X51612500Y-42925000D03*
X46812500Y-42925000D03*
X46812500Y-39625000D03*
G04 #@! TD*
G04 #@! TO.C,RGB2*
X284937500Y-96775000D03*
X284937500Y-100075000D03*
X289737500Y-100075000D03*
X289737500Y-96775000D03*
G04 #@! TD*
G04 #@! TO.C,RGB3*
X86537500Y-39625000D03*
X86537500Y-42925000D03*
X81737500Y-42925000D03*
X81737500Y-39625000D03*
G04 #@! TD*
G04 #@! TO.C,RGB4*
X245250000Y-96775000D03*
X245250000Y-100075000D03*
X250050000Y-100075000D03*
X250050000Y-96775000D03*
G04 #@! TD*
G04 #@! TO.C,RGB5*
X126225000Y-39625000D03*
X126225000Y-42925000D03*
X121425000Y-42925000D03*
X121425000Y-39625000D03*
G04 #@! TD*
G04 #@! TO.C,RGB6*
X211950000Y-96775000D03*
X211950000Y-100075000D03*
X207150000Y-100075000D03*
X207150000Y-96775000D03*
G04 #@! TD*
G04 #@! TO.C,RGB7*
X167500000Y-39625000D03*
X167500000Y-42925000D03*
X162700000Y-42925000D03*
X162700000Y-39625000D03*
G04 #@! TD*
G04 #@! TO.C,RGB8*
X165875000Y-96775000D03*
X165875000Y-100075000D03*
X170675000Y-100075000D03*
X170675000Y-96775000D03*
G04 #@! TD*
G04 #@! TO.C,RGB9*
X208775000Y-39625000D03*
X208775000Y-42925000D03*
X203975000Y-42925000D03*
X203975000Y-39625000D03*
G04 #@! TD*
G04 #@! TO.C,RGB10*
X118250000Y-96775000D03*
X118250000Y-100075000D03*
X123050000Y-100075000D03*
X123050000Y-96775000D03*
G04 #@! TD*
G04 #@! TO.C,RGB11*
X250050000Y-39625000D03*
X250050000Y-42925000D03*
X245250000Y-42925000D03*
X245250000Y-39625000D03*
G04 #@! TD*
G04 #@! TO.C,RGB12*
X84950000Y-96775000D03*
X84950000Y-100075000D03*
X80150000Y-100075000D03*
X80150000Y-96775000D03*
G04 #@! TD*
G04 #@! TO.C,RGB13*
X286525000Y-39625000D03*
X286525000Y-42925000D03*
X291325000Y-42925000D03*
X291325000Y-39625000D03*
G04 #@! TD*
G04 #@! TO.C,RGB14*
X46056250Y-96775000D03*
X46056250Y-100075000D03*
X41256250Y-100075000D03*
X41256250Y-96775000D03*
G04 #@! TD*
M02*
