M48
;DRILL file {KiCad (5.0.0)} date 01/14/19 19:55:58
;FORMAT={-:-/ absolute / inch / decimal}
FMAT,2
INCH,TZ
T1C0.0157
T2C0.0197
T3C0.0236
T4C0.0409
T5C0.0579
T6C0.0984
T7C0.0984
%
G90
G05
M72
T1
X1.03Y-0.995
X1.06Y-2.255
X1.2Y-1.63
X1.275Y-1.51
X1.405Y-2.435
X1.405Y-2.47
X1.49Y-1.64
X1.49Y-1.695
X1.525Y-1.22
X1.535Y-2.09
X1.565Y-1.19
X1.59Y-3.64
X1.66Y-1.19
X1.66Y-2.065
X1.695Y-1.22
X1.7Y-1.755
X1.725Y-3.305
X1.73Y-2.69
X1.735Y-1.695
X1.735Y-2.1
X1.76Y-2.875
X1.79Y-2.42
X1.79Y-2.455
X1.79Y-2.81
X1.805Y-3.02
X1.83Y-2.55
X1.83Y-3.585
X1.835Y-4.02
X1.86Y-4.335
X1.875Y-1.17
X1.875Y-1.335
X1.88Y-2.81
X1.885Y-1.755
X1.89Y-2.465
X1.915Y-2.425
X1.96Y-2.89
X1.965Y-3.225
X1.99Y-3.905
X1.99Y-4.005
X2.Y-3.225
X2.185Y-2.94
X2.2Y-1.495
X2.205Y-1.595
X2.205Y-1.665
X2.205Y-2.755
X2.21Y-2.435
X2.23Y-2.825
X2.25Y-2.89
X2.275Y-1.64
X2.275Y-2.86
X2.335Y-1.75
X2.34Y-0.995
X2.35Y-2.97
X2.375Y-1.47
X2.425Y-2.895
X2.455Y-2.275
X2.63Y-1.57
X2.96Y-2.99
X3.23Y-4.005
X3.52Y-3.885
X3.59Y-3.905
X3.705Y-2.99
X4.48Y-3.905
X4.48Y-3.985
X6.345Y-3.97
X6.36Y-3.885
X8.515Y-3.89
X8.515Y-3.99
X9.185Y-2.99
X9.655Y-4.005
X9.935Y-1.32
X9.935Y-2.99
X10.015Y-3.89
X10.015Y-3.975
X10.03Y-1.545
X10.14Y-1.735
X10.23Y-4.39
X10.31Y-2.135
X10.42Y-2.89
X10.485Y-3.64
X10.49Y-2.52
X10.59Y-2.69
X10.605Y-1.185
X10.685Y-1.375
X10.94Y-1.88
X10.97Y-2.27
X11.05Y-3.905
X11.125Y-1.745
X11.22Y-4.
X11.29Y-3.795
T2
X0.959Y-3.0098
X0.959Y-3.2146
X1.0394Y-3.0098
X1.0394Y-3.2146
X1.1118Y-3.0398
X1.1118Y-3.1846
X1.1417Y-3.1122
X1.7913Y-1.9862
X1.8179Y-1.9222
X1.8179Y-2.0502
X1.8819Y-1.8957
X1.8819Y-2.0768
X1.9459Y-1.9222
X1.9459Y-2.0502
X1.9724Y-1.9862
X5.8898Y-2.6476
X5.8898Y-2.8287
X5.937Y-2.6476
X5.937Y-2.8287
X5.9843Y-2.6476
X5.9843Y-2.8287
X8.3425Y-4.1516
X8.3425Y-4.3327
X8.3898Y-4.1516
X8.3898Y-4.3327
X8.437Y-4.1516
X8.437Y-4.3327
X11.0807Y-1.8957
X11.0807Y-2.0768
X11.128Y-1.8957
X11.128Y-2.0768
X11.1752Y-1.895
X11.1752Y-2.0768
X11.8583Y-3.1122
X11.8882Y-3.0398
X11.8882Y-3.1846
X11.9606Y-3.0098
X11.9606Y-3.2146
X12.041Y-3.0098
X12.041Y-3.2146
T4
X1.2Y-1.05
X1.3Y-1.05
X10.575Y-4.45
X10.675Y-4.45
X6.075Y-2.2
X6.175Y-2.2
X8.325Y-2.2
X8.425Y-2.2
X3.075Y-2.2
X3.175Y-2.2
X11.6062Y-4.45
X11.7062Y-4.45
X5.9813Y-4.45
X6.0812Y-4.45
X1.2937Y-4.45
X1.3938Y-4.45
X11.5125Y-2.2
X11.6125Y-2.2
X3.2625Y-4.45
X3.3625Y-4.45
X8.8875Y-3.7
X8.9875Y-3.7
X3.6375Y-3.7
X3.7375Y-3.7
X8.1375Y-3.7
X8.2375Y-3.7
X1.95Y-1.05
X2.05Y-1.05
X9.45Y-1.45
X9.55Y-1.45
X8.5125Y-2.95
X8.6125Y-2.95
X9.7312Y-4.45
X9.8312Y-4.45
X2.1375Y-3.7
X2.2375Y-3.7
X11.4562Y-2.325
X11.4562Y-2.425
X4.4813Y-4.45
X4.5812Y-4.45
X9.6375Y-4.45
X9.7375Y-4.45
X4.0125Y-2.95
X4.1125Y-2.95
X9.825Y-2.2
X9.925Y-2.2
X5.1375Y-3.7
X5.2375Y-3.7
X9.6375Y-3.7
X9.7375Y-3.7
X3.1687Y-4.45
X3.2687Y-4.45
X11.0437Y-3.7
X11.1437Y-3.7
X7.0125Y-2.95
X7.1125Y-2.95
X1.4812Y-2.95
X1.5813Y-2.95
X5.7938Y-4.45
X5.8937Y-4.45
X7.3875Y-3.7
X7.4875Y-3.7
X7.575Y-2.2
X7.675Y-2.2
X9.2625Y-2.95
X9.3625Y-2.95
X5.325Y-2.2
X5.425Y-2.2
X6.45Y-1.45
X6.55Y-1.45
X2.5125Y-2.95
X2.6125Y-2.95
X8.7937Y-4.45
X8.8937Y-4.45
X4.575Y-2.2
X4.675Y-2.2
X7.7625Y-2.95
X7.8625Y-2.95
X11.7Y-3.7
X11.8Y-3.7
X4.7625Y-2.95
X4.8625Y-2.95
X2.325Y-4.45
X2.425Y-4.45
X11.5125Y-4.45
X11.6125Y-4.45
X2.8875Y-3.7
X2.9875Y-3.7
X10.0125Y-2.95
X10.1125Y-2.95
X7.95Y-1.45
X8.05Y-1.45
X8.7Y-1.45
X8.8Y-1.45
X2.325Y-2.2
X2.425Y-2.2
X6.2625Y-2.95
X6.3625Y-2.95
X6.825Y-2.2
X6.925Y-2.2
X1.3875Y-4.45
X1.4875Y-4.45
X1.6687Y-3.7
X1.7688Y-3.7
X5.5125Y-2.95
X5.6125Y-2.95
X7.2Y-1.45
X7.3Y-1.45
X2.2312Y-4.45
X2.3312Y-4.45
X9.075Y-2.2
X9.175Y-2.2
X10.575Y-2.2
X10.675Y-2.2
X1.3875Y-2.2
X1.4875Y-2.2
X10.95Y-1.45
X11.05Y-1.45
X4.3875Y-3.7
X4.4875Y-3.7
X1.2937Y-3.7
X1.3938Y-3.7
X5.8875Y-3.7
X5.9875Y-3.7
X1.2937Y-2.95
X1.3938Y-2.95
X10.2Y-1.45
X10.3Y-1.45
X11.2312Y-2.95
X11.3312Y-2.95
X10.7625Y-2.95
X10.8625Y-2.95
X6.45Y-4.45
X6.55Y-4.45
X4.95Y-1.45
X5.05Y-1.45
X3.2625Y-2.95
X3.3625Y-2.95
X11.325Y-1.45
X11.425Y-1.45
X10.6687Y-4.45
X10.7687Y-4.45
X7.2938Y-4.45
X7.3937Y-4.45
X3.825Y-2.2
X3.925Y-2.2
X4.2Y-1.45
X4.3Y-1.45
X10.6687Y-3.7
X10.7687Y-3.7
X6.6375Y-3.7
X6.7375Y-3.7
X5.7Y-1.45
X5.8Y-1.45
X11.7Y-1.45
X11.8Y-1.45
X2.7Y-1.45
X2.8Y-1.45
X3.45Y-1.45
X3.55Y-1.45
T5
X8.4125Y-2.65
X8.4641Y-2.5925
X8.6609Y-2.5728
X8.6625Y-2.55
X9.6312Y-4.15
X9.6828Y-4.0925
X9.8797Y-4.0728
X9.8812Y-4.05
X2.0375Y-3.4
X2.0891Y-3.3425
X2.2859Y-3.3228
X2.2875Y-3.3
X11.5578Y-2.5522
X11.7547Y-2.5325
X11.7562Y-2.225
X11.8137Y-2.2766
X11.8334Y-2.4734
X11.8562Y-2.475
X4.3812Y-4.15
X4.4328Y-4.0925
X4.6297Y-4.0728
X4.6312Y-4.05
X9.5375Y-4.15
X9.5891Y-4.0925
X9.7859Y-4.0728
X9.7875Y-4.05
X3.9125Y-2.65
X3.9641Y-2.5925
X4.1609Y-2.5728
X4.1625Y-2.55
X9.725Y-1.9
X9.7766Y-1.8425
X9.9734Y-1.8228
X9.975Y-1.8
X5.0375Y-3.4
X5.0891Y-3.3425
X5.2859Y-3.3228
X5.2875Y-3.3
X9.5375Y-3.4
X9.5891Y-3.3425
X9.7859Y-3.3228
X9.7875Y-3.3
X3.0688Y-4.15
X3.1203Y-4.0925
X3.3172Y-4.0728
X3.3188Y-4.05
X10.9437Y-3.4
X10.9953Y-3.3425
X11.1922Y-3.3228
X11.1937Y-3.3
X6.9125Y-2.65
X6.9641Y-2.5925
X7.1609Y-2.5728
X7.1625Y-2.55
X1.3812Y-2.65
X1.4328Y-2.5925
X1.6297Y-2.5728
X1.6312Y-2.55
X5.6937Y-4.15
X5.7453Y-4.0925
X5.9422Y-4.0728
X5.9437Y-4.05
X7.2875Y-3.4
X7.3391Y-3.3425
X7.5359Y-3.3228
X7.5375Y-3.3
X7.475Y-1.9
X7.5266Y-1.8425
X7.7234Y-1.8228
X7.725Y-1.8
X9.1625Y-2.65
X9.2141Y-2.5925
X9.4109Y-2.5728
X9.4125Y-2.55
X5.225Y-1.9
X5.2766Y-1.8425
X5.4734Y-1.8228
X5.475Y-1.8
X6.35Y-1.15
X6.4016Y-1.0925
X6.5984Y-1.0728
X6.6Y-1.05
X2.4125Y-2.65
X2.4641Y-2.5925
X2.6609Y-2.5728
X2.6625Y-2.55
X8.6937Y-4.15
X8.7453Y-4.0925
X8.9422Y-4.0728
X8.9437Y-4.05
X4.475Y-1.9
X4.5266Y-1.8425
X4.7234Y-1.8228
X4.725Y-1.8
X7.6625Y-2.65
X7.7141Y-2.5925
X7.9109Y-2.5728
X7.9125Y-2.55
X11.6Y-3.4
X11.6516Y-3.3425
X11.8484Y-3.3228
X11.85Y-3.3
X4.6625Y-2.65
X4.7141Y-2.5925
X4.9109Y-2.5728
X4.9125Y-2.55
X2.225Y-4.15
X2.2766Y-4.0925
X2.4734Y-4.0728
X2.475Y-4.05
X11.4125Y-4.15
X11.4641Y-4.0925
X11.6609Y-4.0728
X11.6625Y-4.05
X2.7875Y-3.4
X2.8391Y-3.3425
X3.0359Y-3.3228
X3.0375Y-3.3
X9.9125Y-2.65
X9.9641Y-2.5925
X10.1609Y-2.5728
X10.1625Y-2.55
X7.85Y-1.15
X7.9016Y-1.0925
X8.0984Y-1.0728
X8.1Y-1.05
X8.6Y-1.15
X8.6516Y-1.0925
X8.8484Y-1.0728
X8.85Y-1.05
X2.225Y-1.9
X2.2766Y-1.8425
X2.4734Y-1.8228
X2.475Y-1.8
X6.1625Y-2.65
X6.2141Y-2.5925
X6.4109Y-2.5728
X6.4125Y-2.55
X6.725Y-1.9
X6.7766Y-1.8425
X6.9734Y-1.8228
X6.975Y-1.8
X1.2875Y-4.15
X1.3391Y-4.0925
X1.5359Y-4.0728
X1.5375Y-4.05
X1.5687Y-3.4
X1.6203Y-3.3425
X1.8172Y-3.3228
X1.8187Y-3.3
X5.4125Y-2.65
X5.4641Y-2.5925
X5.6609Y-2.5728
X5.6625Y-2.55
X7.1Y-1.15
X7.1516Y-1.0925
X7.3484Y-1.0728
X7.35Y-1.05
X2.1313Y-4.15
X2.1828Y-4.0925
X2.3797Y-4.0728
X2.3813Y-4.05
X8.975Y-1.9
X9.0266Y-1.8425
X9.2234Y-1.8228
X9.225Y-1.8
X10.475Y-1.9
X10.5266Y-1.8425
X10.7234Y-1.8228
X10.725Y-1.8
X1.2875Y-1.9
X1.3391Y-1.8425
X1.5359Y-1.8228
X1.5375Y-1.8
X10.85Y-1.15
X10.9016Y-1.0925
X11.0984Y-1.0728
X11.1Y-1.05
X4.2875Y-3.4
X4.3391Y-3.3425
X4.5359Y-3.3228
X4.5375Y-3.3
X1.1937Y-3.4
X1.2453Y-3.3425
X1.4422Y-3.3228
X1.4437Y-3.3
X5.7875Y-3.4
X5.8391Y-3.3425
X6.0359Y-3.3228
X6.0375Y-3.3
X1.1937Y-2.65
X1.2453Y-2.5925
X1.4422Y-2.5728
X1.4437Y-2.55
X10.1Y-1.15
X10.1516Y-1.0925
X10.3484Y-1.0728
X10.35Y-1.05
X11.1312Y-2.65
X11.1828Y-2.5925
X11.3797Y-2.5728
X11.3812Y-2.55
X10.6625Y-2.65
X10.7141Y-2.5925
X10.9109Y-2.5728
X10.9125Y-2.55
X6.35Y-4.15
X6.4016Y-4.0925
X6.5984Y-4.0728
X6.6Y-4.05
X4.85Y-1.15
X4.9016Y-1.0925
X5.0984Y-1.0728
X5.1Y-1.05
X3.1625Y-2.65
X3.2141Y-2.5925
X3.4109Y-2.5728
X3.4125Y-2.55
X11.225Y-1.15
X11.2766Y-1.0925
X11.4734Y-1.0728
X11.475Y-1.05
X10.5687Y-4.15
X10.6203Y-4.0925
X10.8172Y-4.0728
X10.8187Y-4.05
X7.1937Y-4.15
X7.2453Y-4.0925
X7.4422Y-4.0728
X7.4437Y-4.05
X3.725Y-1.9
X3.7766Y-1.8425
X3.9734Y-1.8228
X3.975Y-1.8
X4.1Y-1.15
X4.1516Y-1.0925
X4.3484Y-1.0728
X4.35Y-1.05
X10.5687Y-3.4
X10.6203Y-3.3425
X10.8172Y-3.3228
X10.8187Y-3.3
X6.5375Y-3.4
X6.5891Y-3.3425
X6.7859Y-3.3228
X6.7875Y-3.3
X5.6Y-1.15
X5.6516Y-1.0925
X5.8484Y-1.0728
X5.85Y-1.05
X11.6Y-1.15
X11.6516Y-1.0925
X11.8484Y-1.0728
X11.85Y-1.05
X2.6Y-1.15
X2.6516Y-1.0925
X2.8484Y-1.0728
X2.85Y-1.05
X3.35Y-1.15
X3.4016Y-1.0925
X3.5984Y-1.0728
X3.6Y-1.05
X1.15Y-1.45
X1.1516Y-1.4272
X1.3484Y-1.4075
X1.4Y-1.35
X10.475Y-4.15
X10.5266Y-4.0925
X10.7234Y-4.0728
X10.725Y-4.05
X5.975Y-1.9
X6.0266Y-1.8425
X6.2234Y-1.8228
X6.225Y-1.8
X8.225Y-1.9
X8.2766Y-1.8425
X8.4734Y-1.8228
X8.475Y-1.8
X2.975Y-1.9
X3.0266Y-1.8425
X3.2234Y-1.8228
X3.225Y-1.8
X11.5062Y-4.15
X11.5578Y-4.0925
X11.7547Y-4.0728
X11.7562Y-4.05
X5.8812Y-4.15
X5.9328Y-4.0925
X6.1297Y-4.0728
X6.1312Y-4.05
X1.1937Y-4.15
X1.2453Y-4.0925
X1.4422Y-4.0728
X1.4437Y-4.05
X11.4125Y-1.9
X11.4641Y-1.8425
X11.6609Y-1.8228
X11.6625Y-1.8
X3.1625Y-4.15
X3.2141Y-4.0925
X3.4109Y-4.0728
X3.4125Y-4.05
X8.7875Y-3.4
X8.8391Y-3.3425
X9.0359Y-3.3228
X9.0375Y-3.3
X3.5375Y-3.4
X3.5891Y-3.3425
X3.7859Y-3.3228
X3.7875Y-3.3
X8.0375Y-3.4
X8.0891Y-3.3425
X8.2859Y-3.3228
X8.2875Y-3.3
X1.9Y-1.45
X1.9016Y-1.4272
X2.0984Y-1.4075
X2.15Y-1.35
X9.35Y-1.15
X9.4016Y-1.0925
X9.5984Y-1.0728
X9.6Y-1.05
T7
X1.8819Y-1.9862
T3
X1.4377Y-0.9031G85X1.4377Y-0.9267
G05
X1.4377Y-1.0578G85X1.4377Y-1.1011
G05
X1.7779Y-0.9031G85X1.7779Y-0.9267
G05
X1.7779Y-1.0578G85X1.7779Y-1.1011
G05
T6
X5.8878Y-2.7382G85X5.9863Y-2.7382
G05
X8.3405Y-4.2421G85X8.439Y-4.2421
G05
X11.0787Y-1.9862G85X11.1772Y-1.9862
G05
T0
M30
