M48
;DRILL file {KiCad (5.0.2)-1} date 3/7/2019 1:35:04 AM
;FORMAT={-:-/ absolute / inch / decimal}
FMAT,2
INCH,TZ
T1C0.0157
T2C0.0197
T3C0.0236
T4C0.0579
T5C0.0984
T6C0.0984
%
G90
G05
T1
X1.03Y-2.485
X1.03Y-2.775
X1.065Y-1.64
X1.075Y-1.225
X1.175Y-3.755
X1.185Y-1.97
X1.215Y-2.8
X1.25Y-1.22
X1.25Y-2.8
X1.285Y-2.8
X1.315Y-2.4
X1.38Y-1.19
X1.53Y-1.205
X1.555Y-1.59
X1.56Y-1.175
X1.565Y-3.44
X1.665Y-1.175
X1.665Y-1.59
X1.695Y-3.81
X1.705Y-1.205
X1.72Y-4.2212
X1.75Y-3.
X1.815Y-1.21
X1.825Y-1.39
X1.84Y-1.62
X1.87Y-1.34
X1.89Y-2.445
X1.91Y-2.9875
X1.955Y-2.86
X1.965Y-1.615
X2.Y-2.4
X2.04Y-3.21
X2.06Y-1.78
X2.06Y-2.9
X2.105Y-3.81
X2.14Y-2.925
X2.175Y-2.925
X2.225Y-2.44
X2.255Y-2.895
X2.265Y-2.44
X2.275Y-2.845
X2.285Y-2.
X2.3Y-2.54
X2.38Y-2.775
X2.435Y-2.845
X2.465Y-2.95
X2.855Y-2.255
X2.855Y-2.72
X3.225Y-3.81
X3.635Y-3.81
X4.85Y-3.81
X5.26Y-3.81
X6.47Y-3.81
X6.885Y-3.81
X8.1Y-3.81
X8.51Y-3.81
X9.72Y-3.81
X10.135Y-3.81
X10.165Y-1.25
X10.475Y-1.19
X10.525Y-2.445
X10.795Y-2.72
X10.935Y-1.565
X10.97Y-1.755
X11.02Y-3.785
X11.15Y-3.81
X11.65Y-2.165
T2
X0.959Y-3.0098
X0.959Y-3.2146
X1.0394Y-3.0098
X1.0394Y-3.2146
X1.1118Y-3.0398
X1.1118Y-3.1846
X1.1417Y-3.1122
X1.7913Y-1.9862
X1.8179Y-1.9222
X1.8179Y-2.0502
X1.8819Y-1.8957
X1.8819Y-2.0768
X1.9459Y-1.9222
X1.9459Y-2.0502
X1.9724Y-1.9862
X5.8898Y-2.6476
X5.8898Y-2.8287
X5.937Y-2.6476
X5.937Y-2.8287
X5.9843Y-2.6476
X5.9843Y-2.8287
X8.3425Y-4.1516
X8.3425Y-4.3327
X8.3898Y-4.1516
X8.3898Y-4.3327
X8.437Y-4.1516
X8.437Y-4.3327
X11.0807Y-1.8957
X11.0807Y-2.0768
X11.128Y-1.8957
X11.128Y-2.0768
X11.1752Y-1.895
X11.1752Y-2.0768
X11.8583Y-3.1122
X11.8882Y-3.0398
X11.8882Y-3.1846
X11.9606Y-3.0098
X11.9606Y-3.2146
X12.041Y-3.0098
X12.041Y-3.2146
T4
X2.2766Y-4.4272
X2.4734Y-4.4075
X7.7141Y-2.5925
X7.9109Y-2.5728
X8.4641Y-2.5925
X8.6609Y-2.5728
X3.4016Y-4.0925
X3.5984Y-4.0728
X8.2766Y-1.8425
X8.4734Y-1.8228
X10.4328Y-4.0925
X10.6297Y-4.0728
X4.3391Y-3.3425
X4.5359Y-3.3228
X5.6516Y-1.0925
X5.8484Y-1.0728
X9.2141Y-2.5925
X9.4109Y-2.5728
X3.4016Y-1.0925
X3.5984Y-1.0728
X5.2766Y-1.8425
X5.4734Y-1.8228
X6.4016Y-4.0925
X6.5984Y-4.0728
X11.1828Y-2.5925
X11.3797Y-2.5728
X10.5266Y-4.4272
X10.7234Y-4.4075
X1.2453Y-2.5925
X1.4422Y-2.5728
X9.0266Y-1.8425
X9.2234Y-1.8228
X11.72Y-2.2766
X11.7397Y-2.4734
X2.3703Y-4.0925
X2.5672Y-4.0728
X11.8137Y-2.2766
X11.8334Y-2.4734
X11.2766Y-1.0925
X11.4734Y-1.0728
X7.1516Y-1.0925
X7.3484Y-1.0728
X7.9016Y-1.0925
X8.0984Y-1.0728
X4.1516Y-1.0925
X4.3484Y-1.0728
X11.4641Y-4.0925
X11.6609Y-4.0728
X3.5891Y-3.3425
X3.7859Y-3.3228
X1.2453Y-3.3425
X1.4422Y-3.3228
X1.9016Y-1.0925
X2.0984Y-1.0728
X7.5266Y-1.8425
X7.7234Y-1.8228
X9.6828Y-4.4272
X9.8797Y-4.4075
X3.7766Y-1.8425
X3.9734Y-1.8228
X7.3391Y-3.3425
X7.5359Y-3.3228
X5.8391Y-3.3425
X6.0359Y-3.3228
X3.1203Y-4.4272
X3.3172Y-4.4075
X9.4016Y-1.0925
X9.5984Y-1.0728
X7.2453Y-4.0925
X7.4422Y-4.0728
X2.6516Y-1.0925
X2.8484Y-1.0728
X10.9953Y-3.3425
X11.1922Y-3.3228
X1.3391Y-2.9272
X1.5359Y-2.9075
X6.7766Y-1.8425
X6.9734Y-1.8228
X2.1828Y-4.0925
X2.3797Y-4.0728
X6.9641Y-2.5925
X7.1609Y-2.5728
X4.7141Y-2.5925
X4.9109Y-2.5728
X4.5266Y-1.8425
X4.7234Y-1.8228
X5.9328Y-4.0925
X6.1297Y-4.0728
X1.1516Y-1.4272
X1.3484Y-1.4075
X3.2141Y-4.0925
X3.4109Y-4.0728
X1.6203Y-3.3425
X1.8172Y-3.3228
X8.0891Y-3.3425
X8.2859Y-3.3228
X5.0891Y-3.3425
X5.2859Y-3.3228
X1.2453Y-4.4272
X1.4422Y-4.4075
X5.7453Y-4.0925
X5.9422Y-4.0728
X2.0891Y-3.3425
X2.2859Y-3.3228
X1.3391Y-4.0925
X1.5359Y-4.0728
X1.4328Y-2.5925
X1.6297Y-2.5728
X11.9075Y-2.2766
X11.9272Y-2.4734
X2.4641Y-2.5925
X2.6609Y-2.5728
X9.7766Y-1.8425
X9.9734Y-1.8228
X4.9016Y-1.0925
X5.0984Y-1.0728
X10.9016Y-1.0925
X11.0984Y-1.0728
X8.8391Y-3.3425
X9.0359Y-3.3228
X2.8391Y-3.3425
X3.0359Y-3.3228
X4.4328Y-4.0925
X4.6297Y-4.0728
X3.0266Y-1.8425
X3.2234Y-1.8228
X5.4641Y-2.5925
X5.6609Y-2.5728
X11.6516Y-1.0925
X11.8484Y-1.0728
X8.7453Y-4.0925
X8.9422Y-4.0728
X6.2141Y-2.5925
X6.4109Y-2.5728
X10.7141Y-2.5925
X10.9109Y-2.5728
X9.5891Y-3.3425
X9.7859Y-3.3228
X9.9641Y-2.5925
X10.1609Y-2.5728
X9.5891Y-4.0925
X9.7859Y-4.0728
X6.0266Y-1.8425
X6.2234Y-1.8228
X11.6516Y-3.3425
X11.8484Y-3.3228
X10.5266Y-1.8425
X10.7234Y-1.8228
X10.6203Y-3.3425
X10.8172Y-3.3228
X3.9641Y-2.5925
X4.1609Y-2.5728
X10.6203Y-4.0925
X10.8172Y-4.0728
X2.2766Y-1.8425
X2.4734Y-1.8228
X6.5891Y-3.3425
X6.7859Y-3.3228
X11.4641Y-1.8425
X11.6609Y-1.8228
X9.4016Y-4.0925
X9.5984Y-4.0728
X8.6516Y-1.0925
X8.8484Y-1.0728
X10.1516Y-1.0925
X10.3484Y-1.0728
X6.4016Y-1.0925
X6.5984Y-1.0728
X11.5578Y-4.4272
X11.7547Y-4.4075
X1.3391Y-1.8425
X1.5359Y-1.8228
X1.1516Y-1.0925
X1.3484Y-1.0728
X3.2141Y-2.5925
X3.4109Y-2.5728
T6
X1.8819Y-1.9862
T3
X1.4377Y-0.9031G85X1.4377Y-0.9267
G05
X1.4377Y-1.0578G85X1.4377Y-1.1011
G05
X1.7779Y-0.9031G85X1.7779Y-0.9267
G05
X1.7779Y-1.0578G85X1.7779Y-1.1011
G05
T5
X5.8878Y-2.7382G85X5.9863Y-2.7382
G05
X8.3405Y-4.2421G85X8.439Y-4.2421
G05
X11.0787Y-1.9862G85X11.1772Y-1.9862
G05
T0
M30
