G04 #@! TF.GenerationSoftware,KiCad,Pcbnew,(5.0.2)-1*
G04 #@! TF.CreationDate,2019-03-07T01:35:03-08:00*
G04 #@! TF.ProjectId,Voyager60,566f7961-6765-4723-9630-2e6b69636164,rev?*
G04 #@! TF.SameCoordinates,Original*
G04 #@! TF.FileFunction,Legend,Top*
G04 #@! TF.FilePolarity,Positive*
%FSLAX46Y46*%
G04 Gerber Fmt 4.6, Leading zero omitted, Abs format (unit mm)*
G04 Created by KiCad (PCBNEW (5.0.2)-1) date 3/7/2019 1:35:03 AM*
%MOMM*%
%LPD*%
G01*
G04 APERTURE LIST*
%ADD10C,0.300000*%
%ADD11C,0.500000*%
%ADD12C,2.501900*%
%ADD13C,0.010000*%
%ADD14C,1.400000*%
%ADD15C,7.400240*%
%ADD16C,7.401300*%
%ADD17O,1.400000X2.000000*%
%ADD18O,1.400000X2.500000*%
%ADD19C,1.050000*%
G04 APERTURE END LIST*
D10*
X96512571Y-96206571D02*
X96226857Y-96206571D01*
X96084000Y-96278000D01*
X96012571Y-96349428D01*
X95869714Y-96563714D01*
X95798285Y-96849428D01*
X95798285Y-97420857D01*
X95869714Y-97563714D01*
X95941142Y-97635142D01*
X96084000Y-97706571D01*
X96369714Y-97706571D01*
X96512571Y-97635142D01*
X96584000Y-97563714D01*
X96655428Y-97420857D01*
X96655428Y-97063714D01*
X96584000Y-96920857D01*
X96512571Y-96849428D01*
X96369714Y-96778000D01*
X96084000Y-96778000D01*
X95941142Y-96849428D01*
X95869714Y-96920857D01*
X95798285Y-97063714D01*
X97584000Y-96206571D02*
X97726857Y-96206571D01*
X97869714Y-96278000D01*
X97941142Y-96349428D01*
X98012571Y-96492285D01*
X98084000Y-96778000D01*
X98084000Y-97135142D01*
X98012571Y-97420857D01*
X97941142Y-97563714D01*
X97869714Y-97635142D01*
X97726857Y-97706571D01*
X97584000Y-97706571D01*
X97441142Y-97635142D01*
X97369714Y-97563714D01*
X97298285Y-97420857D01*
X97226857Y-97135142D01*
X97226857Y-96778000D01*
X97298285Y-96492285D01*
X97369714Y-96349428D01*
X97441142Y-96278000D01*
X97584000Y-96206571D01*
X98726857Y-97135142D02*
X99869714Y-97135142D01*
X100512571Y-97278000D02*
X101226857Y-97278000D01*
X100369714Y-97706571D02*
X100869714Y-96206571D01*
X101369714Y-97706571D01*
X102584000Y-97706571D02*
X101869714Y-97706571D01*
X101869714Y-96206571D01*
X103084000Y-97706571D02*
X103084000Y-96206571D01*
X103655428Y-96206571D01*
X103798285Y-96278000D01*
X103869714Y-96349428D01*
X103941142Y-96492285D01*
X103941142Y-96706571D01*
X103869714Y-96849428D01*
X103798285Y-96920857D01*
X103655428Y-96992285D01*
X103084000Y-96992285D01*
X104512571Y-97635142D02*
X104726857Y-97706571D01*
X105084000Y-97706571D01*
X105226857Y-97635142D01*
X105298285Y-97563714D01*
X105369714Y-97420857D01*
X105369714Y-97278000D01*
X105298285Y-97135142D01*
X105226857Y-97063714D01*
X105084000Y-96992285D01*
X104798285Y-96920857D01*
X104655428Y-96849428D01*
X104584000Y-96778000D01*
X104512571Y-96635142D01*
X104512571Y-96492285D01*
X104584000Y-96349428D01*
X104655428Y-96278000D01*
X104798285Y-96206571D01*
X105155428Y-96206571D01*
X105369714Y-96278000D01*
D11*
X62747916Y-96234523D02*
X64414583Y-100234523D01*
X66081250Y-96234523D01*
X68700297Y-96234523D02*
X69652678Y-96234523D01*
X70128869Y-96425000D01*
X70605059Y-96805952D01*
X70843154Y-97567857D01*
X70843154Y-98901190D01*
X70605059Y-99663095D01*
X70128869Y-100044047D01*
X69652678Y-100234523D01*
X68700297Y-100234523D01*
X68224107Y-100044047D01*
X67747916Y-99663095D01*
X67509821Y-98901190D01*
X67509821Y-97567857D01*
X67747916Y-96805952D01*
X68224107Y-96425000D01*
X68700297Y-96234523D01*
X73938392Y-98329761D02*
X73938392Y-100234523D01*
X72271726Y-96234523D02*
X73938392Y-98329761D01*
X75605059Y-96234523D01*
X77033630Y-99091666D02*
X79414583Y-99091666D01*
X76557440Y-100234523D02*
X78224107Y-96234523D01*
X79890773Y-100234523D01*
X84176488Y-96425000D02*
X83700297Y-96234523D01*
X82986011Y-96234523D01*
X82271726Y-96425000D01*
X81795535Y-96805952D01*
X81557440Y-97186904D01*
X81319345Y-97948809D01*
X81319345Y-98520238D01*
X81557440Y-99282142D01*
X81795535Y-99663095D01*
X82271726Y-100044047D01*
X82986011Y-100234523D01*
X83462202Y-100234523D01*
X84176488Y-100044047D01*
X84414583Y-99853571D01*
X84414583Y-98520238D01*
X83462202Y-98520238D01*
X86557440Y-98139285D02*
X88224107Y-98139285D01*
X88938392Y-100234523D02*
X86557440Y-100234523D01*
X86557440Y-96234523D01*
X88938392Y-96234523D01*
X93938392Y-100234523D02*
X92271726Y-98329761D01*
X91081250Y-100234523D02*
X91081250Y-96234523D01*
X92986011Y-96234523D01*
X93462202Y-96425000D01*
X93700297Y-96615476D01*
X93938392Y-96996428D01*
X93938392Y-97567857D01*
X93700297Y-97948809D01*
X93462202Y-98139285D01*
X92986011Y-98329761D01*
X91081250Y-98329761D01*
%LPC*%
D12*
G04 #@! TO.C,REF\002A\002A*
X22600000Y-81700950D02*
X26400000Y-81700950D01*
X26400000Y-81700950D02*
G75*
G03X29050950Y-79050000I0J2650950D01*
G01*
X29050950Y-79050000D02*
G75*
G03X26400000Y-76399050I-2650950J0D01*
G01*
X22600000Y-76399050D02*
X26400000Y-76399050D01*
X303800000Y-81700950D02*
X307650000Y-81700950D01*
X303800000Y-81700950D02*
G75*
G02X301149050Y-79050000I0J2650950D01*
G01*
X301149050Y-79050000D02*
G75*
G02X303800000Y-76399050I2650950J0D01*
G01*
X303800000Y-76399050D02*
X307600000Y-76399050D01*
D13*
G04 #@! TO.C,G\002A\002A\002A*
G36*
X262921750Y-97345500D02*
X262516938Y-97345500D01*
X262516938Y-96940688D01*
X262921750Y-96940688D01*
X262921750Y-97345500D01*
X262921750Y-97345500D01*
G37*
X262921750Y-97345500D02*
X262516938Y-97345500D01*
X262516938Y-96940688D01*
X262921750Y-96940688D01*
X262921750Y-97345500D01*
G36*
X263326563Y-98131313D02*
X262921750Y-98131313D01*
X262921750Y-97750313D01*
X263326563Y-97750313D01*
X263326563Y-98131313D01*
X263326563Y-98131313D01*
G37*
X263326563Y-98131313D02*
X262921750Y-98131313D01*
X262921750Y-97750313D01*
X263326563Y-97750313D01*
X263326563Y-98131313D01*
G36*
X262516938Y-98131313D02*
X262135938Y-98131313D01*
X262135938Y-97750313D01*
X262516938Y-97750313D01*
X262516938Y-98131313D01*
X262516938Y-98131313D01*
G37*
X262516938Y-98131313D02*
X262135938Y-98131313D01*
X262135938Y-97750313D01*
X262516938Y-97750313D01*
X262516938Y-98131313D01*
G36*
X263707563Y-98940938D02*
X263326563Y-98940938D01*
X263326563Y-98536125D01*
X263707563Y-98536125D01*
X263707563Y-98940938D01*
X263707563Y-98940938D01*
G37*
X263707563Y-98940938D02*
X263326563Y-98940938D01*
X263326563Y-98536125D01*
X263707563Y-98536125D01*
X263707563Y-98940938D01*
G36*
X262921750Y-98940938D02*
X262516938Y-98940938D01*
X262516938Y-98536125D01*
X262921750Y-98536125D01*
X262921750Y-98940938D01*
X262921750Y-98940938D01*
G37*
X262921750Y-98940938D02*
X262516938Y-98940938D01*
X262516938Y-98536125D01*
X262921750Y-98536125D01*
X262921750Y-98940938D01*
G36*
X262135938Y-98940938D02*
X261731125Y-98940938D01*
X261731125Y-98536125D01*
X262135938Y-98536125D01*
X262135938Y-98940938D01*
X262135938Y-98940938D01*
G37*
X262135938Y-98940938D02*
X261731125Y-98940938D01*
X261731125Y-98536125D01*
X262135938Y-98536125D01*
X262135938Y-98940938D01*
G36*
X264112375Y-99726750D02*
X263707563Y-99726750D01*
X263707563Y-99321938D01*
X264112375Y-99321938D01*
X264112375Y-99726750D01*
X264112375Y-99726750D01*
G37*
X264112375Y-99726750D02*
X263707563Y-99726750D01*
X263707563Y-99321938D01*
X264112375Y-99321938D01*
X264112375Y-99726750D01*
G36*
X261731125Y-99726750D02*
X261326313Y-99726750D01*
X261326313Y-99321938D01*
X261731125Y-99321938D01*
X261731125Y-99726750D01*
X261731125Y-99726750D01*
G37*
X261731125Y-99726750D02*
X261326313Y-99726750D01*
X261326313Y-99321938D01*
X261731125Y-99321938D01*
X261731125Y-99726750D01*
G36*
X262735219Y-95453045D02*
X262859337Y-95454415D01*
X262971049Y-95458572D01*
X263073642Y-95465919D01*
X263170406Y-95476860D01*
X263264628Y-95491798D01*
X263359597Y-95511137D01*
X263458601Y-95535281D01*
X263503880Y-95547418D01*
X263712427Y-95612656D01*
X263914515Y-95691992D01*
X264109378Y-95785028D01*
X264296249Y-95891368D01*
X264474364Y-96010616D01*
X264626510Y-96128617D01*
X264784178Y-96269342D01*
X264931515Y-96420787D01*
X265067836Y-96581885D01*
X265192458Y-96751567D01*
X265304697Y-96928766D01*
X265403870Y-97112416D01*
X265489292Y-97301447D01*
X265560280Y-97494793D01*
X265609034Y-97662803D01*
X265642105Y-97802789D01*
X265667465Y-97934725D01*
X265685857Y-98063997D01*
X265698025Y-98195993D01*
X265704711Y-98336100D01*
X265705364Y-98361500D01*
X265702645Y-98579797D01*
X265684450Y-98794580D01*
X265650785Y-99005821D01*
X265601656Y-99213489D01*
X265537069Y-99417555D01*
X265472872Y-99581487D01*
X265444789Y-99646752D01*
X265420727Y-99700910D01*
X265398858Y-99747613D01*
X265377357Y-99790513D01*
X265354396Y-99833263D01*
X265328150Y-99879515D01*
X265299025Y-99929156D01*
X265179806Y-100115427D01*
X265049702Y-100290153D01*
X264908579Y-100453465D01*
X264756305Y-100605496D01*
X264592747Y-100746380D01*
X264417774Y-100876248D01*
X264235406Y-100992775D01*
X264182577Y-101023744D01*
X264136664Y-101049721D01*
X264094015Y-101072531D01*
X264050978Y-101094001D01*
X264003901Y-101115957D01*
X263949131Y-101140225D01*
X263887737Y-101166622D01*
X263791504Y-101206169D01*
X263702786Y-101239208D01*
X263615672Y-101267695D01*
X263524248Y-101293589D01*
X263441656Y-101314322D01*
X263277140Y-101349876D01*
X263120045Y-101375553D01*
X262965817Y-101391893D01*
X262809899Y-101399436D01*
X262719344Y-101400013D01*
X262668125Y-101399498D01*
X262620004Y-101398793D01*
X262578124Y-101397960D01*
X262545628Y-101397063D01*
X262525660Y-101396165D01*
X262524875Y-101396109D01*
X262308701Y-101372157D01*
X262095944Y-101333170D01*
X261887463Y-101279467D01*
X261684118Y-101211363D01*
X261486766Y-101129176D01*
X261296268Y-101033225D01*
X261113482Y-100923826D01*
X260962526Y-100818796D01*
X260789599Y-100680449D01*
X260628915Y-100532088D01*
X260480701Y-100374039D01*
X260345179Y-100206632D01*
X260222574Y-100030194D01*
X260113111Y-99845052D01*
X260017013Y-99651535D01*
X259934506Y-99449971D01*
X259865813Y-99240688D01*
X259853668Y-99197630D01*
X259827302Y-99095835D01*
X259805917Y-98999511D01*
X259789109Y-98905367D01*
X259776475Y-98810117D01*
X259767610Y-98710470D01*
X259762112Y-98603140D01*
X259759576Y-98484836D01*
X259759295Y-98428969D01*
X259759970Y-98373608D01*
X260292044Y-98373608D01*
X260292147Y-98453746D01*
X260293813Y-98533410D01*
X260297009Y-98608537D01*
X260301706Y-98675060D01*
X260305426Y-98710750D01*
X260337300Y-98908048D01*
X260383951Y-99099663D01*
X260445201Y-99285222D01*
X260520869Y-99464349D01*
X260610777Y-99636669D01*
X260714744Y-99801809D01*
X260832591Y-99959393D01*
X260964138Y-100109047D01*
X260986474Y-100132260D01*
X261120708Y-100259334D01*
X261266410Y-100377270D01*
X261420881Y-100484090D01*
X261581419Y-100577816D01*
X261627208Y-100601504D01*
X261701616Y-100638153D01*
X261766857Y-100668372D01*
X261827354Y-100693940D01*
X261887528Y-100716634D01*
X261951801Y-100738233D01*
X262016875Y-100758227D01*
X262206088Y-100807640D01*
X262391839Y-100842091D01*
X262575577Y-100861714D01*
X262758753Y-100866642D01*
X262942814Y-100857011D01*
X263009356Y-100850031D01*
X263196688Y-100821087D01*
X263376269Y-100779278D01*
X263550607Y-100723854D01*
X263722209Y-100654064D01*
X263819166Y-100607866D01*
X263989798Y-100514447D01*
X264149214Y-100410712D01*
X264298172Y-100295974D01*
X264437429Y-100169550D01*
X264567744Y-100030754D01*
X264689874Y-99878903D01*
X264798142Y-99723259D01*
X264823268Y-99682068D01*
X264852591Y-99629940D01*
X264884291Y-99570496D01*
X264916549Y-99507356D01*
X264947543Y-99444140D01*
X264975456Y-99384467D01*
X264998465Y-99331957D01*
X265011903Y-99298125D01*
X265074770Y-99106584D01*
X265122166Y-98913845D01*
X265154050Y-98720450D01*
X265170380Y-98526940D01*
X265171118Y-98333857D01*
X265156222Y-98141742D01*
X265125652Y-97951136D01*
X265115849Y-97905094D01*
X265082200Y-97768801D01*
X265043892Y-97642618D01*
X264998954Y-97521007D01*
X264945413Y-97398432D01*
X264907754Y-97320958D01*
X264814049Y-97152110D01*
X264707224Y-96991673D01*
X264588048Y-96840368D01*
X264457287Y-96698914D01*
X264315710Y-96568031D01*
X264164084Y-96448440D01*
X264003177Y-96340860D01*
X263833757Y-96246011D01*
X263689575Y-96178480D01*
X263517947Y-96112085D01*
X263345393Y-96060087D01*
X263169906Y-96022078D01*
X262989476Y-95997651D01*
X262802095Y-95986397D01*
X262739188Y-95985507D01*
X262541093Y-95991877D01*
X262349465Y-96012522D01*
X262163531Y-96047673D01*
X261982515Y-96097567D01*
X261805644Y-96162435D01*
X261632144Y-96242513D01*
X261461241Y-96338035D01*
X261360544Y-96402244D01*
X261221111Y-96503772D01*
X261086913Y-96618278D01*
X260959591Y-96743839D01*
X260840785Y-96878531D01*
X260732136Y-97020431D01*
X260635285Y-97167615D01*
X260551872Y-97318161D01*
X260517076Y-97391080D01*
X260455673Y-97535939D01*
X260405442Y-97675178D01*
X260365185Y-97813126D01*
X260333706Y-97954114D01*
X260309806Y-98102471D01*
X260301405Y-98171000D01*
X260296642Y-98228170D01*
X260293532Y-98297061D01*
X260292044Y-98373608D01*
X259759970Y-98373608D01*
X259761040Y-98285973D01*
X259766914Y-98155106D01*
X259777488Y-98033025D01*
X259793335Y-97916385D01*
X259815027Y-97801844D01*
X259843137Y-97686059D01*
X259878236Y-97565687D01*
X259920897Y-97437384D01*
X259936591Y-97393125D01*
X260014976Y-97198406D01*
X260107816Y-97010072D01*
X260214922Y-96828385D01*
X260336102Y-96653608D01*
X260471167Y-96486003D01*
X260619924Y-96325833D01*
X260782183Y-96173360D01*
X260889021Y-96083179D01*
X260974850Y-96017686D01*
X261072389Y-95950360D01*
X261177998Y-95883412D01*
X261288036Y-95819055D01*
X261398863Y-95759500D01*
X261506839Y-95706958D01*
X261512844Y-95704215D01*
X261582804Y-95674342D01*
X261663985Y-95642956D01*
X261752017Y-95611536D01*
X261842529Y-95581562D01*
X261931151Y-95554511D01*
X262013514Y-95531864D01*
X262045400Y-95523971D01*
X262138625Y-95503203D01*
X262227599Y-95486543D01*
X262315603Y-95473652D01*
X262405919Y-95464195D01*
X262501828Y-95457832D01*
X262606610Y-95454228D01*
X262723545Y-95453044D01*
X262735219Y-95453045D01*
X262735219Y-95453045D01*
G37*
X262735219Y-95453045D02*
X262859337Y-95454415D01*
X262971049Y-95458572D01*
X263073642Y-95465919D01*
X263170406Y-95476860D01*
X263264628Y-95491798D01*
X263359597Y-95511137D01*
X263458601Y-95535281D01*
X263503880Y-95547418D01*
X263712427Y-95612656D01*
X263914515Y-95691992D01*
X264109378Y-95785028D01*
X264296249Y-95891368D01*
X264474364Y-96010616D01*
X264626510Y-96128617D01*
X264784178Y-96269342D01*
X264931515Y-96420787D01*
X265067836Y-96581885D01*
X265192458Y-96751567D01*
X265304697Y-96928766D01*
X265403870Y-97112416D01*
X265489292Y-97301447D01*
X265560280Y-97494793D01*
X265609034Y-97662803D01*
X265642105Y-97802789D01*
X265667465Y-97934725D01*
X265685857Y-98063997D01*
X265698025Y-98195993D01*
X265704711Y-98336100D01*
X265705364Y-98361500D01*
X265702645Y-98579797D01*
X265684450Y-98794580D01*
X265650785Y-99005821D01*
X265601656Y-99213489D01*
X265537069Y-99417555D01*
X265472872Y-99581487D01*
X265444789Y-99646752D01*
X265420727Y-99700910D01*
X265398858Y-99747613D01*
X265377357Y-99790513D01*
X265354396Y-99833263D01*
X265328150Y-99879515D01*
X265299025Y-99929156D01*
X265179806Y-100115427D01*
X265049702Y-100290153D01*
X264908579Y-100453465D01*
X264756305Y-100605496D01*
X264592747Y-100746380D01*
X264417774Y-100876248D01*
X264235406Y-100992775D01*
X264182577Y-101023744D01*
X264136664Y-101049721D01*
X264094015Y-101072531D01*
X264050978Y-101094001D01*
X264003901Y-101115957D01*
X263949131Y-101140225D01*
X263887737Y-101166622D01*
X263791504Y-101206169D01*
X263702786Y-101239208D01*
X263615672Y-101267695D01*
X263524248Y-101293589D01*
X263441656Y-101314322D01*
X263277140Y-101349876D01*
X263120045Y-101375553D01*
X262965817Y-101391893D01*
X262809899Y-101399436D01*
X262719344Y-101400013D01*
X262668125Y-101399498D01*
X262620004Y-101398793D01*
X262578124Y-101397960D01*
X262545628Y-101397063D01*
X262525660Y-101396165D01*
X262524875Y-101396109D01*
X262308701Y-101372157D01*
X262095944Y-101333170D01*
X261887463Y-101279467D01*
X261684118Y-101211363D01*
X261486766Y-101129176D01*
X261296268Y-101033225D01*
X261113482Y-100923826D01*
X260962526Y-100818796D01*
X260789599Y-100680449D01*
X260628915Y-100532088D01*
X260480701Y-100374039D01*
X260345179Y-100206632D01*
X260222574Y-100030194D01*
X260113111Y-99845052D01*
X260017013Y-99651535D01*
X259934506Y-99449971D01*
X259865813Y-99240688D01*
X259853668Y-99197630D01*
X259827302Y-99095835D01*
X259805917Y-98999511D01*
X259789109Y-98905367D01*
X259776475Y-98810117D01*
X259767610Y-98710470D01*
X259762112Y-98603140D01*
X259759576Y-98484836D01*
X259759295Y-98428969D01*
X259759970Y-98373608D01*
X260292044Y-98373608D01*
X260292147Y-98453746D01*
X260293813Y-98533410D01*
X260297009Y-98608537D01*
X260301706Y-98675060D01*
X260305426Y-98710750D01*
X260337300Y-98908048D01*
X260383951Y-99099663D01*
X260445201Y-99285222D01*
X260520869Y-99464349D01*
X260610777Y-99636669D01*
X260714744Y-99801809D01*
X260832591Y-99959393D01*
X260964138Y-100109047D01*
X260986474Y-100132260D01*
X261120708Y-100259334D01*
X261266410Y-100377270D01*
X261420881Y-100484090D01*
X261581419Y-100577816D01*
X261627208Y-100601504D01*
X261701616Y-100638153D01*
X261766857Y-100668372D01*
X261827354Y-100693940D01*
X261887528Y-100716634D01*
X261951801Y-100738233D01*
X262016875Y-100758227D01*
X262206088Y-100807640D01*
X262391839Y-100842091D01*
X262575577Y-100861714D01*
X262758753Y-100866642D01*
X262942814Y-100857011D01*
X263009356Y-100850031D01*
X263196688Y-100821087D01*
X263376269Y-100779278D01*
X263550607Y-100723854D01*
X263722209Y-100654064D01*
X263819166Y-100607866D01*
X263989798Y-100514447D01*
X264149214Y-100410712D01*
X264298172Y-100295974D01*
X264437429Y-100169550D01*
X264567744Y-100030754D01*
X264689874Y-99878903D01*
X264798142Y-99723259D01*
X264823268Y-99682068D01*
X264852591Y-99629940D01*
X264884291Y-99570496D01*
X264916549Y-99507356D01*
X264947543Y-99444140D01*
X264975456Y-99384467D01*
X264998465Y-99331957D01*
X265011903Y-99298125D01*
X265074770Y-99106584D01*
X265122166Y-98913845D01*
X265154050Y-98720450D01*
X265170380Y-98526940D01*
X265171118Y-98333857D01*
X265156222Y-98141742D01*
X265125652Y-97951136D01*
X265115849Y-97905094D01*
X265082200Y-97768801D01*
X265043892Y-97642618D01*
X264998954Y-97521007D01*
X264945413Y-97398432D01*
X264907754Y-97320958D01*
X264814049Y-97152110D01*
X264707224Y-96991673D01*
X264588048Y-96840368D01*
X264457287Y-96698914D01*
X264315710Y-96568031D01*
X264164084Y-96448440D01*
X264003177Y-96340860D01*
X263833757Y-96246011D01*
X263689575Y-96178480D01*
X263517947Y-96112085D01*
X263345393Y-96060087D01*
X263169906Y-96022078D01*
X262989476Y-95997651D01*
X262802095Y-95986397D01*
X262739188Y-95985507D01*
X262541093Y-95991877D01*
X262349465Y-96012522D01*
X262163531Y-96047673D01*
X261982515Y-96097567D01*
X261805644Y-96162435D01*
X261632144Y-96242513D01*
X261461241Y-96338035D01*
X261360544Y-96402244D01*
X261221111Y-96503772D01*
X261086913Y-96618278D01*
X260959591Y-96743839D01*
X260840785Y-96878531D01*
X260732136Y-97020431D01*
X260635285Y-97167615D01*
X260551872Y-97318161D01*
X260517076Y-97391080D01*
X260455673Y-97535939D01*
X260405442Y-97675178D01*
X260365185Y-97813126D01*
X260333706Y-97954114D01*
X260309806Y-98102471D01*
X260301405Y-98171000D01*
X260296642Y-98228170D01*
X260293532Y-98297061D01*
X260292044Y-98373608D01*
X259759970Y-98373608D01*
X259761040Y-98285973D01*
X259766914Y-98155106D01*
X259777488Y-98033025D01*
X259793335Y-97916385D01*
X259815027Y-97801844D01*
X259843137Y-97686059D01*
X259878236Y-97565687D01*
X259920897Y-97437384D01*
X259936591Y-97393125D01*
X260014976Y-97198406D01*
X260107816Y-97010072D01*
X260214922Y-96828385D01*
X260336102Y-96653608D01*
X260471167Y-96486003D01*
X260619924Y-96325833D01*
X260782183Y-96173360D01*
X260889021Y-96083179D01*
X260974850Y-96017686D01*
X261072389Y-95950360D01*
X261177998Y-95883412D01*
X261288036Y-95819055D01*
X261398863Y-95759500D01*
X261506839Y-95706958D01*
X261512844Y-95704215D01*
X261582804Y-95674342D01*
X261663985Y-95642956D01*
X261752017Y-95611536D01*
X261842529Y-95581562D01*
X261931151Y-95554511D01*
X262013514Y-95531864D01*
X262045400Y-95523971D01*
X262138625Y-95503203D01*
X262227599Y-95486543D01*
X262315603Y-95473652D01*
X262405919Y-95464195D01*
X262501828Y-95457832D01*
X262606610Y-95454228D01*
X262723545Y-95453044D01*
X262735219Y-95453045D01*
G04 #@! TD*
D14*
G04 #@! TO.C,REF\002A\002A*
X301961522Y-80888478D03*
X303800000Y-81650000D03*
X305842035Y-81650000D03*
X305842035Y-76450000D03*
X303800000Y-76450000D03*
X301961522Y-77211522D03*
X301200000Y-79050000D03*
X24357965Y-81650000D03*
X24357965Y-76450000D03*
X28238478Y-80888478D03*
X28238478Y-77211522D03*
X26400000Y-81650000D03*
X26400000Y-76450000D03*
X29000000Y-79050000D03*
X152000000Y-71850000D03*
X149600000Y-71850000D03*
X150800000Y-71850000D03*
X149600000Y-67250000D03*
X152000000Y-67250000D03*
X150800000Y-67250000D03*
X214300000Y-110050000D03*
X211900000Y-110050000D03*
X211900000Y-105450000D03*
X214300000Y-105450000D03*
X213100000Y-110050000D03*
X213100000Y-105450000D03*
X283850000Y-48133000D03*
X281450000Y-48150000D03*
X281450000Y-52750000D03*
X283850000Y-52750000D03*
X282650000Y-52750000D03*
X282650000Y-48150000D03*
X49426346Y-52076346D03*
X46173654Y-52076346D03*
X49426346Y-48823654D03*
X46173654Y-48823654D03*
X47800000Y-52750000D03*
X50100000Y-50450000D03*
X45500000Y-50450000D03*
X47800000Y-48150000D03*
D15*
X282650000Y-50450000D03*
X213100000Y-107750000D03*
X150800000Y-69550000D03*
D16*
X47800000Y-50450000D03*
G04 #@! TD*
D17*
G04 #@! TO.C,USB1*
X45157600Y-23237500D03*
X36517600Y-23237500D03*
D18*
X45157600Y-27417500D03*
X36517600Y-27417500D03*
D19*
X37947600Y-26887500D03*
X43727600Y-26887500D03*
G04 #@! TD*
M02*
