M48
;DRILL file {KiCad (5.0.0)} date 01/27/19 02:47:28
;FORMAT={-:-/ absolute / inch / decimal}
FMAT,2
INCH,TZ
T1C0.0256
T2C0.0670
T3C0.0689
T4C0.1200
T5C0.1570
%
G90
G05
M72
T1
X1.494Y-1.0586
X1.7216Y-1.0586
T2
X11.6562Y-2.175
X11.6562Y-2.575
T3
X7.1437Y-4.25
X7.5438Y-4.25
X6.675Y-2.
X7.075Y-2.
X1.3313Y-2.75
X1.7312Y-2.75
X3.0187Y-4.25
X3.4187Y-4.25
X3.8625Y-2.75
X4.2625Y-2.75
X3.1125Y-4.25
X3.5125Y-4.25
X2.55Y-1.25
X2.95Y-1.25
X2.925Y-2.
X3.325Y-2.
X7.2375Y-3.5
X7.6375Y-3.5
X7.8Y-1.25
X8.2Y-1.25
X9.5812Y-4.25
X9.9812Y-4.25
X10.5187Y-3.5
X10.9187Y-3.5
X11.3625Y-4.25
X11.7625Y-4.25
X2.3625Y-2.75
X2.7625Y-2.75
X3.4875Y-3.5
X3.8875Y-3.5
X1.1438Y-4.25
X1.5437Y-4.25
X5.925Y-2.
X6.325Y-2.
X1.2375Y-4.25
X1.6375Y-4.25
X4.8Y-1.25
X5.2Y-1.25
X8.3625Y-2.75
X8.7625Y-2.75
X6.3Y-1.25
X6.7Y-1.25
X7.425Y-2.
X7.825Y-2.
X1.5188Y-3.5
X1.9187Y-3.5
X8.925Y-2.
X9.325Y-2.
X10.425Y-2.
X10.825Y-2.
X11.55Y-3.5
X11.95Y-3.5
X11.175Y-1.25
X11.575Y-1.25
X7.05Y-1.25
X7.45Y-1.25
X2.0812Y-4.25
X2.4812Y-4.25
X9.4875Y-4.25
X9.8875Y-4.25
X9.675Y-2.
X10.075Y-2.
X6.1125Y-2.75
X6.5125Y-2.75
X10.5187Y-4.25
X10.9187Y-4.25
X7.6125Y-2.75
X8.0125Y-2.75
X10.6125Y-2.75
X11.0125Y-2.75
X5.8312Y-4.25
X6.2313Y-4.25
X10.8Y-1.25
X11.2Y-1.25
X8.7375Y-3.5
X9.1375Y-3.5
X4.9875Y-3.5
X5.3875Y-3.5
X8.6437Y-4.25
X9.0437Y-4.25
X10.05Y-1.25
X10.45Y-1.25
X4.05Y-1.25
X4.45Y-1.25
X4.425Y-2.
X4.825Y-2.
X7.9875Y-3.5
X8.3875Y-3.5
X2.7375Y-3.5
X3.1375Y-3.5
X1.1438Y-2.75
X1.5437Y-2.75
X5.3625Y-2.75
X5.7625Y-2.75
X11.55Y-1.25
X11.95Y-1.25
X10.425Y-4.25
X10.825Y-4.25
X8.55Y-1.25
X8.95Y-1.25
X1.2375Y-2.
X1.6375Y-2.
X2.175Y-2.
X2.575Y-2.
X9.1125Y-2.75
X9.5125Y-2.75
X4.6125Y-2.75
X5.0125Y-2.75
X6.8625Y-2.75
X7.2625Y-2.75
X1.9875Y-3.5
X2.3875Y-3.5
X5.7375Y-3.5
X6.1375Y-3.5
X6.3Y-4.25
X6.7Y-4.25
X4.2375Y-3.5
X4.6375Y-3.5
X5.55Y-1.25
X5.95Y-1.25
X10.8937Y-3.5
X11.2937Y-3.5
X11.3625Y-2.
X11.7625Y-2.
X5.175Y-2.
X5.575Y-2.
X3.675Y-2.
X4.075Y-2.
X9.4875Y-3.5
X9.8875Y-3.5
X8.175Y-2.
X8.575Y-2.
X2.175Y-4.25
X2.575Y-4.25
X4.3312Y-4.25
X4.7313Y-4.25
X1.05Y-1.25
X1.45Y-1.25
X11.0812Y-2.75
X11.4812Y-2.75
X1.8Y-1.25
X2.2Y-1.25
X1.1438Y-3.5
X1.5437Y-3.5
X11.4562Y-4.25
X11.8562Y-4.25
X9.3Y-1.25
X9.7Y-1.25
X5.6437Y-4.25
X6.0438Y-4.25
X6.4875Y-3.5
X6.8875Y-3.5
X9.8625Y-2.75
X10.2625Y-2.75
X3.1125Y-2.75
X3.5125Y-2.75
X3.3Y-1.25
X3.7Y-1.25
T4
X4.0628Y-4.525
X7.9997Y-4.525
X11.9313Y-1.905
X11.9313Y-2.845
X4.25Y-4.525
X8.75Y-4.525
X10.6237Y-3.225
X11.5637Y-3.225
X4.0613Y-4.525
X5.0012Y-4.525
X10.8112Y-2.475
X11.7512Y-2.475
X6.8738Y-4.525
X7.8137Y-4.525
X1.2488Y-3.225
X2.1887Y-3.225
X10.905Y-0.975
X11.845Y-0.975
T5
X2.9375Y-3.5
X1.3438Y-2.75
X5.5625Y-2.75
X11.75Y-1.25
X10.625Y-4.25
X8.75Y-1.25
X1.4375Y-2.
X2.375Y-2.
X9.3125Y-2.75
X4.8125Y-2.75
X7.0625Y-2.75
X2.1875Y-3.5
X5.9375Y-3.5
X4.25Y-3.925
X6.5Y-4.25
X8.75Y-3.925
X4.4375Y-3.5
X5.75Y-1.25
X10.6237Y-3.825
X11.0938Y-3.5
X11.5637Y-3.825
X11.5625Y-2.
X5.375Y-2.
X3.875Y-2.
X9.6875Y-3.5
X8.375Y-2.
X2.375Y-4.25
X4.0613Y-3.925
X4.5312Y-4.25
X5.0012Y-3.925
X1.25Y-1.25
X10.8112Y-3.075
X11.2812Y-2.75
X11.7512Y-3.075
X2.Y-1.25
X1.3438Y-3.5
X11.6562Y-4.25
X9.5Y-1.25
X5.8438Y-4.25
X6.6875Y-3.5
X10.0625Y-2.75
X3.3125Y-2.75
X3.5Y-1.25
X6.8738Y-3.925
X7.3438Y-4.25
X7.8137Y-3.925
X6.875Y-2.
X1.5312Y-2.75
X3.2188Y-4.25
X4.0625Y-2.75
X3.3125Y-4.25
X2.75Y-1.25
X3.125Y-2.
X7.4375Y-3.5
X8.Y-1.25
X9.7812Y-4.25
X10.7188Y-3.5
X11.5625Y-4.25
X2.5625Y-2.75
X3.6875Y-3.5
X1.3438Y-4.25
X6.125Y-2.
X1.4375Y-4.25
X5.Y-1.25
X8.5625Y-2.75
X6.5Y-1.25
X7.625Y-2.
X1.2488Y-3.825
X1.7188Y-3.5
X2.1887Y-3.825
X9.125Y-2.
X10.625Y-2.
X11.75Y-3.5
X10.905Y-1.575
X11.375Y-1.25
X11.845Y-1.575
X7.25Y-1.25
X2.2812Y-4.25
X9.6875Y-4.25
X9.875Y-2.
X6.3125Y-2.75
X10.7188Y-4.25
X7.8125Y-2.75
X10.8125Y-2.75
X4.0628Y-3.925
X6.0312Y-4.25
X7.9997Y-3.925
X11.Y-1.25
X8.9375Y-3.5
X5.1875Y-3.5
X8.8438Y-4.25
X10.25Y-1.25
X11.3312Y-1.905
X11.3312Y-2.845
X11.6562Y-2.375
X4.25Y-1.25
X4.625Y-2.
X8.1875Y-3.5
T0
M30
