G04 #@! TF.GenerationSoftware,KiCad,Pcbnew,(5.0.2)-1*
G04 #@! TF.CreationDate,2019-03-07T01:35:03-08:00*
G04 #@! TF.ProjectId,Voyager60,566f7961-6765-4723-9630-2e6b69636164,rev?*
G04 #@! TF.SameCoordinates,Original*
G04 #@! TF.FileFunction,Soldermask,Top*
G04 #@! TF.FilePolarity,Negative*
%FSLAX46Y46*%
G04 Gerber Fmt 4.6, Leading zero omitted, Abs format (unit mm)*
G04 Created by KiCad (PCBNEW (5.0.2)-1) date 3/7/2019 1:35:03 AM*
%MOMM*%
%LPD*%
G01*
G04 APERTURE LIST*
%ADD10C,2.501900*%
%ADD11C,0.010000*%
%ADD12C,0.100000*%
G04 APERTURE END LIST*
D10*
G04 #@! TO.C,REF\002A\002A*
X22600000Y-81700950D02*
X26400000Y-81700950D01*
X26400000Y-81700950D02*
G75*
G03X29050950Y-79050000I0J2650950D01*
G01*
X29050950Y-79050000D02*
G75*
G03X26400000Y-76399050I-2650950J0D01*
G01*
X22600000Y-76399050D02*
X26400000Y-76399050D01*
X303800000Y-81700950D02*
X307650000Y-81700950D01*
X303800000Y-81700950D02*
G75*
G02X301149050Y-79050000I0J2650950D01*
G01*
X301149050Y-79050000D02*
G75*
G02X303800000Y-76399050I2650950J0D01*
G01*
X303800000Y-76399050D02*
X307600000Y-76399050D01*
D11*
G04 #@! TO.C,G\002A\002A\002A*
G36*
X262921750Y-97345500D02*
X262516938Y-97345500D01*
X262516938Y-96940688D01*
X262921750Y-96940688D01*
X262921750Y-97345500D01*
X262921750Y-97345500D01*
G37*
X262921750Y-97345500D02*
X262516938Y-97345500D01*
X262516938Y-96940688D01*
X262921750Y-96940688D01*
X262921750Y-97345500D01*
G36*
X263326563Y-98131313D02*
X262921750Y-98131313D01*
X262921750Y-97750313D01*
X263326563Y-97750313D01*
X263326563Y-98131313D01*
X263326563Y-98131313D01*
G37*
X263326563Y-98131313D02*
X262921750Y-98131313D01*
X262921750Y-97750313D01*
X263326563Y-97750313D01*
X263326563Y-98131313D01*
G36*
X262516938Y-98131313D02*
X262135938Y-98131313D01*
X262135938Y-97750313D01*
X262516938Y-97750313D01*
X262516938Y-98131313D01*
X262516938Y-98131313D01*
G37*
X262516938Y-98131313D02*
X262135938Y-98131313D01*
X262135938Y-97750313D01*
X262516938Y-97750313D01*
X262516938Y-98131313D01*
G36*
X263707563Y-98940938D02*
X263326563Y-98940938D01*
X263326563Y-98536125D01*
X263707563Y-98536125D01*
X263707563Y-98940938D01*
X263707563Y-98940938D01*
G37*
X263707563Y-98940938D02*
X263326563Y-98940938D01*
X263326563Y-98536125D01*
X263707563Y-98536125D01*
X263707563Y-98940938D01*
G36*
X262921750Y-98940938D02*
X262516938Y-98940938D01*
X262516938Y-98536125D01*
X262921750Y-98536125D01*
X262921750Y-98940938D01*
X262921750Y-98940938D01*
G37*
X262921750Y-98940938D02*
X262516938Y-98940938D01*
X262516938Y-98536125D01*
X262921750Y-98536125D01*
X262921750Y-98940938D01*
G36*
X262135938Y-98940938D02*
X261731125Y-98940938D01*
X261731125Y-98536125D01*
X262135938Y-98536125D01*
X262135938Y-98940938D01*
X262135938Y-98940938D01*
G37*
X262135938Y-98940938D02*
X261731125Y-98940938D01*
X261731125Y-98536125D01*
X262135938Y-98536125D01*
X262135938Y-98940938D01*
G36*
X264112375Y-99726750D02*
X263707563Y-99726750D01*
X263707563Y-99321938D01*
X264112375Y-99321938D01*
X264112375Y-99726750D01*
X264112375Y-99726750D01*
G37*
X264112375Y-99726750D02*
X263707563Y-99726750D01*
X263707563Y-99321938D01*
X264112375Y-99321938D01*
X264112375Y-99726750D01*
G36*
X261731125Y-99726750D02*
X261326313Y-99726750D01*
X261326313Y-99321938D01*
X261731125Y-99321938D01*
X261731125Y-99726750D01*
X261731125Y-99726750D01*
G37*
X261731125Y-99726750D02*
X261326313Y-99726750D01*
X261326313Y-99321938D01*
X261731125Y-99321938D01*
X261731125Y-99726750D01*
G36*
X262735219Y-95453045D02*
X262859337Y-95454415D01*
X262971049Y-95458572D01*
X263073642Y-95465919D01*
X263170406Y-95476860D01*
X263264628Y-95491798D01*
X263359597Y-95511137D01*
X263458601Y-95535281D01*
X263503880Y-95547418D01*
X263712427Y-95612656D01*
X263914515Y-95691992D01*
X264109378Y-95785028D01*
X264296249Y-95891368D01*
X264474364Y-96010616D01*
X264626510Y-96128617D01*
X264784178Y-96269342D01*
X264931515Y-96420787D01*
X265067836Y-96581885D01*
X265192458Y-96751567D01*
X265304697Y-96928766D01*
X265403870Y-97112416D01*
X265489292Y-97301447D01*
X265560280Y-97494793D01*
X265609034Y-97662803D01*
X265642105Y-97802789D01*
X265667465Y-97934725D01*
X265685857Y-98063997D01*
X265698025Y-98195993D01*
X265704711Y-98336100D01*
X265705364Y-98361500D01*
X265702645Y-98579797D01*
X265684450Y-98794580D01*
X265650785Y-99005821D01*
X265601656Y-99213489D01*
X265537069Y-99417555D01*
X265472872Y-99581487D01*
X265444789Y-99646752D01*
X265420727Y-99700910D01*
X265398858Y-99747613D01*
X265377357Y-99790513D01*
X265354396Y-99833263D01*
X265328150Y-99879515D01*
X265299025Y-99929156D01*
X265179806Y-100115427D01*
X265049702Y-100290153D01*
X264908579Y-100453465D01*
X264756305Y-100605496D01*
X264592747Y-100746380D01*
X264417774Y-100876248D01*
X264235406Y-100992775D01*
X264182577Y-101023744D01*
X264136664Y-101049721D01*
X264094015Y-101072531D01*
X264050978Y-101094001D01*
X264003901Y-101115957D01*
X263949131Y-101140225D01*
X263887737Y-101166622D01*
X263791504Y-101206169D01*
X263702786Y-101239208D01*
X263615672Y-101267695D01*
X263524248Y-101293589D01*
X263441656Y-101314322D01*
X263277140Y-101349876D01*
X263120045Y-101375553D01*
X262965817Y-101391893D01*
X262809899Y-101399436D01*
X262719344Y-101400013D01*
X262668125Y-101399498D01*
X262620004Y-101398793D01*
X262578124Y-101397960D01*
X262545628Y-101397063D01*
X262525660Y-101396165D01*
X262524875Y-101396109D01*
X262308701Y-101372157D01*
X262095944Y-101333170D01*
X261887463Y-101279467D01*
X261684118Y-101211363D01*
X261486766Y-101129176D01*
X261296268Y-101033225D01*
X261113482Y-100923826D01*
X260962526Y-100818796D01*
X260789599Y-100680449D01*
X260628915Y-100532088D01*
X260480701Y-100374039D01*
X260345179Y-100206632D01*
X260222574Y-100030194D01*
X260113111Y-99845052D01*
X260017013Y-99651535D01*
X259934506Y-99449971D01*
X259865813Y-99240688D01*
X259853668Y-99197630D01*
X259827302Y-99095835D01*
X259805917Y-98999511D01*
X259789109Y-98905367D01*
X259776475Y-98810117D01*
X259767610Y-98710470D01*
X259762112Y-98603140D01*
X259759576Y-98484836D01*
X259759295Y-98428969D01*
X259759970Y-98373608D01*
X260292044Y-98373608D01*
X260292147Y-98453746D01*
X260293813Y-98533410D01*
X260297009Y-98608537D01*
X260301706Y-98675060D01*
X260305426Y-98710750D01*
X260337300Y-98908048D01*
X260383951Y-99099663D01*
X260445201Y-99285222D01*
X260520869Y-99464349D01*
X260610777Y-99636669D01*
X260714744Y-99801809D01*
X260832591Y-99959393D01*
X260964138Y-100109047D01*
X260986474Y-100132260D01*
X261120708Y-100259334D01*
X261266410Y-100377270D01*
X261420881Y-100484090D01*
X261581419Y-100577816D01*
X261627208Y-100601504D01*
X261701616Y-100638153D01*
X261766857Y-100668372D01*
X261827354Y-100693940D01*
X261887528Y-100716634D01*
X261951801Y-100738233D01*
X262016875Y-100758227D01*
X262206088Y-100807640D01*
X262391839Y-100842091D01*
X262575577Y-100861714D01*
X262758753Y-100866642D01*
X262942814Y-100857011D01*
X263009356Y-100850031D01*
X263196688Y-100821087D01*
X263376269Y-100779278D01*
X263550607Y-100723854D01*
X263722209Y-100654064D01*
X263819166Y-100607866D01*
X263989798Y-100514447D01*
X264149214Y-100410712D01*
X264298172Y-100295974D01*
X264437429Y-100169550D01*
X264567744Y-100030754D01*
X264689874Y-99878903D01*
X264798142Y-99723259D01*
X264823268Y-99682068D01*
X264852591Y-99629940D01*
X264884291Y-99570496D01*
X264916549Y-99507356D01*
X264947543Y-99444140D01*
X264975456Y-99384467D01*
X264998465Y-99331957D01*
X265011903Y-99298125D01*
X265074770Y-99106584D01*
X265122166Y-98913845D01*
X265154050Y-98720450D01*
X265170380Y-98526940D01*
X265171118Y-98333857D01*
X265156222Y-98141742D01*
X265125652Y-97951136D01*
X265115849Y-97905094D01*
X265082200Y-97768801D01*
X265043892Y-97642618D01*
X264998954Y-97521007D01*
X264945413Y-97398432D01*
X264907754Y-97320958D01*
X264814049Y-97152110D01*
X264707224Y-96991673D01*
X264588048Y-96840368D01*
X264457287Y-96698914D01*
X264315710Y-96568031D01*
X264164084Y-96448440D01*
X264003177Y-96340860D01*
X263833757Y-96246011D01*
X263689575Y-96178480D01*
X263517947Y-96112085D01*
X263345393Y-96060087D01*
X263169906Y-96022078D01*
X262989476Y-95997651D01*
X262802095Y-95986397D01*
X262739188Y-95985507D01*
X262541093Y-95991877D01*
X262349465Y-96012522D01*
X262163531Y-96047673D01*
X261982515Y-96097567D01*
X261805644Y-96162435D01*
X261632144Y-96242513D01*
X261461241Y-96338035D01*
X261360544Y-96402244D01*
X261221111Y-96503772D01*
X261086913Y-96618278D01*
X260959591Y-96743839D01*
X260840785Y-96878531D01*
X260732136Y-97020431D01*
X260635285Y-97167615D01*
X260551872Y-97318161D01*
X260517076Y-97391080D01*
X260455673Y-97535939D01*
X260405442Y-97675178D01*
X260365185Y-97813126D01*
X260333706Y-97954114D01*
X260309806Y-98102471D01*
X260301405Y-98171000D01*
X260296642Y-98228170D01*
X260293532Y-98297061D01*
X260292044Y-98373608D01*
X259759970Y-98373608D01*
X259761040Y-98285973D01*
X259766914Y-98155106D01*
X259777488Y-98033025D01*
X259793335Y-97916385D01*
X259815027Y-97801844D01*
X259843137Y-97686059D01*
X259878236Y-97565687D01*
X259920897Y-97437384D01*
X259936591Y-97393125D01*
X260014976Y-97198406D01*
X260107816Y-97010072D01*
X260214922Y-96828385D01*
X260336102Y-96653608D01*
X260471167Y-96486003D01*
X260619924Y-96325833D01*
X260782183Y-96173360D01*
X260889021Y-96083179D01*
X260974850Y-96017686D01*
X261072389Y-95950360D01*
X261177998Y-95883412D01*
X261288036Y-95819055D01*
X261398863Y-95759500D01*
X261506839Y-95706958D01*
X261512844Y-95704215D01*
X261582804Y-95674342D01*
X261663985Y-95642956D01*
X261752017Y-95611536D01*
X261842529Y-95581562D01*
X261931151Y-95554511D01*
X262013514Y-95531864D01*
X262045400Y-95523971D01*
X262138625Y-95503203D01*
X262227599Y-95486543D01*
X262315603Y-95473652D01*
X262405919Y-95464195D01*
X262501828Y-95457832D01*
X262606610Y-95454228D01*
X262723545Y-95453044D01*
X262735219Y-95453045D01*
X262735219Y-95453045D01*
G37*
X262735219Y-95453045D02*
X262859337Y-95454415D01*
X262971049Y-95458572D01*
X263073642Y-95465919D01*
X263170406Y-95476860D01*
X263264628Y-95491798D01*
X263359597Y-95511137D01*
X263458601Y-95535281D01*
X263503880Y-95547418D01*
X263712427Y-95612656D01*
X263914515Y-95691992D01*
X264109378Y-95785028D01*
X264296249Y-95891368D01*
X264474364Y-96010616D01*
X264626510Y-96128617D01*
X264784178Y-96269342D01*
X264931515Y-96420787D01*
X265067836Y-96581885D01*
X265192458Y-96751567D01*
X265304697Y-96928766D01*
X265403870Y-97112416D01*
X265489292Y-97301447D01*
X265560280Y-97494793D01*
X265609034Y-97662803D01*
X265642105Y-97802789D01*
X265667465Y-97934725D01*
X265685857Y-98063997D01*
X265698025Y-98195993D01*
X265704711Y-98336100D01*
X265705364Y-98361500D01*
X265702645Y-98579797D01*
X265684450Y-98794580D01*
X265650785Y-99005821D01*
X265601656Y-99213489D01*
X265537069Y-99417555D01*
X265472872Y-99581487D01*
X265444789Y-99646752D01*
X265420727Y-99700910D01*
X265398858Y-99747613D01*
X265377357Y-99790513D01*
X265354396Y-99833263D01*
X265328150Y-99879515D01*
X265299025Y-99929156D01*
X265179806Y-100115427D01*
X265049702Y-100290153D01*
X264908579Y-100453465D01*
X264756305Y-100605496D01*
X264592747Y-100746380D01*
X264417774Y-100876248D01*
X264235406Y-100992775D01*
X264182577Y-101023744D01*
X264136664Y-101049721D01*
X264094015Y-101072531D01*
X264050978Y-101094001D01*
X264003901Y-101115957D01*
X263949131Y-101140225D01*
X263887737Y-101166622D01*
X263791504Y-101206169D01*
X263702786Y-101239208D01*
X263615672Y-101267695D01*
X263524248Y-101293589D01*
X263441656Y-101314322D01*
X263277140Y-101349876D01*
X263120045Y-101375553D01*
X262965817Y-101391893D01*
X262809899Y-101399436D01*
X262719344Y-101400013D01*
X262668125Y-101399498D01*
X262620004Y-101398793D01*
X262578124Y-101397960D01*
X262545628Y-101397063D01*
X262525660Y-101396165D01*
X262524875Y-101396109D01*
X262308701Y-101372157D01*
X262095944Y-101333170D01*
X261887463Y-101279467D01*
X261684118Y-101211363D01*
X261486766Y-101129176D01*
X261296268Y-101033225D01*
X261113482Y-100923826D01*
X260962526Y-100818796D01*
X260789599Y-100680449D01*
X260628915Y-100532088D01*
X260480701Y-100374039D01*
X260345179Y-100206632D01*
X260222574Y-100030194D01*
X260113111Y-99845052D01*
X260017013Y-99651535D01*
X259934506Y-99449971D01*
X259865813Y-99240688D01*
X259853668Y-99197630D01*
X259827302Y-99095835D01*
X259805917Y-98999511D01*
X259789109Y-98905367D01*
X259776475Y-98810117D01*
X259767610Y-98710470D01*
X259762112Y-98603140D01*
X259759576Y-98484836D01*
X259759295Y-98428969D01*
X259759970Y-98373608D01*
X260292044Y-98373608D01*
X260292147Y-98453746D01*
X260293813Y-98533410D01*
X260297009Y-98608537D01*
X260301706Y-98675060D01*
X260305426Y-98710750D01*
X260337300Y-98908048D01*
X260383951Y-99099663D01*
X260445201Y-99285222D01*
X260520869Y-99464349D01*
X260610777Y-99636669D01*
X260714744Y-99801809D01*
X260832591Y-99959393D01*
X260964138Y-100109047D01*
X260986474Y-100132260D01*
X261120708Y-100259334D01*
X261266410Y-100377270D01*
X261420881Y-100484090D01*
X261581419Y-100577816D01*
X261627208Y-100601504D01*
X261701616Y-100638153D01*
X261766857Y-100668372D01*
X261827354Y-100693940D01*
X261887528Y-100716634D01*
X261951801Y-100738233D01*
X262016875Y-100758227D01*
X262206088Y-100807640D01*
X262391839Y-100842091D01*
X262575577Y-100861714D01*
X262758753Y-100866642D01*
X262942814Y-100857011D01*
X263009356Y-100850031D01*
X263196688Y-100821087D01*
X263376269Y-100779278D01*
X263550607Y-100723854D01*
X263722209Y-100654064D01*
X263819166Y-100607866D01*
X263989798Y-100514447D01*
X264149214Y-100410712D01*
X264298172Y-100295974D01*
X264437429Y-100169550D01*
X264567744Y-100030754D01*
X264689874Y-99878903D01*
X264798142Y-99723259D01*
X264823268Y-99682068D01*
X264852591Y-99629940D01*
X264884291Y-99570496D01*
X264916549Y-99507356D01*
X264947543Y-99444140D01*
X264975456Y-99384467D01*
X264998465Y-99331957D01*
X265011903Y-99298125D01*
X265074770Y-99106584D01*
X265122166Y-98913845D01*
X265154050Y-98720450D01*
X265170380Y-98526940D01*
X265171118Y-98333857D01*
X265156222Y-98141742D01*
X265125652Y-97951136D01*
X265115849Y-97905094D01*
X265082200Y-97768801D01*
X265043892Y-97642618D01*
X264998954Y-97521007D01*
X264945413Y-97398432D01*
X264907754Y-97320958D01*
X264814049Y-97152110D01*
X264707224Y-96991673D01*
X264588048Y-96840368D01*
X264457287Y-96698914D01*
X264315710Y-96568031D01*
X264164084Y-96448440D01*
X264003177Y-96340860D01*
X263833757Y-96246011D01*
X263689575Y-96178480D01*
X263517947Y-96112085D01*
X263345393Y-96060087D01*
X263169906Y-96022078D01*
X262989476Y-95997651D01*
X262802095Y-95986397D01*
X262739188Y-95985507D01*
X262541093Y-95991877D01*
X262349465Y-96012522D01*
X262163531Y-96047673D01*
X261982515Y-96097567D01*
X261805644Y-96162435D01*
X261632144Y-96242513D01*
X261461241Y-96338035D01*
X261360544Y-96402244D01*
X261221111Y-96503772D01*
X261086913Y-96618278D01*
X260959591Y-96743839D01*
X260840785Y-96878531D01*
X260732136Y-97020431D01*
X260635285Y-97167615D01*
X260551872Y-97318161D01*
X260517076Y-97391080D01*
X260455673Y-97535939D01*
X260405442Y-97675178D01*
X260365185Y-97813126D01*
X260333706Y-97954114D01*
X260309806Y-98102471D01*
X260301405Y-98171000D01*
X260296642Y-98228170D01*
X260293532Y-98297061D01*
X260292044Y-98373608D01*
X259759970Y-98373608D01*
X259761040Y-98285973D01*
X259766914Y-98155106D01*
X259777488Y-98033025D01*
X259793335Y-97916385D01*
X259815027Y-97801844D01*
X259843137Y-97686059D01*
X259878236Y-97565687D01*
X259920897Y-97437384D01*
X259936591Y-97393125D01*
X260014976Y-97198406D01*
X260107816Y-97010072D01*
X260214922Y-96828385D01*
X260336102Y-96653608D01*
X260471167Y-96486003D01*
X260619924Y-96325833D01*
X260782183Y-96173360D01*
X260889021Y-96083179D01*
X260974850Y-96017686D01*
X261072389Y-95950360D01*
X261177998Y-95883412D01*
X261288036Y-95819055D01*
X261398863Y-95759500D01*
X261506839Y-95706958D01*
X261512844Y-95704215D01*
X261582804Y-95674342D01*
X261663985Y-95642956D01*
X261752017Y-95611536D01*
X261842529Y-95581562D01*
X261931151Y-95554511D01*
X262013514Y-95531864D01*
X262045400Y-95523971D01*
X262138625Y-95503203D01*
X262227599Y-95486543D01*
X262315603Y-95473652D01*
X262405919Y-95464195D01*
X262501828Y-95457832D01*
X262606610Y-95454228D01*
X262723545Y-95453044D01*
X262735219Y-95453045D01*
D12*
G36*
X214179284Y-104192073D02*
X214573741Y-104355463D01*
X214852664Y-104470996D01*
X215454606Y-104873201D01*
X215458692Y-104875931D01*
X215974069Y-105391308D01*
X215974071Y-105391311D01*
X216379004Y-105997336D01*
X216442239Y-106150000D01*
X216657927Y-106670716D01*
X216800120Y-107385569D01*
X216800120Y-108114431D01*
X216657927Y-108829284D01*
X216494537Y-109223741D01*
X216379004Y-109502664D01*
X216311443Y-109603776D01*
X215974069Y-110108692D01*
X215458692Y-110624069D01*
X215458689Y-110624071D01*
X214852664Y-111029004D01*
X214573741Y-111144537D01*
X214179284Y-111307927D01*
X213464431Y-111450120D01*
X212735569Y-111450120D01*
X212020716Y-111307927D01*
X211626259Y-111144537D01*
X211347336Y-111029004D01*
X210741311Y-110624071D01*
X210741308Y-110624069D01*
X210225931Y-110108692D01*
X209888557Y-109603776D01*
X209820996Y-109502664D01*
X209705463Y-109223741D01*
X209542073Y-108829284D01*
X209399880Y-108114431D01*
X209399880Y-107385569D01*
X209542073Y-106670716D01*
X209757761Y-106150000D01*
X209820996Y-105997336D01*
X210225929Y-105391311D01*
X210225931Y-105391308D01*
X210741308Y-104875931D01*
X210745394Y-104873201D01*
X211347336Y-104470996D01*
X211626259Y-104355463D01*
X212020716Y-104192073D01*
X212735569Y-104049880D01*
X213464431Y-104049880D01*
X214179284Y-104192073D01*
X214179284Y-104192073D01*
G37*
G36*
X306046218Y-80976900D02*
X306173609Y-81029668D01*
X306267886Y-81092661D01*
X306288260Y-81106275D01*
X306385760Y-81203775D01*
X306462367Y-81318426D01*
X306515135Y-81445817D01*
X306542035Y-81581055D01*
X306542035Y-81718945D01*
X306515135Y-81854183D01*
X306462367Y-81981574D01*
X306385760Y-82096225D01*
X306288260Y-82193725D01*
X306173609Y-82270332D01*
X306046218Y-82323100D01*
X305910980Y-82350000D01*
X305773090Y-82350000D01*
X305637852Y-82323100D01*
X305510461Y-82270332D01*
X305395810Y-82193725D01*
X305298310Y-82096225D01*
X305221703Y-81981574D01*
X305168935Y-81854183D01*
X305142035Y-81718945D01*
X305142035Y-81581055D01*
X305168935Y-81445817D01*
X305221703Y-81318426D01*
X305298310Y-81203775D01*
X305395810Y-81106275D01*
X305416185Y-81092661D01*
X305510461Y-81029668D01*
X305637852Y-80976900D01*
X305773090Y-80950000D01*
X305910980Y-80950000D01*
X306046218Y-80976900D01*
X306046218Y-80976900D01*
G37*
G36*
X304004183Y-80976900D02*
X304131574Y-81029668D01*
X304225851Y-81092661D01*
X304246225Y-81106275D01*
X304343725Y-81203775D01*
X304420332Y-81318426D01*
X304473100Y-81445817D01*
X304500000Y-81581055D01*
X304500000Y-81718945D01*
X304473100Y-81854183D01*
X304420332Y-81981574D01*
X304343725Y-82096225D01*
X304246225Y-82193725D01*
X304131574Y-82270332D01*
X304004183Y-82323100D01*
X303868945Y-82350000D01*
X303731055Y-82350000D01*
X303595817Y-82323100D01*
X303468426Y-82270332D01*
X303353775Y-82193725D01*
X303256275Y-82096225D01*
X303179668Y-81981574D01*
X303126900Y-81854183D01*
X303100000Y-81718945D01*
X303100000Y-81581055D01*
X303126900Y-81445817D01*
X303179668Y-81318426D01*
X303256275Y-81203775D01*
X303353775Y-81106275D01*
X303374150Y-81092661D01*
X303468426Y-81029668D01*
X303595817Y-80976900D01*
X303731055Y-80950000D01*
X303868945Y-80950000D01*
X304004183Y-80976900D01*
X304004183Y-80976900D01*
G37*
G36*
X24562148Y-80976900D02*
X24689539Y-81029668D01*
X24783816Y-81092661D01*
X24804190Y-81106275D01*
X24901690Y-81203775D01*
X24978297Y-81318426D01*
X25031065Y-81445817D01*
X25057965Y-81581055D01*
X25057965Y-81718945D01*
X25031065Y-81854183D01*
X24978297Y-81981574D01*
X24901690Y-82096225D01*
X24804190Y-82193725D01*
X24689539Y-82270332D01*
X24562148Y-82323100D01*
X24426910Y-82350000D01*
X24289020Y-82350000D01*
X24153782Y-82323100D01*
X24026391Y-82270332D01*
X23911740Y-82193725D01*
X23814240Y-82096225D01*
X23737633Y-81981574D01*
X23684865Y-81854183D01*
X23657965Y-81718945D01*
X23657965Y-81581055D01*
X23684865Y-81445817D01*
X23737633Y-81318426D01*
X23814240Y-81203775D01*
X23911740Y-81106275D01*
X23932115Y-81092661D01*
X24026391Y-81029668D01*
X24153782Y-80976900D01*
X24289020Y-80950000D01*
X24426910Y-80950000D01*
X24562148Y-80976900D01*
X24562148Y-80976900D01*
G37*
G36*
X26604183Y-80976900D02*
X26731574Y-81029668D01*
X26825851Y-81092661D01*
X26846225Y-81106275D01*
X26943725Y-81203775D01*
X27020332Y-81318426D01*
X27073100Y-81445817D01*
X27100000Y-81581055D01*
X27100000Y-81718945D01*
X27073100Y-81854183D01*
X27020332Y-81981574D01*
X26943725Y-82096225D01*
X26846225Y-82193725D01*
X26731574Y-82270332D01*
X26604183Y-82323100D01*
X26468945Y-82350000D01*
X26331055Y-82350000D01*
X26195817Y-82323100D01*
X26068426Y-82270332D01*
X25953775Y-82193725D01*
X25856275Y-82096225D01*
X25779668Y-81981574D01*
X25726900Y-81854183D01*
X25700000Y-81718945D01*
X25700000Y-81581055D01*
X25726900Y-81445817D01*
X25779668Y-81318426D01*
X25856275Y-81203775D01*
X25953775Y-81106275D01*
X25974150Y-81092661D01*
X26068426Y-81029668D01*
X26195817Y-80976900D01*
X26331055Y-80950000D01*
X26468945Y-80950000D01*
X26604183Y-80976900D01*
X26604183Y-80976900D01*
G37*
G36*
X28442661Y-80215378D02*
X28570052Y-80268146D01*
X28684703Y-80344753D01*
X28782203Y-80442253D01*
X28858810Y-80556904D01*
X28911578Y-80684295D01*
X28938478Y-80819533D01*
X28938478Y-80957423D01*
X28911578Y-81092661D01*
X28865552Y-81203775D01*
X28858810Y-81220052D01*
X28782204Y-81334702D01*
X28684702Y-81432204D01*
X28664327Y-81445818D01*
X28570052Y-81508810D01*
X28442661Y-81561578D01*
X28307423Y-81588478D01*
X28169533Y-81588478D01*
X28034295Y-81561578D01*
X27906904Y-81508810D01*
X27812629Y-81445818D01*
X27792254Y-81432204D01*
X27694752Y-81334702D01*
X27618146Y-81220052D01*
X27611404Y-81203775D01*
X27565378Y-81092661D01*
X27538478Y-80957423D01*
X27538478Y-80819533D01*
X27565378Y-80684295D01*
X27618146Y-80556904D01*
X27694753Y-80442253D01*
X27792253Y-80344753D01*
X27906904Y-80268146D01*
X28034295Y-80215378D01*
X28169533Y-80188478D01*
X28307423Y-80188478D01*
X28442661Y-80215378D01*
X28442661Y-80215378D01*
G37*
G36*
X302165705Y-80215378D02*
X302293096Y-80268146D01*
X302407747Y-80344753D01*
X302505247Y-80442253D01*
X302581854Y-80556904D01*
X302634622Y-80684295D01*
X302661522Y-80819533D01*
X302661522Y-80957423D01*
X302634622Y-81092661D01*
X302588596Y-81203775D01*
X302581854Y-81220052D01*
X302505248Y-81334702D01*
X302407746Y-81432204D01*
X302387371Y-81445818D01*
X302293096Y-81508810D01*
X302165705Y-81561578D01*
X302030467Y-81588478D01*
X301892577Y-81588478D01*
X301757339Y-81561578D01*
X301629948Y-81508810D01*
X301535673Y-81445818D01*
X301515298Y-81432204D01*
X301417796Y-81334702D01*
X301341190Y-81220052D01*
X301334448Y-81203775D01*
X301288422Y-81092661D01*
X301261522Y-80957423D01*
X301261522Y-80819533D01*
X301288422Y-80684295D01*
X301341190Y-80556904D01*
X301417797Y-80442253D01*
X301515297Y-80344753D01*
X301629948Y-80268146D01*
X301757339Y-80215378D01*
X301892577Y-80188478D01*
X302030467Y-80188478D01*
X302165705Y-80215378D01*
X302165705Y-80215378D01*
G37*
G36*
X29204183Y-78376900D02*
X29331574Y-78429668D01*
X29446225Y-78506275D01*
X29543725Y-78603775D01*
X29620332Y-78718426D01*
X29673100Y-78845817D01*
X29700000Y-78981055D01*
X29700000Y-79118945D01*
X29673100Y-79254183D01*
X29620332Y-79381574D01*
X29543725Y-79496225D01*
X29446225Y-79593725D01*
X29331574Y-79670332D01*
X29204183Y-79723100D01*
X29068945Y-79750000D01*
X28931055Y-79750000D01*
X28795817Y-79723100D01*
X28668426Y-79670332D01*
X28553775Y-79593725D01*
X28456275Y-79496225D01*
X28379668Y-79381574D01*
X28326900Y-79254183D01*
X28300000Y-79118945D01*
X28300000Y-78981055D01*
X28326900Y-78845817D01*
X28379668Y-78718426D01*
X28456275Y-78603775D01*
X28553775Y-78506275D01*
X28668426Y-78429668D01*
X28795817Y-78376900D01*
X28931055Y-78350000D01*
X29068945Y-78350000D01*
X29204183Y-78376900D01*
X29204183Y-78376900D01*
G37*
G36*
X301404183Y-78376900D02*
X301531574Y-78429668D01*
X301646225Y-78506275D01*
X301743725Y-78603775D01*
X301820332Y-78718426D01*
X301873100Y-78845817D01*
X301900000Y-78981055D01*
X301900000Y-79118945D01*
X301873100Y-79254183D01*
X301820332Y-79381574D01*
X301743725Y-79496225D01*
X301646225Y-79593725D01*
X301531574Y-79670332D01*
X301404183Y-79723100D01*
X301268945Y-79750000D01*
X301131055Y-79750000D01*
X300995817Y-79723100D01*
X300868426Y-79670332D01*
X300753775Y-79593725D01*
X300656275Y-79496225D01*
X300579668Y-79381574D01*
X300526900Y-79254183D01*
X300500000Y-79118945D01*
X300500000Y-78981055D01*
X300526900Y-78845817D01*
X300579668Y-78718426D01*
X300656275Y-78603775D01*
X300753775Y-78506275D01*
X300868426Y-78429668D01*
X300995817Y-78376900D01*
X301131055Y-78350000D01*
X301268945Y-78350000D01*
X301404183Y-78376900D01*
X301404183Y-78376900D01*
G37*
G36*
X28442661Y-76538422D02*
X28570052Y-76591190D01*
X28664329Y-76654183D01*
X28684703Y-76667797D01*
X28782203Y-76765297D01*
X28858810Y-76879948D01*
X28911578Y-77007339D01*
X28938478Y-77142577D01*
X28938478Y-77280467D01*
X28911578Y-77415705D01*
X28858810Y-77543096D01*
X28782203Y-77657747D01*
X28684703Y-77755247D01*
X28570052Y-77831854D01*
X28442661Y-77884622D01*
X28307423Y-77911522D01*
X28169533Y-77911522D01*
X28034295Y-77884622D01*
X27906904Y-77831854D01*
X27792253Y-77755247D01*
X27694753Y-77657747D01*
X27618146Y-77543096D01*
X27565378Y-77415705D01*
X27538478Y-77280467D01*
X27538478Y-77142577D01*
X27565378Y-77007339D01*
X27618146Y-76879948D01*
X27694753Y-76765297D01*
X27792253Y-76667797D01*
X27812628Y-76654183D01*
X27906904Y-76591190D01*
X28034295Y-76538422D01*
X28169533Y-76511522D01*
X28307423Y-76511522D01*
X28442661Y-76538422D01*
X28442661Y-76538422D01*
G37*
G36*
X302165705Y-76538422D02*
X302293096Y-76591190D01*
X302387373Y-76654183D01*
X302407747Y-76667797D01*
X302505247Y-76765297D01*
X302581854Y-76879948D01*
X302634622Y-77007339D01*
X302661522Y-77142577D01*
X302661522Y-77280467D01*
X302634622Y-77415705D01*
X302581854Y-77543096D01*
X302505247Y-77657747D01*
X302407747Y-77755247D01*
X302293096Y-77831854D01*
X302165705Y-77884622D01*
X302030467Y-77911522D01*
X301892577Y-77911522D01*
X301757339Y-77884622D01*
X301629948Y-77831854D01*
X301515297Y-77755247D01*
X301417797Y-77657747D01*
X301341190Y-77543096D01*
X301288422Y-77415705D01*
X301261522Y-77280467D01*
X301261522Y-77142577D01*
X301288422Y-77007339D01*
X301341190Y-76879948D01*
X301417797Y-76765297D01*
X301515297Y-76667797D01*
X301535672Y-76654183D01*
X301629948Y-76591190D01*
X301757339Y-76538422D01*
X301892577Y-76511522D01*
X302030467Y-76511522D01*
X302165705Y-76538422D01*
X302165705Y-76538422D01*
G37*
G36*
X306046218Y-75776900D02*
X306173609Y-75829668D01*
X306288260Y-75906275D01*
X306385760Y-76003775D01*
X306462367Y-76118426D01*
X306515135Y-76245817D01*
X306542035Y-76381055D01*
X306542035Y-76518945D01*
X306515135Y-76654183D01*
X306469109Y-76765297D01*
X306462367Y-76781574D01*
X306385761Y-76896224D01*
X306288259Y-76993726D01*
X306267884Y-77007340D01*
X306173609Y-77070332D01*
X306046218Y-77123100D01*
X305910980Y-77150000D01*
X305773090Y-77150000D01*
X305637852Y-77123100D01*
X305510461Y-77070332D01*
X305416186Y-77007340D01*
X305395811Y-76993726D01*
X305298309Y-76896224D01*
X305221703Y-76781574D01*
X305214961Y-76765297D01*
X305168935Y-76654183D01*
X305142035Y-76518945D01*
X305142035Y-76381055D01*
X305168935Y-76245817D01*
X305221703Y-76118426D01*
X305298310Y-76003775D01*
X305395810Y-75906275D01*
X305510461Y-75829668D01*
X305637852Y-75776900D01*
X305773090Y-75750000D01*
X305910980Y-75750000D01*
X306046218Y-75776900D01*
X306046218Y-75776900D01*
G37*
G36*
X304004183Y-75776900D02*
X304131574Y-75829668D01*
X304246225Y-75906275D01*
X304343725Y-76003775D01*
X304420332Y-76118426D01*
X304473100Y-76245817D01*
X304500000Y-76381055D01*
X304500000Y-76518945D01*
X304473100Y-76654183D01*
X304427074Y-76765297D01*
X304420332Y-76781574D01*
X304343726Y-76896224D01*
X304246224Y-76993726D01*
X304225849Y-77007340D01*
X304131574Y-77070332D01*
X304004183Y-77123100D01*
X303868945Y-77150000D01*
X303731055Y-77150000D01*
X303595817Y-77123100D01*
X303468426Y-77070332D01*
X303374151Y-77007340D01*
X303353776Y-76993726D01*
X303256274Y-76896224D01*
X303179668Y-76781574D01*
X303172926Y-76765297D01*
X303126900Y-76654183D01*
X303100000Y-76518945D01*
X303100000Y-76381055D01*
X303126900Y-76245817D01*
X303179668Y-76118426D01*
X303256275Y-76003775D01*
X303353775Y-75906275D01*
X303468426Y-75829668D01*
X303595817Y-75776900D01*
X303731055Y-75750000D01*
X303868945Y-75750000D01*
X304004183Y-75776900D01*
X304004183Y-75776900D01*
G37*
G36*
X26604183Y-75776900D02*
X26731574Y-75829668D01*
X26846225Y-75906275D01*
X26943725Y-76003775D01*
X27020332Y-76118426D01*
X27073100Y-76245817D01*
X27100000Y-76381055D01*
X27100000Y-76518945D01*
X27073100Y-76654183D01*
X27027074Y-76765297D01*
X27020332Y-76781574D01*
X26943726Y-76896224D01*
X26846224Y-76993726D01*
X26825849Y-77007340D01*
X26731574Y-77070332D01*
X26604183Y-77123100D01*
X26468945Y-77150000D01*
X26331055Y-77150000D01*
X26195817Y-77123100D01*
X26068426Y-77070332D01*
X25974151Y-77007340D01*
X25953776Y-76993726D01*
X25856274Y-76896224D01*
X25779668Y-76781574D01*
X25772926Y-76765297D01*
X25726900Y-76654183D01*
X25700000Y-76518945D01*
X25700000Y-76381055D01*
X25726900Y-76245817D01*
X25779668Y-76118426D01*
X25856275Y-76003775D01*
X25953775Y-75906275D01*
X26068426Y-75829668D01*
X26195817Y-75776900D01*
X26331055Y-75750000D01*
X26468945Y-75750000D01*
X26604183Y-75776900D01*
X26604183Y-75776900D01*
G37*
G36*
X24562148Y-75776900D02*
X24689539Y-75829668D01*
X24804190Y-75906275D01*
X24901690Y-76003775D01*
X24978297Y-76118426D01*
X25031065Y-76245817D01*
X25057965Y-76381055D01*
X25057965Y-76518945D01*
X25031065Y-76654183D01*
X24985039Y-76765297D01*
X24978297Y-76781574D01*
X24901691Y-76896224D01*
X24804189Y-76993726D01*
X24783814Y-77007340D01*
X24689539Y-77070332D01*
X24562148Y-77123100D01*
X24426910Y-77150000D01*
X24289020Y-77150000D01*
X24153782Y-77123100D01*
X24026391Y-77070332D01*
X23932116Y-77007340D01*
X23911741Y-76993726D01*
X23814239Y-76896224D01*
X23737633Y-76781574D01*
X23730891Y-76765297D01*
X23684865Y-76654183D01*
X23657965Y-76518945D01*
X23657965Y-76381055D01*
X23684865Y-76245817D01*
X23737633Y-76118426D01*
X23814240Y-76003775D01*
X23911740Y-75906275D01*
X24026391Y-75829668D01*
X24153782Y-75776900D01*
X24289020Y-75750000D01*
X24426910Y-75750000D01*
X24562148Y-75776900D01*
X24562148Y-75776900D01*
G37*
G36*
X151879284Y-65992073D02*
X152273741Y-66155463D01*
X152552664Y-66270996D01*
X153154606Y-66673201D01*
X153158692Y-66675931D01*
X153674069Y-67191308D01*
X153674071Y-67191311D01*
X154079004Y-67797336D01*
X154142239Y-67950000D01*
X154357927Y-68470716D01*
X154500120Y-69185569D01*
X154500120Y-69914431D01*
X154357927Y-70629284D01*
X154194537Y-71023741D01*
X154079004Y-71302664D01*
X154011443Y-71403776D01*
X153674069Y-71908692D01*
X153158692Y-72424069D01*
X153158689Y-72424071D01*
X152552664Y-72829004D01*
X152273741Y-72944537D01*
X151879284Y-73107927D01*
X151164431Y-73250120D01*
X150435569Y-73250120D01*
X149720716Y-73107927D01*
X149326259Y-72944537D01*
X149047336Y-72829004D01*
X148441311Y-72424071D01*
X148441308Y-72424069D01*
X147925931Y-71908692D01*
X147588557Y-71403776D01*
X147520996Y-71302664D01*
X147405463Y-71023741D01*
X147242073Y-70629284D01*
X147099880Y-69914431D01*
X147099880Y-69185569D01*
X147242073Y-68470716D01*
X147457761Y-67950000D01*
X147520996Y-67797336D01*
X147925929Y-67191311D01*
X147925931Y-67191308D01*
X148441308Y-66675931D01*
X148445394Y-66673201D01*
X149047336Y-66270996D01*
X149326259Y-66155463D01*
X149720716Y-65992073D01*
X150435569Y-65849880D01*
X151164431Y-65849880D01*
X151879284Y-65992073D01*
X151879284Y-65992073D01*
G37*
G36*
X48879437Y-46891563D02*
X48879439Y-46891564D01*
X48879440Y-46891564D01*
X49552915Y-47170526D01*
X49552916Y-47170527D01*
X50159030Y-47575519D01*
X50674481Y-48090970D01*
X50674483Y-48090973D01*
X51079474Y-48697085D01*
X51316732Y-49269878D01*
X51358437Y-49370563D01*
X51500650Y-50085516D01*
X51500650Y-50814484D01*
X51373042Y-51456014D01*
X51358436Y-51529440D01*
X51079474Y-52202915D01*
X50800739Y-52620072D01*
X50674481Y-52809030D01*
X50159030Y-53324481D01*
X50159027Y-53324483D01*
X49552915Y-53729474D01*
X48879440Y-54008436D01*
X48879439Y-54008436D01*
X48879437Y-54008437D01*
X48164484Y-54150650D01*
X47435516Y-54150650D01*
X46720563Y-54008437D01*
X46720561Y-54008436D01*
X46720560Y-54008436D01*
X46047085Y-53729474D01*
X45440973Y-53324483D01*
X45440970Y-53324481D01*
X44925519Y-52809030D01*
X44799261Y-52620072D01*
X44520526Y-52202915D01*
X44241564Y-51529440D01*
X44226959Y-51456014D01*
X44099350Y-50814484D01*
X44099350Y-50085516D01*
X44241563Y-49370563D01*
X44283268Y-49269878D01*
X44520526Y-48697085D01*
X44925517Y-48090973D01*
X44925519Y-48090970D01*
X45440970Y-47575519D01*
X46047084Y-47170527D01*
X46047085Y-47170526D01*
X46720560Y-46891564D01*
X46720561Y-46891564D01*
X46720563Y-46891563D01*
X47435516Y-46749350D01*
X48164484Y-46749350D01*
X48879437Y-46891563D01*
X48879437Y-46891563D01*
G37*
G36*
X283729284Y-46892073D02*
X284123741Y-47055463D01*
X284402664Y-47170996D01*
X285004606Y-47573201D01*
X285008692Y-47575931D01*
X285524069Y-48091308D01*
X285524071Y-48091311D01*
X285929004Y-48697336D01*
X285985198Y-48833000D01*
X286207927Y-49370716D01*
X286350120Y-50085569D01*
X286350120Y-50814431D01*
X286207927Y-51529284D01*
X286207862Y-51529440D01*
X285929004Y-52202664D01*
X285699716Y-52545818D01*
X285524069Y-52808692D01*
X285008692Y-53324069D01*
X285008689Y-53324071D01*
X284402664Y-53729004D01*
X284123741Y-53844537D01*
X283729284Y-54007927D01*
X283014431Y-54150120D01*
X282285569Y-54150120D01*
X281570716Y-54007927D01*
X281176259Y-53844537D01*
X280897336Y-53729004D01*
X280291311Y-53324071D01*
X280291308Y-53324069D01*
X279775931Y-52808692D01*
X279600284Y-52545818D01*
X279370996Y-52202664D01*
X279092138Y-51529440D01*
X279092073Y-51529284D01*
X278949880Y-50814431D01*
X278949880Y-50085569D01*
X279092073Y-49370716D01*
X279314802Y-48833000D01*
X279370996Y-48697336D01*
X279775929Y-48091311D01*
X279775931Y-48091308D01*
X280291308Y-47575931D01*
X280295394Y-47573201D01*
X280897336Y-47170996D01*
X281176259Y-47055463D01*
X281570716Y-46892073D01*
X282285569Y-46749880D01*
X283014431Y-46749880D01*
X283729284Y-46892073D01*
X283729284Y-46892073D01*
G37*
G36*
X45294823Y-26177628D02*
X45426774Y-26217655D01*
X45548380Y-26282655D01*
X45654969Y-26370130D01*
X45742445Y-26476719D01*
X45807445Y-26598325D01*
X45847472Y-26730276D01*
X45857600Y-26833110D01*
X45857600Y-28001890D01*
X45847472Y-28104724D01*
X45807445Y-28236675D01*
X45742445Y-28358281D01*
X45654970Y-28464870D01*
X45548381Y-28552345D01*
X45426775Y-28617345D01*
X45294824Y-28657372D01*
X45157600Y-28670887D01*
X45020377Y-28657372D01*
X44888426Y-28617345D01*
X44766820Y-28552345D01*
X44660231Y-28464870D01*
X44572756Y-28358281D01*
X44507756Y-28236675D01*
X44467729Y-28104724D01*
X44457601Y-28001890D01*
X44457600Y-27125432D01*
X44455198Y-27101046D01*
X44448085Y-27077596D01*
X44436534Y-27055986D01*
X44420988Y-27037044D01*
X44402046Y-27021498D01*
X44380435Y-27009947D01*
X44356986Y-27002834D01*
X44332600Y-27000432D01*
X44308214Y-27002834D01*
X44284764Y-27009947D01*
X44263154Y-27021498D01*
X44244212Y-27037044D01*
X44228666Y-27055986D01*
X44217116Y-27077593D01*
X44192849Y-27136181D01*
X44135652Y-27221782D01*
X44135392Y-27222171D01*
X44062271Y-27295292D01*
X44062268Y-27295294D01*
X43976281Y-27352749D01*
X43880737Y-27392324D01*
X43880736Y-27392324D01*
X43880734Y-27392325D01*
X43779309Y-27412500D01*
X43675891Y-27412500D01*
X43574466Y-27392325D01*
X43574464Y-27392324D01*
X43574463Y-27392324D01*
X43478919Y-27352749D01*
X43392932Y-27295294D01*
X43392929Y-27295292D01*
X43319808Y-27222171D01*
X43319548Y-27221782D01*
X43262351Y-27136181D01*
X43222776Y-27040637D01*
X43214779Y-27000432D01*
X43202600Y-26939209D01*
X43202600Y-26835791D01*
X43222775Y-26734366D01*
X43224468Y-26730278D01*
X43262351Y-26638819D01*
X43319806Y-26552832D01*
X43319808Y-26552829D01*
X43392929Y-26479708D01*
X43397402Y-26476719D01*
X43478919Y-26422251D01*
X43574463Y-26382676D01*
X43574464Y-26382676D01*
X43574466Y-26382675D01*
X43675891Y-26362500D01*
X43779309Y-26362500D01*
X43880734Y-26382675D01*
X43880736Y-26382676D01*
X43880737Y-26382676D01*
X43976281Y-26422251D01*
X44057798Y-26476719D01*
X44062271Y-26479708D01*
X44135392Y-26552829D01*
X44135394Y-26552832D01*
X44192849Y-26638819D01*
X44230732Y-26730278D01*
X44233848Y-26737801D01*
X44245400Y-26759412D01*
X44260945Y-26778354D01*
X44279887Y-26793899D01*
X44301498Y-26805450D01*
X44324947Y-26812563D01*
X44349333Y-26814965D01*
X44373720Y-26812563D01*
X44397169Y-26805450D01*
X44418780Y-26793898D01*
X44437722Y-26778353D01*
X44453267Y-26759411D01*
X44468946Y-26726261D01*
X44507755Y-26598326D01*
X44572755Y-26476720D01*
X44660230Y-26370131D01*
X44766819Y-26282655D01*
X44888425Y-26217655D01*
X45020376Y-26177628D01*
X45157600Y-26164113D01*
X45294823Y-26177628D01*
X45294823Y-26177628D01*
G37*
G36*
X36654823Y-26177628D02*
X36786774Y-26217655D01*
X36908380Y-26282655D01*
X37014969Y-26370130D01*
X37102445Y-26476719D01*
X37167445Y-26598325D01*
X37206255Y-26726266D01*
X37215627Y-26748889D01*
X37229241Y-26769263D01*
X37246568Y-26786590D01*
X37266942Y-26800204D01*
X37289581Y-26809582D01*
X37313615Y-26814362D01*
X37338119Y-26814362D01*
X37362153Y-26809582D01*
X37384792Y-26800204D01*
X37405166Y-26786590D01*
X37422493Y-26769263D01*
X37441352Y-26737800D01*
X37452432Y-26711052D01*
X37482351Y-26638819D01*
X37539806Y-26552832D01*
X37539808Y-26552829D01*
X37612929Y-26479708D01*
X37617402Y-26476719D01*
X37698919Y-26422251D01*
X37794463Y-26382676D01*
X37794464Y-26382676D01*
X37794466Y-26382675D01*
X37895891Y-26362500D01*
X37999309Y-26362500D01*
X38100734Y-26382675D01*
X38100736Y-26382676D01*
X38100737Y-26382676D01*
X38196281Y-26422251D01*
X38277798Y-26476719D01*
X38282271Y-26479708D01*
X38355392Y-26552829D01*
X38355394Y-26552832D01*
X38412849Y-26638819D01*
X38450732Y-26730278D01*
X38452425Y-26734366D01*
X38472600Y-26835791D01*
X38472600Y-26939209D01*
X38460422Y-27000432D01*
X38452424Y-27040637D01*
X38412849Y-27136181D01*
X38355652Y-27221782D01*
X38355392Y-27222171D01*
X38282271Y-27295292D01*
X38282268Y-27295294D01*
X38196281Y-27352749D01*
X38100737Y-27392324D01*
X38100736Y-27392324D01*
X38100734Y-27392325D01*
X37999309Y-27412500D01*
X37895891Y-27412500D01*
X37794466Y-27392325D01*
X37794464Y-27392324D01*
X37794463Y-27392324D01*
X37698919Y-27352749D01*
X37612932Y-27295294D01*
X37612929Y-27295292D01*
X37539808Y-27222171D01*
X37539548Y-27221782D01*
X37482351Y-27136181D01*
X37458084Y-27077593D01*
X37446533Y-27055985D01*
X37430988Y-27037043D01*
X37412046Y-27021498D01*
X37390435Y-27009947D01*
X37366986Y-27002834D01*
X37342599Y-27000432D01*
X37318213Y-27002834D01*
X37294764Y-27009947D01*
X37273153Y-27021499D01*
X37254211Y-27037044D01*
X37238666Y-27055986D01*
X37227115Y-27077597D01*
X37220002Y-27101046D01*
X37217600Y-27125432D01*
X37217600Y-28001890D01*
X37207472Y-28104724D01*
X37167445Y-28236675D01*
X37102445Y-28358281D01*
X37014970Y-28464870D01*
X36908381Y-28552345D01*
X36786775Y-28617345D01*
X36654824Y-28657372D01*
X36517600Y-28670887D01*
X36380377Y-28657372D01*
X36248426Y-28617345D01*
X36126820Y-28552345D01*
X36020231Y-28464870D01*
X35932756Y-28358281D01*
X35867756Y-28236675D01*
X35827729Y-28104724D01*
X35817601Y-28001890D01*
X35817600Y-26833111D01*
X35827728Y-26730277D01*
X35867755Y-26598326D01*
X35932755Y-26476720D01*
X36020230Y-26370131D01*
X36126819Y-26282655D01*
X36248425Y-26217655D01*
X36380376Y-26177628D01*
X36517600Y-26164113D01*
X36654823Y-26177628D01*
X36654823Y-26177628D01*
G37*
G36*
X45294823Y-22247628D02*
X45426774Y-22287655D01*
X45548380Y-22352655D01*
X45654969Y-22440130D01*
X45742445Y-22546719D01*
X45807445Y-22668325D01*
X45847472Y-22800276D01*
X45857600Y-22903110D01*
X45857600Y-23571890D01*
X45847472Y-23674724D01*
X45807445Y-23806675D01*
X45742445Y-23928281D01*
X45654970Y-24034870D01*
X45548381Y-24122345D01*
X45426775Y-24187345D01*
X45294824Y-24227372D01*
X45157600Y-24240887D01*
X45020377Y-24227372D01*
X44888426Y-24187345D01*
X44766820Y-24122345D01*
X44660231Y-24034870D01*
X44572756Y-23928281D01*
X44507755Y-23806675D01*
X44467728Y-23674724D01*
X44457600Y-23571890D01*
X44457600Y-22903111D01*
X44467728Y-22800277D01*
X44507755Y-22668326D01*
X44572755Y-22546720D01*
X44660230Y-22440131D01*
X44766819Y-22352655D01*
X44888425Y-22287655D01*
X45020376Y-22247628D01*
X45157600Y-22234113D01*
X45294823Y-22247628D01*
X45294823Y-22247628D01*
G37*
G36*
X36654823Y-22247628D02*
X36786774Y-22287655D01*
X36908380Y-22352655D01*
X37014969Y-22440130D01*
X37102445Y-22546719D01*
X37167445Y-22668325D01*
X37207472Y-22800276D01*
X37217600Y-22903110D01*
X37217600Y-23571890D01*
X37207472Y-23674724D01*
X37167445Y-23806675D01*
X37102445Y-23928281D01*
X37014970Y-24034870D01*
X36908381Y-24122345D01*
X36786775Y-24187345D01*
X36654824Y-24227372D01*
X36517600Y-24240887D01*
X36380377Y-24227372D01*
X36248426Y-24187345D01*
X36126820Y-24122345D01*
X36020231Y-24034870D01*
X35932756Y-23928281D01*
X35867755Y-23806675D01*
X35827728Y-23674724D01*
X35817600Y-23571890D01*
X35817600Y-22903111D01*
X35827728Y-22800277D01*
X35867755Y-22668326D01*
X35932755Y-22546720D01*
X36020230Y-22440131D01*
X36126819Y-22352655D01*
X36248425Y-22287655D01*
X36380376Y-22247628D01*
X36517600Y-22234113D01*
X36654823Y-22247628D01*
X36654823Y-22247628D01*
G37*
M02*
