G04 #@! TF.GenerationSoftware,KiCad,Pcbnew,(5.0.2)-1*
G04 #@! TF.CreationDate,2019-03-07T01:35:03-08:00*
G04 #@! TF.ProjectId,Voyager60,566f7961-6765-4723-9630-2e6b69636164,rev?*
G04 #@! TF.SameCoordinates,Original*
G04 #@! TF.FileFunction,Paste,Bot*
G04 #@! TF.FilePolarity,Positive*
%FSLAX46Y46*%
G04 Gerber Fmt 4.6, Leading zero omitted, Abs format (unit mm)*
G04 Created by KiCad (PCBNEW (5.0.2)-1) date 3/7/2019 1:35:03 AM*
%MOMM*%
%LPD*%
G01*
G04 APERTURE LIST*
%ADD10R,0.750000X0.800000*%
%ADD11R,1.200000X0.900000*%
%ADD12R,2.030000X1.140000*%
%ADD13R,1.300000X0.700000*%
%ADD14R,0.700000X1.300000*%
%ADD15R,0.700000X0.600000*%
%ADD16R,0.700000X1.000000*%
%ADD17R,1.200000X1.400000*%
%ADD18R,0.300000X1.450000*%
%ADD19R,0.600000X1.450000*%
%ADD20R,0.800000X0.750000*%
%ADD21R,0.772500X0.772500*%
%ADD22R,0.700000X0.250000*%
%ADD23R,0.250000X0.700000*%
%ADD24R,1.100000X1.800000*%
%ADD25R,1.800000X1.400000*%
G04 APERTURE END LIST*
D10*
G04 #@! TO.C,C6*
X52578000Y-74942000D03*
X52578000Y-76442000D03*
G04 #@! TD*
D11*
G04 #@! TO.C,D1*
X25400000Y-31018750D03*
X25400000Y-27718750D03*
G04 #@! TD*
G04 #@! TO.C,D2*
X60325000Y-31018750D03*
X60325000Y-27718750D03*
G04 #@! TD*
G04 #@! TO.C,D3*
X79375000Y-27718750D03*
X79375000Y-31018750D03*
G04 #@! TD*
G04 #@! TO.C,D4*
X98425000Y-31018750D03*
X98425000Y-27718750D03*
G04 #@! TD*
G04 #@! TO.C,D5*
X117475000Y-27718750D03*
X117475000Y-31018750D03*
G04 #@! TD*
G04 #@! TO.C,D6*
X136525000Y-31018750D03*
X136525000Y-27718750D03*
G04 #@! TD*
G04 #@! TO.C,D7*
X155575000Y-27718750D03*
X155575000Y-31018750D03*
G04 #@! TD*
G04 #@! TO.C,D8*
X174625000Y-31018750D03*
X174625000Y-27718750D03*
G04 #@! TD*
G04 #@! TO.C,D9*
X193675000Y-31018750D03*
X193675000Y-27718750D03*
G04 #@! TD*
G04 #@! TO.C,D10*
X212725000Y-31018750D03*
X212725000Y-27718750D03*
G04 #@! TD*
G04 #@! TO.C,D11*
X231775000Y-27718750D03*
X231775000Y-31018750D03*
G04 #@! TD*
G04 #@! TO.C,D12*
X249237500Y-31018750D03*
X249237500Y-27718750D03*
G04 #@! TD*
G04 #@! TO.C,D13*
X252412500Y-31018750D03*
X252412500Y-27718750D03*
G04 #@! TD*
G04 #@! TO.C,D14*
X271462500Y-27718750D03*
X271462500Y-31018750D03*
G04 #@! TD*
G04 #@! TO.C,D16*
X27781250Y-50068750D03*
X27781250Y-46768750D03*
G04 #@! TD*
G04 #@! TO.C,D17*
X69850000Y-50068750D03*
X69850000Y-46768750D03*
G04 #@! TD*
G04 #@! TO.C,D18*
X88900000Y-50068750D03*
X88900000Y-46768750D03*
G04 #@! TD*
G04 #@! TO.C,D19*
X107950000Y-46768750D03*
X107950000Y-50068750D03*
G04 #@! TD*
G04 #@! TO.C,D20*
X127000000Y-46768750D03*
X127000000Y-50068750D03*
G04 #@! TD*
G04 #@! TO.C,D21*
X146050000Y-50068750D03*
X146050000Y-46768750D03*
G04 #@! TD*
G04 #@! TO.C,D22*
X165100000Y-46768750D03*
X165100000Y-50068750D03*
G04 #@! TD*
G04 #@! TO.C,D23*
X184150000Y-46768750D03*
X184150000Y-50068750D03*
G04 #@! TD*
G04 #@! TO.C,D24*
X203200000Y-50068750D03*
X203200000Y-46768750D03*
G04 #@! TD*
G04 #@! TO.C,D25*
X222250000Y-46768750D03*
X222250000Y-50068750D03*
G04 #@! TD*
G04 #@! TO.C,D26*
X241300000Y-50068750D03*
X241300000Y-46768750D03*
G04 #@! TD*
G04 #@! TO.C,D27*
X258762500Y-46768750D03*
X258762500Y-50068750D03*
G04 #@! TD*
G04 #@! TO.C,D28*
X261937500Y-46768750D03*
X261937500Y-50068750D03*
G04 #@! TD*
G04 #@! TO.C,D29*
X301625000Y-46768750D03*
X301625000Y-50068750D03*
G04 #@! TD*
G04 #@! TO.C,D30*
X280987500Y-107218750D03*
X280987500Y-103918750D03*
G04 #@! TD*
G04 #@! TO.C,D31*
X26193750Y-69118750D03*
X26193750Y-65818750D03*
G04 #@! TD*
G04 #@! TO.C,D32*
X74612500Y-65818750D03*
X74612500Y-69118750D03*
G04 #@! TD*
G04 #@! TO.C,D33*
X93662500Y-65818750D03*
X93662500Y-69118750D03*
G04 #@! TD*
G04 #@! TO.C,D34*
X112712500Y-69118750D03*
X112712500Y-65818750D03*
G04 #@! TD*
G04 #@! TO.C,D35*
X130175000Y-69118750D03*
X130175000Y-65818750D03*
G04 #@! TD*
G04 #@! TO.C,D36*
X133350000Y-69118750D03*
X133350000Y-65818750D03*
G04 #@! TD*
G04 #@! TO.C,D37*
X169862500Y-65818750D03*
X169862500Y-69118750D03*
G04 #@! TD*
G04 #@! TO.C,D38*
X188912500Y-65818750D03*
X188912500Y-69118750D03*
G04 #@! TD*
G04 #@! TO.C,D39*
X207962500Y-65818750D03*
X207962500Y-69118750D03*
G04 #@! TD*
G04 #@! TO.C,D40*
X227012500Y-69118750D03*
X227012500Y-65818750D03*
G04 #@! TD*
G04 #@! TO.C,D41*
X246062500Y-65818750D03*
X246062500Y-69118750D03*
G04 #@! TD*
G04 #@! TO.C,D42*
X263525000Y-65818750D03*
X263525000Y-69118750D03*
G04 #@! TD*
G04 #@! TO.C,D43*
X266700000Y-65818750D03*
X266700000Y-69118750D03*
G04 #@! TD*
G04 #@! TO.C,D45*
X66675000Y-88168750D03*
X66675000Y-84868750D03*
G04 #@! TD*
G04 #@! TO.C,D46*
X84137500Y-88168750D03*
X84137500Y-84868750D03*
G04 #@! TD*
G04 #@! TO.C,D47*
X103187500Y-84868750D03*
X103187500Y-88168750D03*
G04 #@! TD*
G04 #@! TO.C,D48*
X122237500Y-88168750D03*
X122237500Y-84868750D03*
G04 #@! TD*
G04 #@! TO.C,D49*
X141287500Y-84868750D03*
X141287500Y-88168750D03*
G04 #@! TD*
G04 #@! TO.C,D50*
X160337500Y-84868750D03*
X160337500Y-88168750D03*
G04 #@! TD*
G04 #@! TO.C,D51*
X179387500Y-84868750D03*
X179387500Y-88168750D03*
G04 #@! TD*
G04 #@! TO.C,D52*
X198437500Y-84868750D03*
X198437500Y-88168750D03*
G04 #@! TD*
G04 #@! TO.C,D53*
X217487500Y-88168750D03*
X217487500Y-84868750D03*
G04 #@! TD*
G04 #@! TO.C,D54*
X236537500Y-88168750D03*
X236537500Y-84868750D03*
G04 #@! TD*
G04 #@! TO.C,D55*
X254793750Y-88168750D03*
X254793750Y-84868750D03*
G04 #@! TD*
G04 #@! TO.C,D56*
X264318750Y-84868750D03*
X264318750Y-88168750D03*
G04 #@! TD*
G04 #@! TO.C,D57*
X289718750Y-84868750D03*
X289718750Y-88168750D03*
G04 #@! TD*
G04 #@! TO.C,D59*
X45243750Y-103918750D03*
X45243750Y-107218750D03*
G04 #@! TD*
G04 #@! TO.C,D60*
X71437500Y-107218750D03*
X71437500Y-103918750D03*
G04 #@! TD*
G04 #@! TO.C,D61*
X139700000Y-107218750D03*
X139700000Y-103918750D03*
G04 #@! TD*
G04 #@! TO.C,D63*
X232568750Y-107218750D03*
X232568750Y-103918750D03*
G04 #@! TD*
G04 #@! TO.C,D64*
X257175000Y-107218750D03*
X257175000Y-103918750D03*
G04 #@! TD*
G04 #@! TO.C,D65*
X284162500Y-103918750D03*
X284162500Y-107218750D03*
G04 #@! TD*
G04 #@! TO.C,D67*
X97631250Y-107218750D03*
X97631250Y-103918750D03*
G04 #@! TD*
G04 #@! TO.C,D68*
X268287500Y-31018750D03*
X268287500Y-27718750D03*
G04 #@! TD*
D12*
G04 #@! TO.C,F1*
X35941000Y-39281250D03*
X35941000Y-41681250D03*
G04 #@! TD*
D13*
G04 #@! TO.C,R67*
X39497000Y-39177000D03*
X39497000Y-37277000D03*
G04 #@! TD*
G04 #@! TO.C,R68*
X42291000Y-37277000D03*
X42291000Y-39177000D03*
G04 #@! TD*
D14*
G04 #@! TO.C,R70*
X49718000Y-77343000D03*
X47818000Y-77343000D03*
G04 #@! TD*
G04 #@! TO.C,R71*
X63815000Y-70485000D03*
X61915000Y-70485000D03*
G04 #@! TD*
G04 #@! TO.C,R73*
X35081250Y-31750000D03*
X33181250Y-31750000D03*
G04 #@! TD*
D13*
G04 #@! TO.C,R74*
X47625000Y-32700000D03*
X47625000Y-30800000D03*
G04 #@! TD*
D15*
G04 #@! TO.C,U2*
X39894000Y-33589000D03*
X41894000Y-33589000D03*
X39894000Y-31689000D03*
D16*
X41894000Y-31889000D03*
G04 #@! TD*
D17*
G04 #@! TO.C,Y1*
X43981000Y-68750000D03*
X43981000Y-70950000D03*
X45681000Y-70950000D03*
X45681000Y-68750000D03*
G04 #@! TD*
D18*
G04 #@! TO.C,USB1*
X40587600Y-28332500D03*
X41087600Y-28332500D03*
X41587600Y-28332500D03*
X40087600Y-28332500D03*
X42087600Y-28332500D03*
X39587600Y-28332500D03*
X42587600Y-28332500D03*
X39087600Y-28332500D03*
D19*
X38387600Y-28332500D03*
X43287600Y-28332500D03*
X37612600Y-28332500D03*
X44062600Y-28332500D03*
G04 #@! TD*
D11*
G04 #@! TO.C,D44*
X63500000Y-84868750D03*
X63500000Y-88168750D03*
G04 #@! TD*
G04 #@! TO.C,D58*
X123825000Y-107218750D03*
X123825000Y-103918750D03*
G04 #@! TD*
G04 #@! TO.C,D62*
X195262500Y-103918750D03*
X195262500Y-107218750D03*
G04 #@! TD*
D20*
G04 #@! TO.C,C2*
X56654000Y-74676000D03*
X58154000Y-74676000D03*
G04 #@! TD*
D10*
G04 #@! TO.C,C3*
X50165000Y-63742000D03*
X50165000Y-62242000D03*
G04 #@! TD*
D20*
G04 #@! TO.C,C4*
X49518000Y-74676000D03*
X48018000Y-74676000D03*
G04 #@! TD*
G04 #@! TO.C,C5*
X58154000Y-63373000D03*
X56654000Y-63373000D03*
G04 #@! TD*
D10*
G04 #@! TO.C,C7*
X41656000Y-69100000D03*
X41656000Y-70600000D03*
G04 #@! TD*
D20*
G04 #@! TO.C,C8*
X45581000Y-73406000D03*
X44081000Y-73406000D03*
G04 #@! TD*
D21*
G04 #@! TO.C,U1*
X55041403Y-71076441D03*
X53753903Y-71076441D03*
X52466403Y-71076441D03*
X51178903Y-71076441D03*
X55041403Y-69788941D03*
X53753903Y-69788941D03*
X52466403Y-69788941D03*
X51178903Y-69788941D03*
X55041403Y-68501441D03*
X53753903Y-68501441D03*
X52466403Y-68501441D03*
X51178903Y-68501441D03*
X55041403Y-67213941D03*
X53753903Y-67213941D03*
X52466403Y-67213941D03*
X51178903Y-67213941D03*
D22*
X56510153Y-71645191D03*
X56510153Y-71145191D03*
X56510153Y-70645191D03*
X56510153Y-70145191D03*
X56510153Y-69645191D03*
X56510153Y-69145191D03*
X56510153Y-68645191D03*
X56510153Y-68145191D03*
X56510153Y-67645191D03*
X56510153Y-67145191D03*
X56510153Y-66645191D03*
D23*
X55610153Y-65745191D03*
X55110153Y-65745191D03*
X54610153Y-65745191D03*
X54110153Y-65745191D03*
X53610153Y-65745191D03*
X53110153Y-65745191D03*
X52610153Y-65745191D03*
X52110153Y-65745191D03*
X51610153Y-65745191D03*
X51110153Y-65745191D03*
X50610153Y-65745191D03*
D22*
X49710153Y-66645191D03*
X49710153Y-67145191D03*
X49710153Y-67645191D03*
X49710153Y-68145191D03*
X49710153Y-68645191D03*
X49710153Y-69145191D03*
X49710153Y-69645191D03*
X49710153Y-70145191D03*
X49710153Y-70645191D03*
X49710153Y-71145191D03*
X49710153Y-71645191D03*
D23*
X50610153Y-72545191D03*
X51110153Y-72545191D03*
X51610153Y-72545191D03*
X52110153Y-72545191D03*
X52610153Y-72545191D03*
X53110153Y-72545191D03*
X53610153Y-72545191D03*
X54110153Y-72545191D03*
X54610153Y-72545191D03*
X55110153Y-72545191D03*
X55610153Y-72545191D03*
G04 #@! TD*
D24*
G04 #@! TO.C,SW1*
X32281250Y-52462500D03*
X35981250Y-58662500D03*
X35981250Y-52462500D03*
X32281250Y-58662500D03*
G04 #@! TD*
D10*
G04 #@! TO.C,C1*
X54768750Y-40525000D03*
X54768750Y-42025000D03*
G04 #@! TD*
G04 #@! TO.C,C9*
X88106250Y-42025000D03*
X88106250Y-40525000D03*
G04 #@! TD*
G04 #@! TO.C,C10*
X129381250Y-40525000D03*
X129381250Y-42025000D03*
G04 #@! TD*
G04 #@! TO.C,C11*
X170656250Y-42025000D03*
X170656250Y-40525000D03*
G04 #@! TD*
G04 #@! TO.C,C12*
X211931250Y-40525000D03*
X211931250Y-42025000D03*
G04 #@! TD*
G04 #@! TO.C,C13*
X253206250Y-42025000D03*
X253206250Y-40525000D03*
G04 #@! TD*
G04 #@! TO.C,C14*
X294481250Y-40525000D03*
X294481250Y-42025000D03*
G04 #@! TD*
G04 #@! TO.C,C15*
X292893750Y-99175000D03*
X292893750Y-97675000D03*
G04 #@! TD*
G04 #@! TO.C,C16*
X253206250Y-97675000D03*
X253206250Y-99175000D03*
G04 #@! TD*
G04 #@! TO.C,C17*
X211931250Y-99175000D03*
X211931250Y-97675000D03*
G04 #@! TD*
G04 #@! TO.C,C18*
X170656250Y-97675000D03*
X170656250Y-99175000D03*
G04 #@! TD*
G04 #@! TO.C,C19*
X129381250Y-99175000D03*
X129381250Y-97675000D03*
G04 #@! TD*
G04 #@! TO.C,C20*
X88106250Y-97675000D03*
X88106250Y-99175000D03*
G04 #@! TD*
G04 #@! TO.C,C21*
X49212500Y-99175000D03*
X49212500Y-97675000D03*
G04 #@! TD*
D25*
G04 #@! TO.C,RGB1*
X51612500Y-39625000D03*
X51612500Y-42925000D03*
X46812500Y-42925000D03*
X46812500Y-39625000D03*
G04 #@! TD*
G04 #@! TO.C,RGB2*
X284937500Y-96775000D03*
X284937500Y-100075000D03*
X289737500Y-100075000D03*
X289737500Y-96775000D03*
G04 #@! TD*
G04 #@! TO.C,RGB3*
X84950000Y-39625000D03*
X84950000Y-42925000D03*
X80150000Y-42925000D03*
X80150000Y-39625000D03*
G04 #@! TD*
G04 #@! TO.C,RGB4*
X245250000Y-96775000D03*
X245250000Y-100075000D03*
X250050000Y-100075000D03*
X250050000Y-96775000D03*
G04 #@! TD*
G04 #@! TO.C,RGB5*
X126225000Y-39625000D03*
X126225000Y-42925000D03*
X121425000Y-42925000D03*
X121425000Y-39625000D03*
G04 #@! TD*
G04 #@! TO.C,RGB6*
X208775000Y-96775000D03*
X208775000Y-100075000D03*
X203975000Y-100075000D03*
X203975000Y-96775000D03*
G04 #@! TD*
G04 #@! TO.C,RGB7*
X167500000Y-39625000D03*
X167500000Y-42925000D03*
X162700000Y-42925000D03*
X162700000Y-39625000D03*
G04 #@! TD*
G04 #@! TO.C,RGB8*
X162700000Y-96775000D03*
X162700000Y-100075000D03*
X167500000Y-100075000D03*
X167500000Y-96775000D03*
G04 #@! TD*
G04 #@! TO.C,RGB9*
X208775000Y-39625000D03*
X208775000Y-42925000D03*
X203975000Y-42925000D03*
X203975000Y-39625000D03*
G04 #@! TD*
G04 #@! TO.C,RGB10*
X121425000Y-96775000D03*
X121425000Y-100075000D03*
X126225000Y-100075000D03*
X126225000Y-96775000D03*
G04 #@! TD*
G04 #@! TO.C,RGB11*
X250050000Y-39625000D03*
X250050000Y-42925000D03*
X245250000Y-42925000D03*
X245250000Y-39625000D03*
G04 #@! TD*
G04 #@! TO.C,RGB12*
X84950000Y-96775000D03*
X84950000Y-100075000D03*
X80150000Y-100075000D03*
X80150000Y-96775000D03*
G04 #@! TD*
G04 #@! TO.C,RGB13*
X286525000Y-39625000D03*
X286525000Y-42925000D03*
X291325000Y-42925000D03*
X291325000Y-39625000D03*
G04 #@! TD*
G04 #@! TO.C,RGB14*
X46056250Y-96775000D03*
X46056250Y-100075000D03*
X41256250Y-100075000D03*
X41256250Y-96775000D03*
G04 #@! TD*
M02*
