G04 #@! TF.GenerationSoftware,KiCad,Pcbnew,(5.0.0)*
G04 #@! TF.CreationDate,2019-01-27T02:47:26-08:00*
G04 #@! TF.ProjectId,Voyager60,566F796167657236302E6B696361645F,rev?*
G04 #@! TF.SameCoordinates,Original*
G04 #@! TF.FileFunction,Soldermask,Top*
G04 #@! TF.FilePolarity,Negative*
%FSLAX46Y46*%
G04 Gerber Fmt 4.6, Leading zero omitted, Abs format (unit mm)*
G04 Created by KiCad (PCBNEW (5.0.0)) date 01/27/19 02:47:26*
%MOMM*%
%LPD*%
G01*
G04 APERTURE LIST*
%ADD10C,2.501900*%
%ADD11C,0.010000*%
%ADD12C,1.400000*%
%ADD13C,7.400240*%
%ADD14C,7.401300*%
%ADD15O,1.400000X2.000000*%
%ADD16O,1.400000X2.500000*%
%ADD17C,1.050000*%
%ADD18C,4.387800*%
%ADD19C,2.150000*%
%ADD20C,3.448000*%
%ADD21C,2.101800*%
G04 APERTURE END LIST*
D10*
G04 #@! TO.C,REF\002A\002A*
X22600000Y-81700950D02*
X26400000Y-81700950D01*
X26400000Y-81700950D02*
G75*
G03X29050950Y-79050000I0J2650950D01*
G01*
X29050950Y-79050000D02*
G75*
G03X26400000Y-76399050I-2650950J0D01*
G01*
X22600000Y-76399050D02*
X26400000Y-76399050D01*
X303800000Y-81700950D02*
X307650000Y-81700950D01*
X303800000Y-81700950D02*
G75*
G02X301149050Y-79050000I0J2650950D01*
G01*
X301149050Y-79050000D02*
G75*
G02X303800000Y-76399050I2650950J0D01*
G01*
X303800000Y-76399050D02*
X307600000Y-76399050D01*
D11*
G04 #@! TO.C,G\002A\002A\002A*
G36*
X263715500Y-97345500D02*
X263310688Y-97345500D01*
X263310688Y-96940688D01*
X263715500Y-96940688D01*
X263715500Y-97345500D01*
X263715500Y-97345500D01*
G37*
X263715500Y-97345500D02*
X263310688Y-97345500D01*
X263310688Y-96940688D01*
X263715500Y-96940688D01*
X263715500Y-97345500D01*
G36*
X264120313Y-98131313D02*
X263715500Y-98131313D01*
X263715500Y-97750313D01*
X264120313Y-97750313D01*
X264120313Y-98131313D01*
X264120313Y-98131313D01*
G37*
X264120313Y-98131313D02*
X263715500Y-98131313D01*
X263715500Y-97750313D01*
X264120313Y-97750313D01*
X264120313Y-98131313D01*
G36*
X263310688Y-98131313D02*
X262929688Y-98131313D01*
X262929688Y-97750313D01*
X263310688Y-97750313D01*
X263310688Y-98131313D01*
X263310688Y-98131313D01*
G37*
X263310688Y-98131313D02*
X262929688Y-98131313D01*
X262929688Y-97750313D01*
X263310688Y-97750313D01*
X263310688Y-98131313D01*
G36*
X264501313Y-98940938D02*
X264120313Y-98940938D01*
X264120313Y-98536125D01*
X264501313Y-98536125D01*
X264501313Y-98940938D01*
X264501313Y-98940938D01*
G37*
X264501313Y-98940938D02*
X264120313Y-98940938D01*
X264120313Y-98536125D01*
X264501313Y-98536125D01*
X264501313Y-98940938D01*
G36*
X263715500Y-98940938D02*
X263310688Y-98940938D01*
X263310688Y-98536125D01*
X263715500Y-98536125D01*
X263715500Y-98940938D01*
X263715500Y-98940938D01*
G37*
X263715500Y-98940938D02*
X263310688Y-98940938D01*
X263310688Y-98536125D01*
X263715500Y-98536125D01*
X263715500Y-98940938D01*
G36*
X262929688Y-98940938D02*
X262524875Y-98940938D01*
X262524875Y-98536125D01*
X262929688Y-98536125D01*
X262929688Y-98940938D01*
X262929688Y-98940938D01*
G37*
X262929688Y-98940938D02*
X262524875Y-98940938D01*
X262524875Y-98536125D01*
X262929688Y-98536125D01*
X262929688Y-98940938D01*
G36*
X264906125Y-99726750D02*
X264501313Y-99726750D01*
X264501313Y-99321938D01*
X264906125Y-99321938D01*
X264906125Y-99726750D01*
X264906125Y-99726750D01*
G37*
X264906125Y-99726750D02*
X264501313Y-99726750D01*
X264501313Y-99321938D01*
X264906125Y-99321938D01*
X264906125Y-99726750D01*
G36*
X262524875Y-99726750D02*
X262120063Y-99726750D01*
X262120063Y-99321938D01*
X262524875Y-99321938D01*
X262524875Y-99726750D01*
X262524875Y-99726750D01*
G37*
X262524875Y-99726750D02*
X262120063Y-99726750D01*
X262120063Y-99321938D01*
X262524875Y-99321938D01*
X262524875Y-99726750D01*
G36*
X263528969Y-95453045D02*
X263653087Y-95454415D01*
X263764799Y-95458572D01*
X263867392Y-95465919D01*
X263964156Y-95476860D01*
X264058378Y-95491798D01*
X264153347Y-95511137D01*
X264252351Y-95535281D01*
X264297630Y-95547418D01*
X264506177Y-95612656D01*
X264708265Y-95691992D01*
X264903128Y-95785028D01*
X265089999Y-95891368D01*
X265268114Y-96010616D01*
X265420260Y-96128617D01*
X265577928Y-96269342D01*
X265725265Y-96420787D01*
X265861586Y-96581885D01*
X265986208Y-96751567D01*
X266098447Y-96928766D01*
X266197620Y-97112416D01*
X266283042Y-97301447D01*
X266354030Y-97494793D01*
X266402784Y-97662803D01*
X266435855Y-97802789D01*
X266461215Y-97934725D01*
X266479607Y-98063997D01*
X266491775Y-98195993D01*
X266498461Y-98336100D01*
X266499114Y-98361500D01*
X266496395Y-98579797D01*
X266478200Y-98794580D01*
X266444535Y-99005821D01*
X266395406Y-99213489D01*
X266330819Y-99417555D01*
X266266622Y-99581487D01*
X266238539Y-99646752D01*
X266214477Y-99700910D01*
X266192608Y-99747613D01*
X266171107Y-99790513D01*
X266148146Y-99833263D01*
X266121900Y-99879515D01*
X266092775Y-99929156D01*
X265973556Y-100115427D01*
X265843452Y-100290153D01*
X265702329Y-100453465D01*
X265550055Y-100605496D01*
X265386497Y-100746380D01*
X265211524Y-100876248D01*
X265029156Y-100992775D01*
X264976327Y-101023744D01*
X264930414Y-101049721D01*
X264887765Y-101072531D01*
X264844728Y-101094001D01*
X264797651Y-101115957D01*
X264742881Y-101140225D01*
X264681487Y-101166622D01*
X264585254Y-101206169D01*
X264496536Y-101239208D01*
X264409422Y-101267695D01*
X264317998Y-101293589D01*
X264235406Y-101314322D01*
X264070890Y-101349876D01*
X263913795Y-101375553D01*
X263759567Y-101391893D01*
X263603649Y-101399436D01*
X263513094Y-101400013D01*
X263461875Y-101399498D01*
X263413754Y-101398793D01*
X263371874Y-101397960D01*
X263339378Y-101397063D01*
X263319410Y-101396165D01*
X263318625Y-101396109D01*
X263102451Y-101372157D01*
X262889694Y-101333170D01*
X262681213Y-101279467D01*
X262477868Y-101211363D01*
X262280516Y-101129176D01*
X262090018Y-101033225D01*
X261907232Y-100923826D01*
X261756276Y-100818796D01*
X261583349Y-100680449D01*
X261422665Y-100532088D01*
X261274451Y-100374039D01*
X261138929Y-100206632D01*
X261016324Y-100030194D01*
X260906861Y-99845052D01*
X260810763Y-99651535D01*
X260728256Y-99449971D01*
X260659563Y-99240688D01*
X260647418Y-99197630D01*
X260621052Y-99095835D01*
X260599667Y-98999511D01*
X260582859Y-98905367D01*
X260570225Y-98810117D01*
X260561360Y-98710470D01*
X260555862Y-98603140D01*
X260553326Y-98484836D01*
X260553045Y-98428969D01*
X260553720Y-98373608D01*
X261085794Y-98373608D01*
X261085897Y-98453746D01*
X261087563Y-98533410D01*
X261090759Y-98608537D01*
X261095456Y-98675060D01*
X261099176Y-98710750D01*
X261131050Y-98908048D01*
X261177701Y-99099663D01*
X261238951Y-99285222D01*
X261314619Y-99464349D01*
X261404527Y-99636669D01*
X261508494Y-99801809D01*
X261626341Y-99959393D01*
X261757888Y-100109047D01*
X261780224Y-100132260D01*
X261914458Y-100259334D01*
X262060160Y-100377270D01*
X262214631Y-100484090D01*
X262375169Y-100577816D01*
X262420958Y-100601504D01*
X262495366Y-100638153D01*
X262560607Y-100668372D01*
X262621104Y-100693940D01*
X262681278Y-100716634D01*
X262745551Y-100738233D01*
X262810625Y-100758227D01*
X262999838Y-100807640D01*
X263185589Y-100842091D01*
X263369327Y-100861714D01*
X263552503Y-100866642D01*
X263736564Y-100857011D01*
X263803106Y-100850031D01*
X263990438Y-100821087D01*
X264170019Y-100779278D01*
X264344357Y-100723854D01*
X264515959Y-100654064D01*
X264612916Y-100607866D01*
X264783548Y-100514447D01*
X264942964Y-100410712D01*
X265091922Y-100295974D01*
X265231179Y-100169550D01*
X265361494Y-100030754D01*
X265483624Y-99878903D01*
X265591892Y-99723259D01*
X265617018Y-99682068D01*
X265646341Y-99629940D01*
X265678041Y-99570496D01*
X265710299Y-99507356D01*
X265741293Y-99444140D01*
X265769206Y-99384467D01*
X265792215Y-99331957D01*
X265805653Y-99298125D01*
X265868520Y-99106584D01*
X265915916Y-98913845D01*
X265947800Y-98720450D01*
X265964130Y-98526940D01*
X265964868Y-98333857D01*
X265949972Y-98141742D01*
X265919402Y-97951136D01*
X265909599Y-97905094D01*
X265875950Y-97768801D01*
X265837642Y-97642618D01*
X265792704Y-97521007D01*
X265739163Y-97398432D01*
X265701504Y-97320958D01*
X265607799Y-97152110D01*
X265500974Y-96991673D01*
X265381798Y-96840368D01*
X265251037Y-96698914D01*
X265109460Y-96568031D01*
X264957834Y-96448440D01*
X264796927Y-96340860D01*
X264627507Y-96246011D01*
X264483325Y-96178480D01*
X264311697Y-96112085D01*
X264139143Y-96060087D01*
X263963656Y-96022078D01*
X263783226Y-95997651D01*
X263595845Y-95986397D01*
X263532938Y-95985507D01*
X263334843Y-95991877D01*
X263143215Y-96012522D01*
X262957281Y-96047673D01*
X262776265Y-96097567D01*
X262599394Y-96162435D01*
X262425894Y-96242513D01*
X262254991Y-96338035D01*
X262154294Y-96402244D01*
X262014861Y-96503772D01*
X261880663Y-96618278D01*
X261753341Y-96743839D01*
X261634535Y-96878531D01*
X261525886Y-97020431D01*
X261429035Y-97167615D01*
X261345622Y-97318161D01*
X261310826Y-97391080D01*
X261249423Y-97535939D01*
X261199192Y-97675178D01*
X261158935Y-97813126D01*
X261127456Y-97954114D01*
X261103556Y-98102471D01*
X261095155Y-98171000D01*
X261090392Y-98228170D01*
X261087282Y-98297061D01*
X261085794Y-98373608D01*
X260553720Y-98373608D01*
X260554790Y-98285973D01*
X260560664Y-98155106D01*
X260571238Y-98033025D01*
X260587085Y-97916385D01*
X260608777Y-97801844D01*
X260636887Y-97686059D01*
X260671986Y-97565687D01*
X260714647Y-97437384D01*
X260730341Y-97393125D01*
X260808726Y-97198406D01*
X260901566Y-97010072D01*
X261008672Y-96828385D01*
X261129852Y-96653608D01*
X261264917Y-96486003D01*
X261413674Y-96325833D01*
X261575933Y-96173360D01*
X261682771Y-96083179D01*
X261768600Y-96017686D01*
X261866139Y-95950360D01*
X261971748Y-95883412D01*
X262081786Y-95819055D01*
X262192613Y-95759500D01*
X262300589Y-95706958D01*
X262306594Y-95704215D01*
X262376554Y-95674342D01*
X262457735Y-95642956D01*
X262545767Y-95611536D01*
X262636279Y-95581562D01*
X262724901Y-95554511D01*
X262807264Y-95531864D01*
X262839150Y-95523971D01*
X262932375Y-95503203D01*
X263021349Y-95486543D01*
X263109353Y-95473652D01*
X263199669Y-95464195D01*
X263295578Y-95457832D01*
X263400360Y-95454228D01*
X263517295Y-95453044D01*
X263528969Y-95453045D01*
X263528969Y-95453045D01*
G37*
X263528969Y-95453045D02*
X263653087Y-95454415D01*
X263764799Y-95458572D01*
X263867392Y-95465919D01*
X263964156Y-95476860D01*
X264058378Y-95491798D01*
X264153347Y-95511137D01*
X264252351Y-95535281D01*
X264297630Y-95547418D01*
X264506177Y-95612656D01*
X264708265Y-95691992D01*
X264903128Y-95785028D01*
X265089999Y-95891368D01*
X265268114Y-96010616D01*
X265420260Y-96128617D01*
X265577928Y-96269342D01*
X265725265Y-96420787D01*
X265861586Y-96581885D01*
X265986208Y-96751567D01*
X266098447Y-96928766D01*
X266197620Y-97112416D01*
X266283042Y-97301447D01*
X266354030Y-97494793D01*
X266402784Y-97662803D01*
X266435855Y-97802789D01*
X266461215Y-97934725D01*
X266479607Y-98063997D01*
X266491775Y-98195993D01*
X266498461Y-98336100D01*
X266499114Y-98361500D01*
X266496395Y-98579797D01*
X266478200Y-98794580D01*
X266444535Y-99005821D01*
X266395406Y-99213489D01*
X266330819Y-99417555D01*
X266266622Y-99581487D01*
X266238539Y-99646752D01*
X266214477Y-99700910D01*
X266192608Y-99747613D01*
X266171107Y-99790513D01*
X266148146Y-99833263D01*
X266121900Y-99879515D01*
X266092775Y-99929156D01*
X265973556Y-100115427D01*
X265843452Y-100290153D01*
X265702329Y-100453465D01*
X265550055Y-100605496D01*
X265386497Y-100746380D01*
X265211524Y-100876248D01*
X265029156Y-100992775D01*
X264976327Y-101023744D01*
X264930414Y-101049721D01*
X264887765Y-101072531D01*
X264844728Y-101094001D01*
X264797651Y-101115957D01*
X264742881Y-101140225D01*
X264681487Y-101166622D01*
X264585254Y-101206169D01*
X264496536Y-101239208D01*
X264409422Y-101267695D01*
X264317998Y-101293589D01*
X264235406Y-101314322D01*
X264070890Y-101349876D01*
X263913795Y-101375553D01*
X263759567Y-101391893D01*
X263603649Y-101399436D01*
X263513094Y-101400013D01*
X263461875Y-101399498D01*
X263413754Y-101398793D01*
X263371874Y-101397960D01*
X263339378Y-101397063D01*
X263319410Y-101396165D01*
X263318625Y-101396109D01*
X263102451Y-101372157D01*
X262889694Y-101333170D01*
X262681213Y-101279467D01*
X262477868Y-101211363D01*
X262280516Y-101129176D01*
X262090018Y-101033225D01*
X261907232Y-100923826D01*
X261756276Y-100818796D01*
X261583349Y-100680449D01*
X261422665Y-100532088D01*
X261274451Y-100374039D01*
X261138929Y-100206632D01*
X261016324Y-100030194D01*
X260906861Y-99845052D01*
X260810763Y-99651535D01*
X260728256Y-99449971D01*
X260659563Y-99240688D01*
X260647418Y-99197630D01*
X260621052Y-99095835D01*
X260599667Y-98999511D01*
X260582859Y-98905367D01*
X260570225Y-98810117D01*
X260561360Y-98710470D01*
X260555862Y-98603140D01*
X260553326Y-98484836D01*
X260553045Y-98428969D01*
X260553720Y-98373608D01*
X261085794Y-98373608D01*
X261085897Y-98453746D01*
X261087563Y-98533410D01*
X261090759Y-98608537D01*
X261095456Y-98675060D01*
X261099176Y-98710750D01*
X261131050Y-98908048D01*
X261177701Y-99099663D01*
X261238951Y-99285222D01*
X261314619Y-99464349D01*
X261404527Y-99636669D01*
X261508494Y-99801809D01*
X261626341Y-99959393D01*
X261757888Y-100109047D01*
X261780224Y-100132260D01*
X261914458Y-100259334D01*
X262060160Y-100377270D01*
X262214631Y-100484090D01*
X262375169Y-100577816D01*
X262420958Y-100601504D01*
X262495366Y-100638153D01*
X262560607Y-100668372D01*
X262621104Y-100693940D01*
X262681278Y-100716634D01*
X262745551Y-100738233D01*
X262810625Y-100758227D01*
X262999838Y-100807640D01*
X263185589Y-100842091D01*
X263369327Y-100861714D01*
X263552503Y-100866642D01*
X263736564Y-100857011D01*
X263803106Y-100850031D01*
X263990438Y-100821087D01*
X264170019Y-100779278D01*
X264344357Y-100723854D01*
X264515959Y-100654064D01*
X264612916Y-100607866D01*
X264783548Y-100514447D01*
X264942964Y-100410712D01*
X265091922Y-100295974D01*
X265231179Y-100169550D01*
X265361494Y-100030754D01*
X265483624Y-99878903D01*
X265591892Y-99723259D01*
X265617018Y-99682068D01*
X265646341Y-99629940D01*
X265678041Y-99570496D01*
X265710299Y-99507356D01*
X265741293Y-99444140D01*
X265769206Y-99384467D01*
X265792215Y-99331957D01*
X265805653Y-99298125D01*
X265868520Y-99106584D01*
X265915916Y-98913845D01*
X265947800Y-98720450D01*
X265964130Y-98526940D01*
X265964868Y-98333857D01*
X265949972Y-98141742D01*
X265919402Y-97951136D01*
X265909599Y-97905094D01*
X265875950Y-97768801D01*
X265837642Y-97642618D01*
X265792704Y-97521007D01*
X265739163Y-97398432D01*
X265701504Y-97320958D01*
X265607799Y-97152110D01*
X265500974Y-96991673D01*
X265381798Y-96840368D01*
X265251037Y-96698914D01*
X265109460Y-96568031D01*
X264957834Y-96448440D01*
X264796927Y-96340860D01*
X264627507Y-96246011D01*
X264483325Y-96178480D01*
X264311697Y-96112085D01*
X264139143Y-96060087D01*
X263963656Y-96022078D01*
X263783226Y-95997651D01*
X263595845Y-95986397D01*
X263532938Y-95985507D01*
X263334843Y-95991877D01*
X263143215Y-96012522D01*
X262957281Y-96047673D01*
X262776265Y-96097567D01*
X262599394Y-96162435D01*
X262425894Y-96242513D01*
X262254991Y-96338035D01*
X262154294Y-96402244D01*
X262014861Y-96503772D01*
X261880663Y-96618278D01*
X261753341Y-96743839D01*
X261634535Y-96878531D01*
X261525886Y-97020431D01*
X261429035Y-97167615D01*
X261345622Y-97318161D01*
X261310826Y-97391080D01*
X261249423Y-97535939D01*
X261199192Y-97675178D01*
X261158935Y-97813126D01*
X261127456Y-97954114D01*
X261103556Y-98102471D01*
X261095155Y-98171000D01*
X261090392Y-98228170D01*
X261087282Y-98297061D01*
X261085794Y-98373608D01*
X260553720Y-98373608D01*
X260554790Y-98285973D01*
X260560664Y-98155106D01*
X260571238Y-98033025D01*
X260587085Y-97916385D01*
X260608777Y-97801844D01*
X260636887Y-97686059D01*
X260671986Y-97565687D01*
X260714647Y-97437384D01*
X260730341Y-97393125D01*
X260808726Y-97198406D01*
X260901566Y-97010072D01*
X261008672Y-96828385D01*
X261129852Y-96653608D01*
X261264917Y-96486003D01*
X261413674Y-96325833D01*
X261575933Y-96173360D01*
X261682771Y-96083179D01*
X261768600Y-96017686D01*
X261866139Y-95950360D01*
X261971748Y-95883412D01*
X262081786Y-95819055D01*
X262192613Y-95759500D01*
X262300589Y-95706958D01*
X262306594Y-95704215D01*
X262376554Y-95674342D01*
X262457735Y-95642956D01*
X262545767Y-95611536D01*
X262636279Y-95581562D01*
X262724901Y-95554511D01*
X262807264Y-95531864D01*
X262839150Y-95523971D01*
X262932375Y-95503203D01*
X263021349Y-95486543D01*
X263109353Y-95473652D01*
X263199669Y-95464195D01*
X263295578Y-95457832D01*
X263400360Y-95454228D01*
X263517295Y-95453044D01*
X263528969Y-95453045D01*
G04 #@! TD*
D12*
G04 #@! TO.C,REF\002A\002A*
X301961522Y-80888478D03*
X303800000Y-81650000D03*
X305842035Y-81650000D03*
X305842035Y-76450000D03*
X303800000Y-76450000D03*
X301961522Y-77211522D03*
X301200000Y-79050000D03*
X24357965Y-81650000D03*
X24357965Y-76450000D03*
X28238478Y-80888478D03*
X28238478Y-77211522D03*
X26400000Y-81650000D03*
X26400000Y-76450000D03*
X29000000Y-79050000D03*
X152000000Y-71850000D03*
X149600000Y-71850000D03*
X150800000Y-71850000D03*
X149600000Y-67250000D03*
X152000000Y-67250000D03*
X150800000Y-67250000D03*
X214300000Y-110050000D03*
X211900000Y-110050000D03*
X211900000Y-105450000D03*
X214300000Y-105450000D03*
X213100000Y-110050000D03*
X213100000Y-105450000D03*
X283850000Y-48133000D03*
X281450000Y-48150000D03*
X281450000Y-52750000D03*
X283850000Y-52750000D03*
X282650000Y-52750000D03*
X282650000Y-48150000D03*
X49426346Y-52076346D03*
X46173654Y-52076346D03*
X49426346Y-48823654D03*
X46173654Y-48823654D03*
X47800000Y-52750000D03*
X50100000Y-50450000D03*
X45500000Y-50450000D03*
X47800000Y-48150000D03*
D13*
X282650000Y-50450000D03*
X213100000Y-107750000D03*
X150800000Y-69550000D03*
D14*
X47800000Y-50450000D03*
G04 #@! TD*
D15*
G04 #@! TO.C,USB1*
X45157600Y-23237500D03*
X36517600Y-23237500D03*
D16*
X45157600Y-27417500D03*
X36517600Y-27417500D03*
D17*
X37947600Y-26887500D03*
X43727600Y-26887500D03*
G04 #@! TD*
D18*
G04 #@! TO.C,K_\002C1*
X207962500Y-88900000D03*
D19*
X202882500Y-88900000D03*
X213042500Y-88900000D03*
G04 #@! TD*
D18*
G04 #@! TO.C,K_.1*
X227012500Y-88900000D03*
D19*
X221932500Y-88900000D03*
X232092500Y-88900000D03*
G04 #@! TD*
G04 #@! TO.C,K_#1*
X45720000Y-31750000D03*
X55880000Y-31750000D03*
D18*
X50800000Y-31750000D03*
G04 #@! TD*
D19*
G04 #@! TO.C,K_#2*
X74930000Y-31750000D03*
X64770000Y-31750000D03*
D18*
X69850000Y-31750000D03*
G04 #@! TD*
D19*
G04 #@! TO.C,K_#3*
X93980000Y-31750000D03*
X83820000Y-31750000D03*
D18*
X88900000Y-31750000D03*
G04 #@! TD*
D19*
G04 #@! TO.C,K_#4*
X113030000Y-31750000D03*
X102870000Y-31750000D03*
D18*
X107950000Y-31750000D03*
G04 #@! TD*
D19*
G04 #@! TO.C,K_#5*
X132080000Y-31750000D03*
X121920000Y-31750000D03*
D18*
X127000000Y-31750000D03*
G04 #@! TD*
D19*
G04 #@! TO.C,K_#6*
X151130000Y-31750000D03*
X140970000Y-31750000D03*
D18*
X146050000Y-31750000D03*
G04 #@! TD*
D19*
G04 #@! TO.C,K_#7*
X170180000Y-31750000D03*
X160020000Y-31750000D03*
D18*
X165100000Y-31750000D03*
G04 #@! TD*
G04 #@! TO.C,K_#8*
X184150000Y-31750000D03*
D19*
X179070000Y-31750000D03*
X189230000Y-31750000D03*
G04 #@! TD*
G04 #@! TO.C,K_#9*
X208280000Y-31750000D03*
X198120000Y-31750000D03*
D18*
X203200000Y-31750000D03*
G04 #@! TD*
G04 #@! TO.C,K_#10*
X222250000Y-31750000D03*
D19*
X217170000Y-31750000D03*
X227330000Y-31750000D03*
G04 #@! TD*
D18*
G04 #@! TO.C,K_'1*
X255587500Y-69850000D03*
D19*
X250507500Y-69850000D03*
X260667500Y-69850000D03*
G04 #@! TD*
D18*
G04 #@! TO.C,K_-1*
X241300000Y-31750000D03*
D19*
X236220000Y-31750000D03*
X246380000Y-31750000D03*
G04 #@! TD*
D18*
G04 #@! TO.C,K_/1*
X246062500Y-88900000D03*
D19*
X240982500Y-88900000D03*
X251142500Y-88900000D03*
G04 #@! TD*
D18*
G04 #@! TO.C,K_;1*
X236537500Y-69850000D03*
D19*
X231457500Y-69850000D03*
X241617500Y-69850000D03*
G04 #@! TD*
D18*
G04 #@! TO.C,K_=1*
X260350000Y-31750000D03*
D19*
X255270000Y-31750000D03*
X265430000Y-31750000D03*
G04 #@! TD*
D18*
G04 #@! TO.C,K_[1*
X250825000Y-50800000D03*
D19*
X245745000Y-50800000D03*
X255905000Y-50800000D03*
G04 #@! TD*
G04 #@! TO.C,K_\005C1*
X298767500Y-50800000D03*
X288607500Y-50800000D03*
D18*
X293687500Y-50800000D03*
G04 #@! TD*
D19*
G04 #@! TO.C,K_\005C2*
X279717500Y-69850000D03*
X269557500Y-69850000D03*
D18*
X274637500Y-69850000D03*
G04 #@! TD*
G04 #@! TO.C,K_]1*
X269875000Y-50800000D03*
D19*
X264795000Y-50800000D03*
X274955000Y-50800000D03*
G04 #@! TD*
D18*
G04 #@! TO.C,K_A1*
X65087500Y-69850000D03*
D19*
X60007500Y-69850000D03*
X70167500Y-69850000D03*
G04 #@! TD*
G04 #@! TO.C,K_ALT1*
X86836250Y-107950000D03*
X76676250Y-107950000D03*
D18*
X81756250Y-107950000D03*
G04 #@! TD*
G04 #@! TO.C,K_ALT2*
X84137500Y-107950000D03*
D19*
X79057500Y-107950000D03*
X89217500Y-107950000D03*
G04 #@! TD*
D18*
G04 #@! TO.C,K_B1*
X150812500Y-88900000D03*
D19*
X145732500Y-88900000D03*
X155892500Y-88900000D03*
G04 #@! TD*
D18*
G04 #@! TO.C,K_BACK1*
X288925000Y-31750000D03*
D19*
X283845000Y-31750000D03*
X294005000Y-31750000D03*
D20*
X276987000Y-24765000D03*
X300863000Y-24765000D03*
D18*
X276987000Y-40005000D03*
X300863000Y-40005000D03*
G04 #@! TD*
G04 #@! TO.C,K_C1*
X112712500Y-88900000D03*
D19*
X107632500Y-88900000D03*
X117792500Y-88900000D03*
G04 #@! TD*
G04 #@! TO.C,K_CAPS1*
X43973750Y-69850000D03*
X33813750Y-69850000D03*
D18*
X38893750Y-69850000D03*
G04 #@! TD*
G04 #@! TO.C,K_CAPS2*
X34131250Y-69850000D03*
D19*
X29051250Y-69850000D03*
X39211250Y-69850000D03*
G04 #@! TD*
G04 #@! TO.C,K_CTRL1*
X39211250Y-107950000D03*
X29051250Y-107950000D03*
D18*
X34131250Y-107950000D03*
G04 #@! TD*
D19*
G04 #@! TO.C,K_CTRL2*
X41592500Y-107950000D03*
X31432500Y-107950000D03*
D18*
X36512500Y-107950000D03*
G04 #@! TD*
D19*
G04 #@! TO.C,K_D1*
X108267500Y-69850000D03*
X98107500Y-69850000D03*
D18*
X103187500Y-69850000D03*
G04 #@! TD*
G04 #@! TO.C,K_E1*
X98425000Y-50800000D03*
D19*
X93345000Y-50800000D03*
X103505000Y-50800000D03*
G04 #@! TD*
D18*
G04 #@! TO.C,K_ENTER1*
X286543750Y-69850000D03*
D19*
X281463750Y-69850000D03*
X291623750Y-69850000D03*
D20*
X274605750Y-62865000D03*
X298481750Y-62865000D03*
D18*
X274605750Y-78105000D03*
X298481750Y-78105000D03*
G04 #@! TD*
G04 #@! TO.C,K_ENTER2*
X296068750Y-60325000D03*
D21*
X296068750Y-55245000D03*
X296068750Y-65405000D03*
D20*
X303053750Y-72263000D03*
X303053750Y-48387000D03*
D18*
X287813750Y-72263000D03*
X287813750Y-48387000D03*
G04 #@! TD*
D19*
G04 #@! TO.C,K_ESC1*
X26670000Y-31750000D03*
X36830000Y-31750000D03*
D18*
X31750000Y-31750000D03*
G04 #@! TD*
G04 #@! TO.C,K_F1*
X122237500Y-69850000D03*
D19*
X117157500Y-69850000D03*
X127317500Y-69850000D03*
G04 #@! TD*
G04 #@! TO.C,K_G1*
X146367500Y-69850000D03*
X136207500Y-69850000D03*
D18*
X141287500Y-69850000D03*
G04 #@! TD*
G04 #@! TO.C,K_H1*
X160337500Y-69850000D03*
D19*
X155257500Y-69850000D03*
X165417500Y-69850000D03*
G04 #@! TD*
D18*
G04 #@! TO.C,K_I1*
X193675000Y-50800000D03*
D19*
X188595000Y-50800000D03*
X198755000Y-50800000D03*
G04 #@! TD*
D18*
G04 #@! TO.C,K_J1*
X179387500Y-69850000D03*
D19*
X174307500Y-69850000D03*
X184467500Y-69850000D03*
G04 #@! TD*
D18*
G04 #@! TO.C,K_K1*
X198437500Y-69850000D03*
D19*
X193357500Y-69850000D03*
X203517500Y-69850000D03*
G04 #@! TD*
G04 #@! TO.C,K_L1*
X222567500Y-69850000D03*
X212407500Y-69850000D03*
D18*
X217487500Y-69850000D03*
G04 #@! TD*
D19*
G04 #@! TO.C,K_M1*
X193992500Y-88900000D03*
X183832500Y-88900000D03*
D18*
X188912500Y-88900000D03*
G04 #@! TD*
D19*
G04 #@! TO.C,K_N1*
X174942500Y-88900000D03*
X164782500Y-88900000D03*
D18*
X169862500Y-88900000D03*
G04 #@! TD*
G04 #@! TO.C,K_O1*
X212725000Y-50800000D03*
D19*
X207645000Y-50800000D03*
X217805000Y-50800000D03*
G04 #@! TD*
G04 #@! TO.C,K_P1*
X236855000Y-50800000D03*
X226695000Y-50800000D03*
D18*
X231775000Y-50800000D03*
G04 #@! TD*
D19*
G04 #@! TO.C,K_Q1*
X65405000Y-50800000D03*
X55245000Y-50800000D03*
D18*
X60325000Y-50800000D03*
G04 #@! TD*
D19*
G04 #@! TO.C,K_R1*
X122555000Y-50800000D03*
X112395000Y-50800000D03*
D18*
X117475000Y-50800000D03*
G04 #@! TD*
D19*
G04 #@! TO.C,K_RALT2*
X229711250Y-107950000D03*
X219551250Y-107950000D03*
D18*
X224631250Y-107950000D03*
G04 #@! TD*
D19*
G04 #@! TO.C,K_RALT3*
X251142500Y-107950000D03*
X240982500Y-107950000D03*
D18*
X246062500Y-107950000D03*
G04 #@! TD*
D19*
G04 #@! TO.C,K_RCTRL2*
X301148750Y-107950000D03*
X290988750Y-107950000D03*
D18*
X296068750Y-107950000D03*
G04 #@! TD*
G04 #@! TO.C,K_RCTRL3*
X293687500Y-107950000D03*
D19*
X288607500Y-107950000D03*
X298767500Y-107950000D03*
G04 #@! TD*
G04 #@! TO.C,K_RMENU2*
X277336250Y-107950000D03*
X267176250Y-107950000D03*
D18*
X272256250Y-107950000D03*
G04 #@! TD*
G04 #@! TO.C,K_RSHIFT1*
X281781250Y-88900000D03*
D19*
X276701250Y-88900000D03*
X286861250Y-88900000D03*
D20*
X269843250Y-81915000D03*
X293719250Y-81915000D03*
D18*
X269843250Y-97155000D03*
X293719250Y-97155000D03*
G04 #@! TD*
G04 #@! TO.C,K_RWIN2*
X248443750Y-107950000D03*
D19*
X243363750Y-107950000D03*
X253523750Y-107950000D03*
G04 #@! TD*
G04 #@! TO.C,K_RWIN3*
X274955000Y-107950000D03*
X264795000Y-107950000D03*
D18*
X269875000Y-107950000D03*
G04 #@! TD*
D19*
G04 #@! TO.C,K_S1*
X89217500Y-69850000D03*
X79057500Y-69850000D03*
D18*
X84137500Y-69850000D03*
G04 #@! TD*
D19*
G04 #@! TO.C,K_SBACK1*
X284480000Y-31750000D03*
X274320000Y-31750000D03*
D18*
X279400000Y-31750000D03*
G04 #@! TD*
D19*
G04 #@! TO.C,K_SBACK2*
X303530000Y-31750000D03*
X293370000Y-31750000D03*
D18*
X298450000Y-31750000D03*
G04 #@! TD*
G04 #@! TO.C,K_SHIFT1*
X55594250Y-97155000D03*
X31718250Y-97155000D03*
D20*
X55594250Y-81915000D03*
X31718250Y-81915000D03*
D19*
X48736250Y-88900000D03*
X38576250Y-88900000D03*
D18*
X43656250Y-88900000D03*
G04 #@! TD*
G04 #@! TO.C,K_SHIFT2*
X34131250Y-88900000D03*
D19*
X29051250Y-88900000D03*
X39211250Y-88900000D03*
G04 #@! TD*
D18*
G04 #@! TO.C,K_SHIFT3*
X55562500Y-88900000D03*
D19*
X50482500Y-88900000D03*
X60642500Y-88900000D03*
G04 #@! TD*
D18*
G04 #@! TO.C,K_SPACE1*
X165100000Y-107950000D03*
D19*
X160020000Y-107950000D03*
X170180000Y-107950000D03*
D20*
X107950000Y-114935000D03*
X222250000Y-114935000D03*
D18*
X107950000Y-99695000D03*
X222250000Y-99695000D03*
G04 #@! TD*
G04 #@! TO.C,K_SPACE2*
X153193750Y-107950000D03*
D19*
X148113750Y-107950000D03*
X158273750Y-107950000D03*
D20*
X103193850Y-114935000D03*
X203193650Y-114935000D03*
D18*
X103193850Y-99695000D03*
X203193650Y-99695000D03*
G04 #@! TD*
G04 #@! TO.C,K_SPACE3*
X115093750Y-107950000D03*
D19*
X110013750Y-107950000D03*
X120173750Y-107950000D03*
D20*
X103155750Y-114935000D03*
X127031750Y-114935000D03*
D18*
X103155750Y-99695000D03*
X127031750Y-99695000D03*
G04 #@! TD*
G04 #@! TO.C,K_SPACE4*
X186531250Y-107950000D03*
D19*
X181451250Y-107950000D03*
X191611250Y-107950000D03*
D20*
X174593250Y-114935000D03*
X198469250Y-114935000D03*
D18*
X174593250Y-99695000D03*
X198469250Y-99695000D03*
G04 #@! TD*
G04 #@! TO.C,K_SPACE5*
X148431250Y-107950000D03*
D19*
X143351250Y-107950000D03*
X153511250Y-107950000D03*
G04 #@! TD*
D18*
G04 #@! TO.C,K_SRSHIFT1*
X272256250Y-88900000D03*
D19*
X267176250Y-88900000D03*
X277336250Y-88900000D03*
G04 #@! TD*
G04 #@! TO.C,K_SRSHIFT2*
X303530000Y-88900000D03*
X293370000Y-88900000D03*
D18*
X298450000Y-88900000D03*
G04 #@! TD*
G04 #@! TO.C,K_T1*
X136525000Y-50800000D03*
D19*
X131445000Y-50800000D03*
X141605000Y-50800000D03*
G04 #@! TD*
D18*
G04 #@! TO.C,K_TAB1*
X36512500Y-50800000D03*
D19*
X31432500Y-50800000D03*
X41592500Y-50800000D03*
G04 #@! TD*
D18*
G04 #@! TO.C,K_U1*
X174625000Y-50800000D03*
D19*
X169545000Y-50800000D03*
X179705000Y-50800000D03*
G04 #@! TD*
G04 #@! TO.C,K_V1*
X136842500Y-88900000D03*
X126682500Y-88900000D03*
D18*
X131762500Y-88900000D03*
G04 #@! TD*
D19*
G04 #@! TO.C,K_W1*
X84455000Y-50800000D03*
X74295000Y-50800000D03*
D18*
X79375000Y-50800000D03*
G04 #@! TD*
G04 #@! TO.C,K_WIN1*
X57943750Y-107950000D03*
D19*
X52863750Y-107950000D03*
X63023750Y-107950000D03*
G04 #@! TD*
D18*
G04 #@! TO.C,K_WIN2*
X60325000Y-107950000D03*
D19*
X55245000Y-107950000D03*
X65405000Y-107950000D03*
G04 #@! TD*
D18*
G04 #@! TO.C,K_X1*
X93662500Y-88900000D03*
D19*
X88582500Y-88900000D03*
X98742500Y-88900000D03*
G04 #@! TD*
G04 #@! TO.C,K_Y1*
X160655000Y-50800000D03*
X150495000Y-50800000D03*
D18*
X155575000Y-50800000D03*
G04 #@! TD*
G04 #@! TO.C,K_Z1*
X74612500Y-88900000D03*
D19*
X69532500Y-88900000D03*
X79692500Y-88900000D03*
G04 #@! TD*
M02*
